<svg width="116" height="116" viewBox="0 0 116 116" fill="none" xmlns="http://www.w3.org/2000/svg">
<g clip-path="url(#clip0_3837_11)">
<rect width="116" height="116" rx="26" fill="#1C1C1C"/>
<g filter="url(#filter0_f_3837_11)">
<rect x="8" y="8" width="100" height="100" rx="20" fill="#2B3B59"/>
</g>
<rect x="8" y="8" width="100" height="100" rx="20" fill="#2B3B59"/>
<path d="M55.9128 16.3235C57.4194 15.4997 59.2434 15.5067 60.7437 16.3419L92.4321 33.9838C94.0173 34.8663 95 36.5382 95 38.3524V75.0882C95 76.8414 94.0817 78.4665 92.5799 79.3712L60.8902 98.4599C59.3153 99.4085 57.3468 99.4163 55.7644 98.4802L23.4541 79.3653C21.933 78.4654 21 76.8293 21 75.0619V38.3781C21 36.5502 21.9974 34.868 23.6012 33.9911L55.9128 16.3235Z" fill="#657FDA"/>
<path d="M89.4915 38.7568L27.0449 75.222C25.7036 76.0052 25.7281 77.9517 27.0886 78.701L57.5281 95.4648C58.1326 95.7977 58.8661 95.7954 59.4686 95.4587L91.4756 77.5724C92.1081 77.219 92.5 76.5511 92.5 75.8265V40.4839C92.5 38.9399 90.8248 37.9782 89.4915 38.7568Z" fill="#4A58A1"/>
<path d="M60 56L92.5 76L92.955 40.0567C92.9747 38.4969 91.2806 37.516 89.9377 38.3096L60 56Z" fill="#5964C2"/>
<mask id="path-7-outside-1_3837_11" maskUnits="userSpaceOnUse" x="38" y="35" width="38" height="41" fill="black">
<rect fill="white" x="38" y="35" width="38" height="41"/>
<path d="M58.644 74.728C53.2013 74.728 48.6773 72.908 45.072 69.268C41.5013 65.6627 39.716 61.1733 39.716 55.8C39.716 50.392 41.5013 45.9027 45.072 42.332C48.6773 38.692 53.2013 36.872 58.644 36.872C61.9373 36.872 64.9707 37.652 67.744 39.212C70.552 40.7373 72.736 42.8173 74.296 45.452L68.108 49.04C67.2067 47.4107 65.924 46.1453 64.26 45.244C62.596 44.308 60.724 43.84 58.644 43.84C55.108 43.84 52.248 44.9493 50.064 47.168C47.9147 49.4213 46.84 52.2987 46.84 55.8C46.84 59.2667 47.9147 62.1267 50.064 64.38C52.248 66.5987 55.108 67.708 58.644 67.708C60.724 67.708 62.596 67.2573 64.26 66.356C65.9587 65.42 67.2413 64.1547 68.108 62.56L74.296 66.148C72.736 68.7827 70.552 70.88 67.744 72.44C64.9707 73.9653 61.9373 74.728 58.644 74.728Z"/>
</mask>
<path d="M58.644 74.728C53.2013 74.728 48.6773 72.908 45.072 69.268C41.5013 65.6627 39.716 61.1733 39.716 55.8C39.716 50.392 41.5013 45.9027 45.072 42.332C48.6773 38.692 53.2013 36.872 58.644 36.872C61.9373 36.872 64.9707 37.652 67.744 39.212C70.552 40.7373 72.736 42.8173 74.296 45.452L68.108 49.04C67.2067 47.4107 65.924 46.1453 64.26 45.244C62.596 44.308 60.724 43.84 58.644 43.84C55.108 43.84 52.248 44.9493 50.064 47.168C47.9147 49.4213 46.84 52.2987 46.84 55.8C46.84 59.2667 47.9147 62.1267 50.064 64.38C52.248 66.5987 55.108 67.708 58.644 67.708C60.724 67.708 62.596 67.2573 64.26 66.356C65.9587 65.42 67.2413 64.1547 68.108 62.56L74.296 66.148C72.736 68.7827 70.552 70.88 67.744 72.44C64.9707 73.9653 61.9373 74.728 58.644 74.728Z" fill="white"/>
<path d="M45.072 69.268L44.3615 69.9717L44.3615 69.9717L45.072 69.268ZM45.072 42.332L45.7791 43.0391L45.7825 43.0357L45.072 42.332ZM67.744 39.212L67.2537 40.0836L67.2602 40.0872L67.2667 40.0907L67.744 39.212ZM74.296 45.452L74.7976 46.3171L75.6706 45.8109L75.1565 44.9425L74.296 45.452ZM68.108 49.04L67.233 49.5241L67.7269 50.4169L68.6096 49.9051L68.108 49.04ZM64.26 45.244L63.7697 46.1156L63.7767 46.1195L63.7837 46.1233L64.26 45.244ZM50.064 47.168L49.3513 46.4665L49.3458 46.4721L49.3404 46.4778L50.064 47.168ZM50.064 64.38L49.3404 65.0702L49.3458 65.0759L49.3513 65.0815L50.064 64.38ZM64.26 66.356L64.7363 67.2353L64.7426 67.2318L64.26 66.356ZM68.108 62.56L68.6096 61.6949L67.7203 61.1792L67.2294 62.0825L68.108 62.56ZM74.296 66.148L75.1565 66.6575L75.6706 65.7891L74.7976 65.2829L74.296 66.148ZM67.744 72.44L68.2259 73.3162L68.2296 73.3142L67.744 72.44ZM58.644 73.728C53.4497 73.728 49.1874 72.0019 45.7825 68.5643L44.3615 69.9717C48.1673 73.8141 52.9529 75.728 58.644 75.728V73.728ZM45.7825 68.5643C42.4091 65.1581 40.716 60.927 40.716 55.8H38.716C38.716 61.4197 40.5936 66.1672 44.3615 69.9717L45.7825 68.5643ZM40.716 55.8C40.716 50.6364 42.4102 46.408 45.7791 43.0391L44.3649 41.6249C40.5925 45.3973 38.716 50.1476 38.716 55.8H40.716ZM45.7825 43.0357C49.1874 39.5981 53.4497 37.872 58.644 37.872V35.872C52.9529 35.872 48.1673 37.7859 44.3615 41.6283L45.7825 43.0357ZM58.644 37.872C61.7719 37.872 64.6355 38.6108 67.2537 40.0836L68.2343 38.3404C65.3059 36.6932 62.1028 35.872 58.644 35.872V37.872ZM67.2667 40.0907C69.9232 41.5338 71.9717 43.4892 73.4355 45.9615L75.1565 44.9425C73.5003 42.1455 71.1808 39.9409 68.2213 38.3333L67.2667 40.0907ZM73.7944 44.5869L67.6064 48.1749L68.6096 49.9051L74.7976 46.3171L73.7944 44.5869ZM68.983 48.5559C67.9877 46.7566 66.5653 45.3554 64.7363 44.3647L63.7837 46.1233C65.2827 46.9352 66.4257 48.0647 67.233 49.5241L68.983 48.5559ZM64.7503 44.3724C62.9234 43.3448 60.8799 42.84 58.644 42.84V44.84C60.5681 44.84 62.2686 45.2712 63.7697 46.1156L64.7503 44.3724ZM58.644 42.84C54.8798 42.84 51.7495 44.0303 49.3513 46.4665L50.7767 47.8695C52.7465 45.8684 55.3362 44.84 58.644 44.84V42.84ZM49.3404 46.4778C46.9911 48.9408 45.84 52.0763 45.84 55.8H47.84C47.84 52.5211 48.8382 49.9019 50.7876 47.8582L49.3404 46.4778ZM45.84 55.8C45.84 59.4921 46.9929 62.6092 49.3404 65.0702L50.7876 63.6898C48.8364 61.6442 47.84 59.0413 47.84 55.8H45.84ZM49.3513 65.0815C51.7495 67.5177 54.8798 68.708 58.644 68.708V66.708C55.3362 66.708 52.7465 65.6796 50.7767 63.6785L49.3513 65.0815ZM58.644 68.708C60.8735 68.708 62.9119 68.2235 64.7363 67.2353L63.7837 65.4767C62.2801 66.2912 60.5745 66.708 58.644 66.708V68.708ZM64.7426 67.2318C66.5966 66.2102 68.0224 64.8117 68.9866 63.0375L67.2294 62.0825C66.4603 63.4976 65.3207 64.6298 63.7774 65.4802L64.7426 67.2318ZM67.6064 63.4251L73.7944 67.0131L74.7976 65.2829L68.6096 61.6949L67.6064 63.4251ZM73.4355 65.6385C71.9704 68.1129 69.9192 70.0876 67.2584 71.5658L68.2296 73.3142C71.1848 71.6724 73.5016 69.4524 75.1565 66.6575L73.4355 65.6385ZM67.2621 71.5638C64.6425 73.0046 61.7759 73.728 58.644 73.728V75.728C62.0987 75.728 65.2989 74.9261 68.2259 73.3162L67.2621 71.5638Z" fill="white" mask="url(#path-7-outside-1_3837_11)"/>
<rect x="72" y="52" width="2" height="8" fill="white"/>
<rect x="69" y="57" width="2" height="8" transform="rotate(-90 69 57)" fill="white"/>
<rect x="82" y="52" width="2" height="8" fill="white"/>
<rect x="79" y="57" width="2" height="8" transform="rotate(-90 79 57)" fill="white"/>
</g>
<defs>
<filter id="filter0_f_3837_11" x="-3" y="-3" width="122" height="122" filterUnits="userSpaceOnUse" color-interpolation-filters="sRGB">
<feFlood flood-opacity="0" result="BackgroundImageFix"/>
<feBlend mode="normal" in="SourceGraphic" in2="BackgroundImageFix" result="shape"/>
<feGaussianBlur stdDeviation="5.5" result="effect1_foregroundBlur_3837_11"/>
</filter>
<clipPath id="clip0_3837_11">
<rect width="116" height="116" rx="26" fill="white"/>
</clipPath>
</defs>
</svg>
