<svg width="136" height="136" viewBox="0 0 136 136" fill="none" xmlns="http://www.w3.org/2000/svg">
<g clip-path="url(#clip0_3328_1111)">
<rect width="136" height="136" rx="20" fill="#21365E"/>
<g filter="url(#filter0_d_3328_1111)">
<path d="M4 89H29V64H79V39H107V89H132V114H4V89Z" fill="#0D2A3E"/>
</g>
<rect x="-7" y="117" width="143" height="27" fill="#4677B1"/>
<rect y="114" width="135" height="3" fill="#0D2A3E"/>
<g filter="url(#filter1_d_3328_1111)">
<rect x="7" y="92" width="22" height="22" rx="2" fill="#4677B1"/>
</g>
<rect x="9" y="94" width="2" height="18" rx="1" fill="#0D2A3E"/>
<rect x="13" y="94" width="2" height="18" rx="1" fill="#0D2A3E"/>
<rect x="17" y="94" width="2" height="18" rx="1" fill="#0D2A3E"/>
<rect x="21" y="94" width="2" height="18" rx="1" fill="#0D2A3E"/>
<rect x="25" y="94" width="2" height="18" rx="1" fill="#0D2A3E"/>
<g filter="url(#filter2_d_3328_1111)">
<rect x="32" y="67" width="22" height="22" rx="2" fill="#4677B1"/>
</g>
<rect x="34" y="69" width="2" height="18" rx="1" fill="#0D2A3E"/>
<rect x="38" y="69" width="2" height="18" rx="1" fill="#0D2A3E"/>
<rect x="42" y="69" width="2" height="18" rx="1" fill="#0D2A3E"/>
<rect x="46" y="69" width="2" height="18" rx="1" fill="#0D2A3E"/>
<rect x="50" y="69" width="2" height="18" rx="1" fill="#0D2A3E"/>
<g filter="url(#filter3_d_3328_1111)">
<rect x="57" y="67" width="22" height="22" rx="2" fill="#4677B1"/>
</g>
<rect x="59" y="69" width="2" height="18" rx="1" fill="#0D2A3E"/>
<rect x="63" y="69" width="2" height="18" rx="1" fill="#0D2A3E"/>
<rect x="67" y="69" width="2" height="18" rx="1" fill="#0D2A3E"/>
<rect x="71" y="69" width="2" height="18" rx="1" fill="#0D2A3E"/>
<rect x="75" y="69" width="2" height="18" rx="1" fill="#0D2A3E"/>
<g filter="url(#filter4_d_3328_1111)">
<rect x="82" y="67" width="22" height="22" rx="2" fill="#4677B1"/>
</g>
<rect x="84" y="69" width="2" height="18" rx="1" fill="#0D2A3E"/>
<rect x="88" y="69" width="2" height="18" rx="1" fill="#0D2A3E"/>
<rect x="92" y="69" width="2" height="18" rx="1" fill="#0D2A3E"/>
<rect x="96" y="69" width="2" height="18" rx="1" fill="#0D2A3E"/>
<rect x="100" y="69" width="2" height="18" rx="1" fill="#0D2A3E"/>
<g filter="url(#filter5_d_3328_1111)">
<rect x="82" y="42" width="22" height="22" rx="2" fill="#4677B1"/>
</g>
<rect x="84" y="44" width="2" height="18" rx="1" fill="#0D2A3E"/>
<rect x="88" y="44" width="2" height="18" rx="1" fill="#0D2A3E"/>
<rect x="92" y="44" width="2" height="18" rx="1" fill="#0D2A3E"/>
<rect x="96" y="44" width="2" height="18" rx="1" fill="#0D2A3E"/>
<rect x="100" y="44" width="2" height="18" rx="1" fill="#0D2A3E"/>
<g filter="url(#filter6_d_3328_1111)">
<rect x="32" y="92" width="22" height="22" rx="2" fill="#4677B1"/>
</g>
<rect x="34" y="94" width="2" height="18" rx="1" fill="#0D2A3E"/>
<rect x="38" y="94" width="2" height="18" rx="1" fill="#0D2A3E"/>
<rect x="42" y="94" width="2" height="18" rx="1" fill="#0D2A3E"/>
<rect x="46" y="94" width="2" height="18" rx="1" fill="#0D2A3E"/>
<rect x="50" y="94" width="2" height="18" rx="1" fill="#0D2A3E"/>
<rect x="57" y="92" width="22" height="22" rx="2" fill="#4677B1"/>
<rect x="59" y="94" width="2" height="18" rx="1" fill="#0D2A3E"/>
<rect x="63" y="94" width="2" height="18" rx="1" fill="#0D2A3E"/>
<rect x="67" y="94" width="2" height="18" rx="1" fill="#0D2A3E"/>
<rect x="71" y="94" width="2" height="18" rx="1" fill="#0D2A3E"/>
<rect x="75" y="94" width="2" height="18" rx="1" fill="#0D2A3E"/>
<rect x="82" y="92" width="22" height="22" rx="2" fill="#4677B1"/>
<rect x="84" y="94" width="2" height="18" rx="1" fill="#0D2A3E"/>
<rect x="88" y="94" width="2" height="18" rx="1" fill="#0D2A3E"/>
<rect x="92" y="94" width="2" height="18" rx="1" fill="#0D2A3E"/>
<rect x="96" y="94" width="2" height="18" rx="1" fill="#0D2A3E"/>
<rect x="100" y="94" width="2" height="18" rx="1" fill="#0D2A3E"/>
<g filter="url(#filter7_d_3328_1111)">
<rect x="107" y="92" width="22" height="22" rx="2" fill="#4677B1"/>
</g>
<rect x="109" y="94" width="2" height="18" rx="1" fill="#0D2A3E"/>
<rect x="113" y="94" width="2" height="18" rx="1" fill="#0D2A3E"/>
<rect x="117" y="94" width="2" height="18" rx="1" fill="#0D2A3E"/>
<rect x="121" y="94" width="2" height="18" rx="1" fill="#0D2A3E"/>
<rect x="125" y="94" width="2" height="18" rx="1" fill="#0D2A3E"/>
<g filter="url(#filter8_f_3328_1111)">
<path d="M18.69 25.8H25.918C28.414 25.8 30.494 26.6753 32.158 28.426C33.8393 30.1593 34.68 32.3173 34.68 34.9C34.68 37.4827 33.8393 39.6407 32.158 41.374C30.494 43.1247 28.414 44 25.918 44H18.69V25.8ZM22.278 40.568H25.918C27.4953 40.568 28.778 40.048 29.766 39.008C30.754 37.9333 31.248 36.564 31.248 34.9C31.248 33.2187 30.754 31.858 29.766 30.818C28.778 29.7607 27.4953 29.232 25.918 29.232H22.278V40.568ZM52.5392 41.634C50.7018 43.454 48.4658 44.364 45.8312 44.364C43.1965 44.364 40.9605 43.454 39.1232 41.634C37.3032 39.7793 36.3932 37.5347 36.3932 34.9C36.3932 32.248 37.3032 30.012 39.1232 28.192C40.9605 26.3547 43.1965 25.436 45.8312 25.436C48.4658 25.436 50.7018 26.3547 52.5392 28.192C54.3765 30.012 55.2952 32.248 55.2952 34.9C55.2952 37.552 54.3765 39.7967 52.5392 41.634ZM41.6452 39.19C42.7545 40.2993 44.1498 40.854 45.8312 40.854C47.5125 40.854 48.9078 40.2993 50.0172 39.19C51.1438 38.0633 51.7072 36.6333 51.7072 34.9C51.7072 33.1667 51.1438 31.7367 50.0172 30.61C48.8905 29.4833 47.4952 28.92 45.8312 28.92C44.1672 28.92 42.7718 29.4833 41.6452 30.61C40.5185 31.7367 39.9552 33.1667 39.9552 34.9C39.9552 36.6333 40.5185 38.0633 41.6452 39.19ZM66.449 44.364C63.7276 44.364 61.4656 43.454 59.663 41.634C57.8776 39.8313 56.985 37.5867 56.985 34.9C56.985 32.196 57.8776 29.9513 59.663 28.166C61.4656 26.346 63.7276 25.436 66.449 25.436C68.0956 25.436 69.6123 25.826 70.999 26.606C72.403 27.3687 73.495 28.4087 74.275 29.726L71.181 31.52C70.7303 30.7053 70.089 30.0727 69.257 29.622C68.425 29.154 67.489 28.92 66.449 28.92C64.681 28.92 63.251 29.4747 62.159 30.584C61.0843 31.7107 60.547 33.1493 60.547 34.9C60.547 36.6333 61.0843 38.0633 62.159 39.19C63.251 40.2993 64.681 40.854 66.449 40.854C67.489 40.854 68.425 40.6287 69.257 40.178C70.1063 39.71 70.7476 39.0773 71.181 38.28L74.275 40.074C73.495 41.3913 72.403 42.44 70.999 43.22C69.6123 43.9827 68.0956 44.364 66.449 44.364ZM83.7071 34.64L90.7011 44H86.5671L80.0671 35.472V44H76.4791V25.8H80.0671V33.834L86.3071 25.8H90.4411L83.7071 34.64ZM96.0632 36.486V40.568H103.733V44H92.4752V25.8H103.603V29.232H96.0632V33.106H102.953V36.486H96.0632ZM120.12 44H116.246L112.58 37.682H109.85V44H106.262V25.8H113.542C115.224 25.8 116.654 26.3893 117.832 27.568C119.011 28.7467 119.6 30.168 119.6 31.832C119.6 32.9587 119.28 34.0073 118.638 34.978C117.997 35.9313 117.148 36.6507 116.09 37.136L120.12 44ZM113.542 29.154H109.85V34.536H113.542C114.218 34.536 114.799 34.276 115.284 33.756C115.77 33.2187 116.012 32.5773 116.012 31.832C116.012 31.0867 115.77 30.454 115.284 29.934C114.799 29.414 114.218 29.154 113.542 29.154Z" fill="#101F3A"/>
</g>
<g filter="url(#filter9_f_3328_1111)">
<path d="M18.69 25.8H25.918C28.414 25.8 30.494 26.6753 32.158 28.426C33.8393 30.1593 34.68 32.3173 34.68 34.9C34.68 37.4827 33.8393 39.6407 32.158 41.374C30.494 43.1247 28.414 44 25.918 44H18.69V25.8ZM22.278 40.568H25.918C27.4953 40.568 28.778 40.048 29.766 39.008C30.754 37.9333 31.248 36.564 31.248 34.9C31.248 33.2187 30.754 31.858 29.766 30.818C28.778 29.7607 27.4953 29.232 25.918 29.232H22.278V40.568ZM52.5392 41.634C50.7018 43.454 48.4658 44.364 45.8312 44.364C43.1965 44.364 40.9605 43.454 39.1232 41.634C37.3032 39.7793 36.3932 37.5347 36.3932 34.9C36.3932 32.248 37.3032 30.012 39.1232 28.192C40.9605 26.3547 43.1965 25.436 45.8312 25.436C48.4658 25.436 50.7018 26.3547 52.5392 28.192C54.3765 30.012 55.2952 32.248 55.2952 34.9C55.2952 37.552 54.3765 39.7967 52.5392 41.634ZM41.6452 39.19C42.7545 40.2993 44.1498 40.854 45.8312 40.854C47.5125 40.854 48.9078 40.2993 50.0172 39.19C51.1438 38.0633 51.7072 36.6333 51.7072 34.9C51.7072 33.1667 51.1438 31.7367 50.0172 30.61C48.8905 29.4833 47.4952 28.92 45.8312 28.92C44.1672 28.92 42.7718 29.4833 41.6452 30.61C40.5185 31.7367 39.9552 33.1667 39.9552 34.9C39.9552 36.6333 40.5185 38.0633 41.6452 39.19ZM66.449 44.364C63.7276 44.364 61.4656 43.454 59.663 41.634C57.8776 39.8313 56.985 37.5867 56.985 34.9C56.985 32.196 57.8776 29.9513 59.663 28.166C61.4656 26.346 63.7276 25.436 66.449 25.436C68.0956 25.436 69.6123 25.826 70.999 26.606C72.403 27.3687 73.495 28.4087 74.275 29.726L71.181 31.52C70.7303 30.7053 70.089 30.0727 69.257 29.622C68.425 29.154 67.489 28.92 66.449 28.92C64.681 28.92 63.251 29.4747 62.159 30.584C61.0843 31.7107 60.547 33.1493 60.547 34.9C60.547 36.6333 61.0843 38.0633 62.159 39.19C63.251 40.2993 64.681 40.854 66.449 40.854C67.489 40.854 68.425 40.6287 69.257 40.178C70.1063 39.71 70.7476 39.0773 71.181 38.28L74.275 40.074C73.495 41.3913 72.403 42.44 70.999 43.22C69.6123 43.9827 68.0956 44.364 66.449 44.364ZM83.7071 34.64L90.7011 44H86.5671L80.0671 35.472V44H76.4791V25.8H80.0671V33.834L86.3071 25.8H90.4411L83.7071 34.64ZM96.0632 36.486V40.568H103.733V44H92.4752V25.8H103.603V29.232H96.0632V33.106H102.953V36.486H96.0632ZM120.12 44H116.246L112.58 37.682H109.85V44H106.262V25.8H113.542C115.224 25.8 116.654 26.3893 117.832 27.568C119.011 28.7467 119.6 30.168 119.6 31.832C119.6 32.9587 119.28 34.0073 118.638 34.978C117.997 35.9313 117.148 36.6507 116.09 37.136L120.12 44ZM113.542 29.154H109.85V34.536H113.542C114.218 34.536 114.799 34.276 115.284 33.756C115.77 33.2187 116.012 32.5773 116.012 31.832C116.012 31.0867 115.77 30.454 115.284 29.934C114.799 29.414 114.218 29.154 113.542 29.154Z" fill="#101F3A"/>
</g>
<g filter="url(#filter10_f_3328_1111)">
<path d="M18.69 25.8H25.918C28.414 25.8 30.494 26.6753 32.158 28.426C33.8393 30.1593 34.68 32.3173 34.68 34.9C34.68 37.4827 33.8393 39.6407 32.158 41.374C30.494 43.1247 28.414 44 25.918 44H18.69V25.8ZM22.278 40.568H25.918C27.4953 40.568 28.778 40.048 29.766 39.008C30.754 37.9333 31.248 36.564 31.248 34.9C31.248 33.2187 30.754 31.858 29.766 30.818C28.778 29.7607 27.4953 29.232 25.918 29.232H22.278V40.568ZM52.5392 41.634C50.7018 43.454 48.4658 44.364 45.8312 44.364C43.1965 44.364 40.9605 43.454 39.1232 41.634C37.3032 39.7793 36.3932 37.5347 36.3932 34.9C36.3932 32.248 37.3032 30.012 39.1232 28.192C40.9605 26.3547 43.1965 25.436 45.8312 25.436C48.4658 25.436 50.7018 26.3547 52.5392 28.192C54.3765 30.012 55.2952 32.248 55.2952 34.9C55.2952 37.552 54.3765 39.7967 52.5392 41.634ZM41.6452 39.19C42.7545 40.2993 44.1498 40.854 45.8312 40.854C47.5125 40.854 48.9078 40.2993 50.0172 39.19C51.1438 38.0633 51.7072 36.6333 51.7072 34.9C51.7072 33.1667 51.1438 31.7367 50.0172 30.61C48.8905 29.4833 47.4952 28.92 45.8312 28.92C44.1672 28.92 42.7718 29.4833 41.6452 30.61C40.5185 31.7367 39.9552 33.1667 39.9552 34.9C39.9552 36.6333 40.5185 38.0633 41.6452 39.19ZM66.449 44.364C63.7276 44.364 61.4656 43.454 59.663 41.634C57.8776 39.8313 56.985 37.5867 56.985 34.9C56.985 32.196 57.8776 29.9513 59.663 28.166C61.4656 26.346 63.7276 25.436 66.449 25.436C68.0956 25.436 69.6123 25.826 70.999 26.606C72.403 27.3687 73.495 28.4087 74.275 29.726L71.181 31.52C70.7303 30.7053 70.089 30.0727 69.257 29.622C68.425 29.154 67.489 28.92 66.449 28.92C64.681 28.92 63.251 29.4747 62.159 30.584C61.0843 31.7107 60.547 33.1493 60.547 34.9C60.547 36.6333 61.0843 38.0633 62.159 39.19C63.251 40.2993 64.681 40.854 66.449 40.854C67.489 40.854 68.425 40.6287 69.257 40.178C70.1063 39.71 70.7476 39.0773 71.181 38.28L74.275 40.074C73.495 41.3913 72.403 42.44 70.999 43.22C69.6123 43.9827 68.0956 44.364 66.449 44.364ZM83.7071 34.64L90.7011 44H86.5671L80.0671 35.472V44H76.4791V25.8H80.0671V33.834L86.3071 25.8H90.4411L83.7071 34.64ZM96.0632 36.486V40.568H103.733V44H92.4752V25.8H103.603V29.232H96.0632V33.106H102.953V36.486H96.0632ZM120.12 44H116.246L112.58 37.682H109.85V44H106.262V25.8H113.542C115.224 25.8 116.654 26.3893 117.832 27.568C119.011 28.7467 119.6 30.168 119.6 31.832C119.6 32.9587 119.28 34.0073 118.638 34.978C117.997 35.9313 117.148 36.6507 116.09 37.136L120.12 44ZM113.542 29.154H109.85V34.536H113.542C114.218 34.536 114.799 34.276 115.284 33.756C115.77 33.2187 116.012 32.5773 116.012 31.832C116.012 31.0867 115.77 30.454 115.284 29.934C114.799 29.414 114.218 29.154 113.542 29.154Z" fill="#101F3A"/>
</g>
<g filter="url(#filter11_f_3328_1111)">
<path d="M18.69 25.8H25.918C28.414 25.8 30.494 26.6753 32.158 28.426C33.8393 30.1593 34.68 32.3173 34.68 34.9C34.68 37.4827 33.8393 39.6407 32.158 41.374C30.494 43.1247 28.414 44 25.918 44H18.69V25.8ZM22.278 40.568H25.918C27.4953 40.568 28.778 40.048 29.766 39.008C30.754 37.9333 31.248 36.564 31.248 34.9C31.248 33.2187 30.754 31.858 29.766 30.818C28.778 29.7607 27.4953 29.232 25.918 29.232H22.278V40.568ZM52.5392 41.634C50.7018 43.454 48.4658 44.364 45.8312 44.364C43.1965 44.364 40.9605 43.454 39.1232 41.634C37.3032 39.7793 36.3932 37.5347 36.3932 34.9C36.3932 32.248 37.3032 30.012 39.1232 28.192C40.9605 26.3547 43.1965 25.436 45.8312 25.436C48.4658 25.436 50.7018 26.3547 52.5392 28.192C54.3765 30.012 55.2952 32.248 55.2952 34.9C55.2952 37.552 54.3765 39.7967 52.5392 41.634ZM41.6452 39.19C42.7545 40.2993 44.1498 40.854 45.8312 40.854C47.5125 40.854 48.9078 40.2993 50.0172 39.19C51.1438 38.0633 51.7072 36.6333 51.7072 34.9C51.7072 33.1667 51.1438 31.7367 50.0172 30.61C48.8905 29.4833 47.4952 28.92 45.8312 28.92C44.1672 28.92 42.7718 29.4833 41.6452 30.61C40.5185 31.7367 39.9552 33.1667 39.9552 34.9C39.9552 36.6333 40.5185 38.0633 41.6452 39.19ZM66.449 44.364C63.7276 44.364 61.4656 43.454 59.663 41.634C57.8776 39.8313 56.985 37.5867 56.985 34.9C56.985 32.196 57.8776 29.9513 59.663 28.166C61.4656 26.346 63.7276 25.436 66.449 25.436C68.0956 25.436 69.6123 25.826 70.999 26.606C72.403 27.3687 73.495 28.4087 74.275 29.726L71.181 31.52C70.7303 30.7053 70.089 30.0727 69.257 29.622C68.425 29.154 67.489 28.92 66.449 28.92C64.681 28.92 63.251 29.4747 62.159 30.584C61.0843 31.7107 60.547 33.1493 60.547 34.9C60.547 36.6333 61.0843 38.0633 62.159 39.19C63.251 40.2993 64.681 40.854 66.449 40.854C67.489 40.854 68.425 40.6287 69.257 40.178C70.1063 39.71 70.7476 39.0773 71.181 38.28L74.275 40.074C73.495 41.3913 72.403 42.44 70.999 43.22C69.6123 43.9827 68.0956 44.364 66.449 44.364ZM83.7071 34.64L90.7011 44H86.5671L80.0671 35.472V44H76.4791V25.8H80.0671V33.834L86.3071 25.8H90.4411L83.7071 34.64ZM96.0632 36.486V40.568H103.733V44H92.4752V25.8H103.603V29.232H96.0632V33.106H102.953V36.486H96.0632ZM120.12 44H116.246L112.58 37.682H109.85V44H106.262V25.8H113.542C115.224 25.8 116.654 26.3893 117.832 27.568C119.011 28.7467 119.6 30.168 119.6 31.832C119.6 32.9587 119.28 34.0073 118.638 34.978C117.997 35.9313 117.148 36.6507 116.09 37.136L120.12 44ZM113.542 29.154H109.85V34.536H113.542C114.218 34.536 114.799 34.276 115.284 33.756C115.77 33.2187 116.012 32.5773 116.012 31.832C116.012 31.0867 115.77 30.454 115.284 29.934C114.799 29.414 114.218 29.154 113.542 29.154Z" fill="#101F3A"/>
</g>
<path d="M18.69 25.8H25.918C28.414 25.8 30.494 26.6753 32.158 28.426C33.8393 30.1593 34.68 32.3173 34.68 34.9C34.68 37.4827 33.8393 39.6407 32.158 41.374C30.494 43.1247 28.414 44 25.918 44H18.69V25.8ZM22.278 40.568H25.918C27.4953 40.568 28.778 40.048 29.766 39.008C30.754 37.9333 31.248 36.564 31.248 34.9C31.248 33.2187 30.754 31.858 29.766 30.818C28.778 29.7607 27.4953 29.232 25.918 29.232H22.278V40.568ZM52.5392 41.634C50.7018 43.454 48.4658 44.364 45.8312 44.364C43.1965 44.364 40.9605 43.454 39.1232 41.634C37.3032 39.7793 36.3932 37.5347 36.3932 34.9C36.3932 32.248 37.3032 30.012 39.1232 28.192C40.9605 26.3547 43.1965 25.436 45.8312 25.436C48.4658 25.436 50.7018 26.3547 52.5392 28.192C54.3765 30.012 55.2952 32.248 55.2952 34.9C55.2952 37.552 54.3765 39.7967 52.5392 41.634ZM41.6452 39.19C42.7545 40.2993 44.1498 40.854 45.8312 40.854C47.5125 40.854 48.9078 40.2993 50.0172 39.19C51.1438 38.0633 51.7072 36.6333 51.7072 34.9C51.7072 33.1667 51.1438 31.7367 50.0172 30.61C48.8905 29.4833 47.4952 28.92 45.8312 28.92C44.1672 28.92 42.7718 29.4833 41.6452 30.61C40.5185 31.7367 39.9552 33.1667 39.9552 34.9C39.9552 36.6333 40.5185 38.0633 41.6452 39.19ZM66.449 44.364C63.7276 44.364 61.4656 43.454 59.663 41.634C57.8776 39.8313 56.985 37.5867 56.985 34.9C56.985 32.196 57.8776 29.9513 59.663 28.166C61.4656 26.346 63.7276 25.436 66.449 25.436C68.0956 25.436 69.6123 25.826 70.999 26.606C72.403 27.3687 73.495 28.4087 74.275 29.726L71.181 31.52C70.7303 30.7053 70.089 30.0727 69.257 29.622C68.425 29.154 67.489 28.92 66.449 28.92C64.681 28.92 63.251 29.4747 62.159 30.584C61.0843 31.7107 60.547 33.1493 60.547 34.9C60.547 36.6333 61.0843 38.0633 62.159 39.19C63.251 40.2993 64.681 40.854 66.449 40.854C67.489 40.854 68.425 40.6287 69.257 40.178C70.1063 39.71 70.7476 39.0773 71.181 38.28L74.275 40.074C73.495 41.3913 72.403 42.44 70.999 43.22C69.6123 43.9827 68.0956 44.364 66.449 44.364ZM83.7071 34.64L90.7011 44H86.5671L80.0671 35.472V44H76.4791V25.8H80.0671V33.834L86.3071 25.8H90.4411L83.7071 34.64ZM96.0632 36.486V40.568H103.733V44H92.4752V25.8H103.603V29.232H96.0632V33.106H102.953V36.486H96.0632ZM120.12 44H116.246L112.58 37.682H109.85V44H106.262V25.8H113.542C115.224 25.8 116.654 26.3893 117.832 27.568C119.011 28.7467 119.6 30.168 119.6 31.832C119.6 32.9587 119.28 34.0073 118.638 34.978C117.997 35.9313 117.148 36.6507 116.09 37.136L120.12 44ZM113.542 29.154H109.85V34.536H113.542C114.218 34.536 114.799 34.276 115.284 33.756C115.77 33.2187 116.012 32.5773 116.012 31.832C116.012 31.0867 115.77 30.454 115.284 29.934C114.799 29.414 114.218 29.154 113.542 29.154Z" fill="white"/>
</g>
<rect x="0.5" y="0.5" width="135" height="135" rx="19.5" stroke="#3F87F2"/>
<defs>
<filter id="filter0_d_3328_1111" x="0" y="35" width="136" height="83" filterUnits="userSpaceOnUse" color-interpolation-filters="sRGB">
<feFlood flood-opacity="0" result="BackgroundImageFix"/>
<feColorMatrix in="SourceAlpha" type="matrix" values="0 0 0 0 0 0 0 0 0 0 0 0 0 0 0 0 0 0 127 0" result="hardAlpha"/>
<feOffset/>
<feGaussianBlur stdDeviation="2"/>
<feComposite in2="hardAlpha" operator="out"/>
<feColorMatrix type="matrix" values="0 0 0 0 0 0 0 0 0 0 0 0 0 0 0 0 0 0 0.25 0"/>
<feBlend mode="normal" in2="BackgroundImageFix" result="effect1_dropShadow_3328_1111"/>
<feBlend mode="normal" in="SourceGraphic" in2="effect1_dropShadow_3328_1111" result="shape"/>
</filter>
<filter id="filter1_d_3328_1111" x="3" y="92" width="30" height="30" filterUnits="userSpaceOnUse" color-interpolation-filters="sRGB">
<feFlood flood-opacity="0" result="BackgroundImageFix"/>
<feColorMatrix in="SourceAlpha" type="matrix" values="0 0 0 0 0 0 0 0 0 0 0 0 0 0 0 0 0 0 127 0" result="hardAlpha"/>
<feOffset dy="4"/>
<feGaussianBlur stdDeviation="2"/>
<feComposite in2="hardAlpha" operator="out"/>
<feColorMatrix type="matrix" values="0 0 0 0 0 0 0 0 0 0 0 0 0 0 0 0 0 0 0.25 0"/>
<feBlend mode="normal" in2="BackgroundImageFix" result="effect1_dropShadow_3328_1111"/>
<feBlend mode="normal" in="SourceGraphic" in2="effect1_dropShadow_3328_1111" result="shape"/>
</filter>
<filter id="filter2_d_3328_1111" x="28" y="67" width="30" height="30" filterUnits="userSpaceOnUse" color-interpolation-filters="sRGB">
<feFlood flood-opacity="0" result="BackgroundImageFix"/>
<feColorMatrix in="SourceAlpha" type="matrix" values="0 0 0 0 0 0 0 0 0 0 0 0 0 0 0 0 0 0 127 0" result="hardAlpha"/>
<feOffset dy="4"/>
<feGaussianBlur stdDeviation="2"/>
<feComposite in2="hardAlpha" operator="out"/>
<feColorMatrix type="matrix" values="0 0 0 0 0 0 0 0 0 0 0 0 0 0 0 0 0 0 0.25 0"/>
<feBlend mode="normal" in2="BackgroundImageFix" result="effect1_dropShadow_3328_1111"/>
<feBlend mode="normal" in="SourceGraphic" in2="effect1_dropShadow_3328_1111" result="shape"/>
</filter>
<filter id="filter3_d_3328_1111" x="53" y="67" width="30" height="30" filterUnits="userSpaceOnUse" color-interpolation-filters="sRGB">
<feFlood flood-opacity="0" result="BackgroundImageFix"/>
<feColorMatrix in="SourceAlpha" type="matrix" values="0 0 0 0 0 0 0 0 0 0 0 0 0 0 0 0 0 0 127 0" result="hardAlpha"/>
<feOffset dy="4"/>
<feGaussianBlur stdDeviation="2"/>
<feComposite in2="hardAlpha" operator="out"/>
<feColorMatrix type="matrix" values="0 0 0 0 0 0 0 0 0 0 0 0 0 0 0 0 0 0 0.25 0"/>
<feBlend mode="normal" in2="BackgroundImageFix" result="effect1_dropShadow_3328_1111"/>
<feBlend mode="normal" in="SourceGraphic" in2="effect1_dropShadow_3328_1111" result="shape"/>
</filter>
<filter id="filter4_d_3328_1111" x="78" y="67" width="30" height="30" filterUnits="userSpaceOnUse" color-interpolation-filters="sRGB">
<feFlood flood-opacity="0" result="BackgroundImageFix"/>
<feColorMatrix in="SourceAlpha" type="matrix" values="0 0 0 0 0 0 0 0 0 0 0 0 0 0 0 0 0 0 127 0" result="hardAlpha"/>
<feOffset dy="4"/>
<feGaussianBlur stdDeviation="2"/>
<feComposite in2="hardAlpha" operator="out"/>
<feColorMatrix type="matrix" values="0 0 0 0 0 0 0 0 0 0 0 0 0 0 0 0 0 0 0.25 0"/>
<feBlend mode="normal" in2="BackgroundImageFix" result="effect1_dropShadow_3328_1111"/>
<feBlend mode="normal" in="SourceGraphic" in2="effect1_dropShadow_3328_1111" result="shape"/>
</filter>
<filter id="filter5_d_3328_1111" x="78" y="42" width="30" height="30" filterUnits="userSpaceOnUse" color-interpolation-filters="sRGB">
<feFlood flood-opacity="0" result="BackgroundImageFix"/>
<feColorMatrix in="SourceAlpha" type="matrix" values="0 0 0 0 0 0 0 0 0 0 0 0 0 0 0 0 0 0 127 0" result="hardAlpha"/>
<feOffset dy="4"/>
<feGaussianBlur stdDeviation="2"/>
<feComposite in2="hardAlpha" operator="out"/>
<feColorMatrix type="matrix" values="0 0 0 0 0 0 0 0 0 0 0 0 0 0 0 0 0 0 0.25 0"/>
<feBlend mode="normal" in2="BackgroundImageFix" result="effect1_dropShadow_3328_1111"/>
<feBlend mode="normal" in="SourceGraphic" in2="effect1_dropShadow_3328_1111" result="shape"/>
</filter>
<filter id="filter6_d_3328_1111" x="28" y="92" width="30" height="30" filterUnits="userSpaceOnUse" color-interpolation-filters="sRGB">
<feFlood flood-opacity="0" result="BackgroundImageFix"/>
<feColorMatrix in="SourceAlpha" type="matrix" values="0 0 0 0 0 0 0 0 0 0 0 0 0 0 0 0 0 0 127 0" result="hardAlpha"/>
<feOffset dy="4"/>
<feGaussianBlur stdDeviation="2"/>
<feComposite in2="hardAlpha" operator="out"/>
<feColorMatrix type="matrix" values="0 0 0 0 0 0 0 0 0 0 0 0 0 0 0 0 0 0 0.25 0"/>
<feBlend mode="normal" in2="BackgroundImageFix" result="effect1_dropShadow_3328_1111"/>
<feBlend mode="normal" in="SourceGraphic" in2="effect1_dropShadow_3328_1111" result="shape"/>
</filter>
<filter id="filter7_d_3328_1111" x="103" y="92" width="30" height="30" filterUnits="userSpaceOnUse" color-interpolation-filters="sRGB">
<feFlood flood-opacity="0" result="BackgroundImageFix"/>
<feColorMatrix in="SourceAlpha" type="matrix" values="0 0 0 0 0 0 0 0 0 0 0 0 0 0 0 0 0 0 127 0" result="hardAlpha"/>
<feOffset dy="4"/>
<feGaussianBlur stdDeviation="2"/>
<feComposite in2="hardAlpha" operator="out"/>
<feColorMatrix type="matrix" values="0 0 0 0 0 0 0 0 0 0 0 0 0 0 0 0 0 0 0.25 0"/>
<feBlend mode="normal" in2="BackgroundImageFix" result="effect1_dropShadow_3328_1111"/>
<feBlend mode="normal" in="SourceGraphic" in2="effect1_dropShadow_3328_1111" result="shape"/>
</filter>
<filter id="filter8_f_3328_1111" x="-11.1096" y="-4.36445" width="161.03" height="78.5287" filterUnits="userSpaceOnUse" color-interpolation-filters="sRGB">
<feFlood flood-opacity="0" result="BackgroundImageFix"/>
<feBlend mode="normal" in="SourceGraphic" in2="BackgroundImageFix" result="shape"/>
<feGaussianBlur stdDeviation="14.9" result="effect1_foregroundBlur_3328_1111"/>
</filter>
<filter id="filter9_f_3328_1111" x="-11.1096" y="-4.36445" width="161.03" height="78.5287" filterUnits="userSpaceOnUse" color-interpolation-filters="sRGB">
<feFlood flood-opacity="0" result="BackgroundImageFix"/>
<feBlend mode="normal" in="SourceGraphic" in2="BackgroundImageFix" result="shape"/>
<feGaussianBlur stdDeviation="14.9" result="effect1_foregroundBlur_3328_1111"/>
</filter>
<filter id="filter10_f_3328_1111" x="-11.1096" y="-4.36445" width="161.03" height="78.5287" filterUnits="userSpaceOnUse" color-interpolation-filters="sRGB">
<feFlood flood-opacity="0" result="BackgroundImageFix"/>
<feBlend mode="normal" in="SourceGraphic" in2="BackgroundImageFix" result="shape"/>
<feGaussianBlur stdDeviation="14.9" result="effect1_foregroundBlur_3328_1111"/>
</filter>
<filter id="filter11_f_3328_1111" x="-11.1096" y="-4.36445" width="161.03" height="78.5287" filterUnits="userSpaceOnUse" color-interpolation-filters="sRGB">
<feFlood flood-opacity="0" result="BackgroundImageFix"/>
<feBlend mode="normal" in="SourceGraphic" in2="BackgroundImageFix" result="shape"/>
<feGaussianBlur stdDeviation="14.9" result="effect1_foregroundBlur_3328_1111"/>
</filter>
<clipPath id="clip0_3328_1111">
<rect width="136" height="136" rx="20" fill="white"/>
</clipPath>
</defs>
</svg>
