<svg width="116" height="116" viewBox="0 0 116 116" fill="none" xmlns="http://www.w3.org/2000/svg">
<g clip-path="url(#clip0_3775_7329)">
<rect width="116" height="116" rx="26" fill="#151F29"/>
<g filter="url(#filter0_f_3775_7329)">
<rect x="8" y="9" width="100" height="100" rx="20" fill="#21365E"/>
<rect x="8.5" y="9.5" width="99" height="99" rx="19.5" stroke="#3F87F2"/>
</g>
<rect x="8.5" y="8.5" width="99" height="99" rx="19.5" fill="#21365E"/>
<rect x="8.5" y="8.5" width="99" height="99" rx="19.5" stroke="#3F87F2"/>
<g filter="url(#filter1_d_3775_7329)">
<rect x="24" y="25" width="68" height="67" rx="9" fill="#091E36"/>
</g>
<rect x="31" y="33" width="5" height="51" rx="2.5" fill="#3979D9"/>
<rect x="43" y="33" width="5" height="51" rx="2.5" fill="#3979D9"/>
<rect x="55" y="33" width="5" height="51" rx="2.5" fill="#3979D9"/>
<rect x="67" y="33" width="5" height="51" rx="2.5" fill="#3979D9"/>
<rect x="79" y="33" width="5" height="51" rx="2.5" fill="#3979D9"/>
</g>
<defs>
<filter id="filter0_f_3775_7329" x="-3.3" y="-2.3" width="122.6" height="122.6" filterUnits="userSpaceOnUse" color-interpolation-filters="sRGB">
<feFlood flood-opacity="0" result="BackgroundImageFix"/>
<feBlend mode="normal" in="SourceGraphic" in2="BackgroundImageFix" result="shape"/>
<feGaussianBlur stdDeviation="5.65" result="effect1_foregroundBlur_3775_7329"/>
</filter>
<filter id="filter1_d_3775_7329" x="20" y="25" width="76" height="75" filterUnits="userSpaceOnUse" color-interpolation-filters="sRGB">
<feFlood flood-opacity="0" result="BackgroundImageFix"/>
<feColorMatrix in="SourceAlpha" type="matrix" values="0 0 0 0 0 0 0 0 0 0 0 0 0 0 0 0 0 0 127 0" result="hardAlpha"/>
<feOffset dy="4"/>
<feGaussianBlur stdDeviation="2"/>
<feComposite in2="hardAlpha" operator="out"/>
<feColorMatrix type="matrix" values="0 0 0 0 0 0 0 0 0 0 0 0 0 0 0 0 0 0 0.25 0"/>
<feBlend mode="normal" in2="BackgroundImageFix" result="effect1_dropShadow_3775_7329"/>
<feBlend mode="normal" in="SourceGraphic" in2="effect1_dropShadow_3775_7329" result="shape"/>
</filter>
<clipPath id="clip0_3775_7329">
<rect width="116" height="116" rx="26" fill="white"/>
</clipPath>
</defs>
</svg>
