<svg width="22" height="22" viewBox="0 0 22 22" fill="none" xmlns="http://www.w3.org/2000/svg">
<path d="M7.5 21.9999V19.9999L6 20.4999L4 18.9999L2 15.9999L1 13.4999L0 11V20.9999C0 21.5521 0.447715 21.9999 1 21.9999H7.5Z" fill="white"/>
<path d="M0 11V1C0 0.447715 0.447715 0 1 0H21C21.5523 0 22 0.447715 22 1V11V21C22 21.5523 21.5523 22 21 22H14.2844L16.5 18L19.5 14L22 11L19 6.5L16.5 3.5H9H5L3 8.5L0 11Z" fill="white"/>
<path d="M9.77429 0.0778128C4.70778 0.63992 0.632549 4.79952 0.0818413 9.85848C-0.579008 15.4796 2.83538 20.3137 7.68161 21.8876V19.3019C7.68161 19.3019 7.24104 19.4143 6.69033 19.4143C5.14835 19.4143 4.4875 18.0653 4.37736 17.2783C4.26722 16.8286 4.04694 16.4913 3.71651 16.1541C3.38609 16.0417 3.27594 16.0417 3.27594 15.9292C3.27594 15.7044 3.60637 15.7044 3.71651 15.7044C4.37736 15.7044 4.92807 16.4913 5.14835 16.8286C5.69906 17.728 6.35991 17.9528 6.69033 17.9528C7.1309 17.9528 7.46132 17.8404 7.68161 17.728C7.79175 16.941 8.12217 16.1541 8.78302 15.7044C6.24977 15.1423 4.37736 13.6808 4.37736 11.2075C4.37736 9.9709 4.92807 8.73427 5.69906 7.8349C5.58892 7.61005 5.47878 7.04794 5.47878 6.26099C5.47878 5.81131 5.47878 5.13678 5.8092 4.46225C5.8092 4.46225 7.35118 4.46225 8.89316 5.92373C9.44387 5.69889 10.2149 5.58647 10.9859 5.58647C11.7568 5.58647 12.5278 5.69889 13.1887 5.92373C14.6205 4.46225 16.2726 4.46225 16.2726 4.46225C16.4929 5.13678 16.4929 5.81131 16.4929 6.26099C16.4929 7.16037 16.3828 7.61005 16.2726 7.8349C17.0436 8.73427 17.5943 9.85848 17.5943 11.2075C17.5943 13.6808 15.7219 15.1423 13.1887 15.7044C13.8495 16.2665 14.2901 17.2783 14.2901 18.2901V22C18.8059 20.5385 22 16.2665 22 11.32C22 4.57467 16.3828 -0.709137 9.77429 0.0778128Z" fill="white"/>
</svg>
