<svg width="20" height="20" viewBox="0 0 20 20" fill="none" xmlns="http://www.w3.org/2000/svg">
<path d="M8.88572 0.0707389C4.2798 0.581746 0.575044 4.3632 0.0744011 8.96226C-0.526371 14.0723 2.57762 18.467 6.98328 19.8978V17.5472C6.98328 17.5472 6.58276 17.6494 6.08212 17.6494C4.68032 17.6494 4.07955 16.423 3.97942 15.7075C3.87929 15.2987 3.67903 14.9921 3.37865 14.6855C3.07826 14.5833 2.97813 14.5833 2.97813 14.4811C2.97813 14.2767 3.27852 14.2767 3.37865 14.2767C3.97942 14.2767 4.48006 14.9921 4.68032 15.2987C5.18096 16.1164 5.78173 16.3208 6.08212 16.3208C6.48263 16.3208 6.78302 16.2185 6.98328 16.1163C7.08341 15.4009 7.38379 14.6855 7.98456 14.2767C5.68161 13.7657 3.97942 12.4371 3.97942 10.1887C3.97942 9.06446 4.48006 7.94024 5.18096 7.12263C5.08083 6.91823 4.9807 6.40722 4.9807 5.69181C4.9807 5.28301 4.9807 4.6698 5.28109 4.05659C5.28109 4.05659 6.68289 4.05659 8.08469 5.38521C8.58534 5.18081 9.28624 5.0786 9.98714 5.0786C10.688 5.0786 11.3889 5.18081 11.9897 5.38521C13.2914 4.05659 14.7933 4.05659 14.7933 4.05659C14.9936 4.6698 14.9936 5.28301 14.9936 5.69181C14.9936 6.50942 14.8934 6.91823 14.7933 7.12263C15.4942 7.94024 15.9949 8.96226 15.9949 10.1887C15.9949 12.4371 14.2927 13.7657 11.9897 14.2767C12.5905 14.7877 12.991 15.7075 12.991 16.6274V20C17.0963 18.6714 20 14.7877 20 10.2909C20 4.15879 14.8934 -0.64467 8.88572 0.0707389Z" fill="white"/>
</svg>
