<svg width="136" height="136" viewBox="0 0 136 136" fill="none" xmlns="http://www.w3.org/2000/svg">
<g clip-path="url(#clip0_3328_1059)">
<rect width="136" height="136" rx="20" fill="url(#paint0_linear_3328_1059)"/>
<path d="M31.5 95H54V100H27L31.5 95Z" fill="white"/>
<path d="M20 106H51V111H15L20 106Z" fill="white"/>
<path d="M42.5 116H55V121H38L42.5 116Z" fill="white"/>
<mask id="path-6-outside-1_3328_1059" maskUnits="userSpaceOnUse" x="47" y="84" width="84" height="46" fill="black">
<rect fill="white" x="47" y="84" width="84" height="46"/>
<path d="M70.248 105.952H87.096V108.544C87.096 113.344 85.56 117.232 82.488 120.208C79.416 123.184 75.448 124.672 70.584 124.672C65.4 124.672 61.096 122.992 57.672 119.632C54.28 116.24 52.584 112.112 52.584 107.248C52.584 102.352 54.264 98.208 57.624 94.816C61.016 91.424 65.208 89.728 70.2 89.728C73.304 89.728 76.152 90.432 78.744 91.84C81.336 93.248 83.368 95.152 84.84 97.552L79.176 100.816C78.376 99.44 77.16 98.32 75.528 97.456C73.896 96.592 72.104 96.16 70.152 96.16C66.92 96.16 64.28 97.216 62.232 99.328C60.184 101.376 59.16 104.016 59.16 107.248C59.16 110.416 60.2 113.04 62.28 115.12C64.36 117.168 67.144 118.192 70.632 118.192C73.16 118.192 75.272 117.632 76.968 116.512C78.664 115.392 79.816 113.824 80.424 111.808H70.248V105.952ZM120.08 119.632C116.688 122.992 112.56 124.672 107.696 124.672C102.832 124.672 98.7035 122.992 95.3115 119.632C91.9515 116.208 90.2715 112.064 90.2715 107.2C90.2715 102.304 91.9515 98.176 95.3115 94.816C98.7035 91.424 102.832 89.728 107.696 89.728C112.56 89.728 116.688 91.424 120.08 94.816C123.472 98.176 125.168 102.304 125.168 107.2C125.168 112.096 123.472 116.24 120.08 119.632ZM99.9675 115.12C102.016 117.168 104.592 118.192 107.696 118.192C110.8 118.192 113.376 117.168 115.424 115.12C117.504 113.04 118.544 110.4 118.544 107.2C118.544 104 117.504 101.36 115.424 99.28C113.344 97.2 110.768 96.16 107.696 96.16C104.624 96.16 102.048 97.2 99.9675 99.28C97.8875 101.36 96.8475 104 96.8475 107.2C96.8475 110.4 97.8875 113.04 99.9675 115.12Z"/>
</mask>
<path d="M70.248 105.952H87.096V108.544C87.096 113.344 85.56 117.232 82.488 120.208C79.416 123.184 75.448 124.672 70.584 124.672C65.4 124.672 61.096 122.992 57.672 119.632C54.28 116.24 52.584 112.112 52.584 107.248C52.584 102.352 54.264 98.208 57.624 94.816C61.016 91.424 65.208 89.728 70.2 89.728C73.304 89.728 76.152 90.432 78.744 91.84C81.336 93.248 83.368 95.152 84.84 97.552L79.176 100.816C78.376 99.44 77.16 98.32 75.528 97.456C73.896 96.592 72.104 96.16 70.152 96.16C66.92 96.16 64.28 97.216 62.232 99.328C60.184 101.376 59.16 104.016 59.16 107.248C59.16 110.416 60.2 113.04 62.28 115.12C64.36 117.168 67.144 118.192 70.632 118.192C73.16 118.192 75.272 117.632 76.968 116.512C78.664 115.392 79.816 113.824 80.424 111.808H70.248V105.952ZM120.08 119.632C116.688 122.992 112.56 124.672 107.696 124.672C102.832 124.672 98.7035 122.992 95.3115 119.632C91.9515 116.208 90.2715 112.064 90.2715 107.2C90.2715 102.304 91.9515 98.176 95.3115 94.816C98.7035 91.424 102.832 89.728 107.696 89.728C112.56 89.728 116.688 91.424 120.08 94.816C123.472 98.176 125.168 102.304 125.168 107.2C125.168 112.096 123.472 116.24 120.08 119.632ZM99.9675 115.12C102.016 117.168 104.592 118.192 107.696 118.192C110.8 118.192 113.376 117.168 115.424 115.12C117.504 113.04 118.544 110.4 118.544 107.2C118.544 104 117.504 101.36 115.424 99.28C113.344 97.2 110.768 96.16 107.696 96.16C104.624 96.16 102.048 97.2 99.9675 99.28C97.8875 101.36 96.8475 104 96.8475 107.2C96.8475 110.4 97.8875 113.04 99.9675 115.12Z" fill="white"/>
<path d="M70.248 105.952V100.952H65.248V105.952H70.248ZM87.096 105.952H92.096V100.952H87.096V105.952ZM82.488 120.208L79.009 116.617L82.488 120.208ZM57.672 119.632L54.1365 123.168L54.1531 123.184L54.17 123.201L57.672 119.632ZM57.624 94.816L54.0885 91.2805L54.0801 91.2888L54.0718 91.2973L57.624 94.816ZM78.744 91.84L76.3573 96.2336L76.3573 96.2336L78.744 91.84ZM84.84 97.552L87.3365 101.884L91.7889 99.3184L89.1022 94.9379L84.84 97.552ZM79.176 100.816L74.8535 103.329L77.3569 107.635L81.6725 105.148L79.176 100.816ZM75.528 97.456L77.8674 93.0371H77.8674L75.528 97.456ZM62.232 99.328L65.7675 102.864L65.7947 102.836L65.8215 102.809L62.232 99.328ZM62.28 115.12L58.7445 118.656L58.7582 118.669L58.772 118.683L62.28 115.12ZM76.968 116.512L74.2127 112.34L74.2127 112.34L76.968 116.512ZM80.424 111.808L85.211 113.252L87.1544 106.808H80.424V111.808ZM70.248 111.808H65.248V116.808H70.248V111.808ZM70.248 110.952H87.096V100.952H70.248V110.952ZM82.096 105.952V108.544H92.096V105.952H82.096ZM82.096 108.544C82.096 112.172 80.9856 114.702 79.009 116.617L85.967 123.799C90.1344 119.762 92.096 114.516 92.096 108.544H82.096ZM79.009 116.617C76.9997 118.563 74.3423 119.672 70.584 119.672V129.672C76.5537 129.672 81.8323 127.805 85.967 123.799L79.009 116.617ZM70.584 119.672C66.5935 119.672 63.5834 118.428 61.174 116.063L54.17 123.201C58.6086 127.556 64.2065 129.672 70.584 129.672V119.672ZM61.2075 116.096C58.7678 113.657 57.584 110.807 57.584 107.248H47.584C47.584 113.417 49.7922 118.823 54.1365 123.168L61.2075 116.096ZM57.584 107.248C57.584 103.632 58.7698 100.764 61.1763 98.3347L54.0718 91.2973C49.7582 95.6519 47.584 101.072 47.584 107.248H57.584ZM61.1595 98.3515C63.5722 95.9389 66.474 94.728 70.2 94.728V84.728C63.942 84.728 58.4598 86.9091 54.0885 91.2805L61.1595 98.3515ZM70.2 94.728C72.5154 94.728 74.5365 95.2445 76.3573 96.2336L81.1307 87.4464C77.7675 85.6195 74.0926 84.728 70.2 84.728V94.728ZM76.3573 96.2336C78.2172 97.2439 79.5864 98.5497 80.5778 100.166L89.1022 94.9379C87.1496 91.7543 84.4548 89.2521 81.1307 87.4464L76.3573 96.2336ZM82.3435 93.2198L76.6795 96.4838L81.6725 105.148L87.3365 101.884L82.3435 93.2198ZM83.4985 98.3029C82.1575 95.9963 80.1909 94.2671 77.8674 93.0371L73.1886 101.875C74.1291 102.373 74.5945 102.884 74.8535 103.329L83.4985 98.3029ZM77.8674 93.0371C75.4734 91.7696 72.8715 91.16 70.152 91.16V101.16C71.3365 101.16 72.3186 101.414 73.1886 101.875L77.8674 93.0371ZM70.152 91.16C65.7146 91.16 61.7301 92.6632 58.6425 95.8473L65.8215 102.809C66.8299 101.769 68.1254 101.16 70.152 101.16V91.16ZM58.6965 95.7925C55.5982 98.8907 54.16 102.858 54.16 107.248H64.16C64.16 105.174 64.7698 103.861 65.7675 102.864L58.6965 95.7925ZM54.16 107.248C54.16 111.629 55.6499 115.561 58.7445 118.656L65.8155 111.584C64.7501 110.519 64.16 109.203 64.16 107.248H54.16ZM58.772 118.683C61.9657 121.827 66.1049 123.192 70.632 123.192V113.192C68.1831 113.192 66.7543 112.509 65.788 111.557L58.772 118.683ZM70.632 123.192C73.9003 123.192 77.0306 122.463 79.7233 120.684L74.2127 112.34C73.5134 112.801 72.4197 113.192 70.632 113.192V123.192ZM79.7233 120.684C82.4322 118.895 84.2788 116.343 85.211 113.252L75.637 110.364C75.3532 111.305 74.8958 111.889 74.2127 112.34L79.7233 120.684ZM80.424 106.808H70.248V116.808H80.424V106.808ZM75.248 111.808V105.952H65.248V111.808H75.248ZM120.079 119.632L123.598 123.184L123.607 123.176L123.615 123.168L120.079 119.632ZM95.3115 119.632L91.7428 123.134L91.7676 123.159L91.7928 123.184L95.3115 119.632ZM95.3115 94.816L91.776 91.2805L95.3115 94.816ZM120.079 94.816L116.544 98.3515L116.552 98.3599L116.561 98.3682L120.079 94.816ZM99.9675 115.12L96.432 118.656L99.9675 115.12ZM115.424 115.12L118.959 118.656L115.424 115.12ZM115.424 99.28L118.959 95.7445V95.7445L115.424 99.28ZM99.9675 99.28L96.432 95.7445L99.9675 99.28ZM116.561 116.08C114.125 118.493 111.269 119.672 107.696 119.672V129.672C113.85 129.672 119.25 127.491 123.598 123.184L116.561 116.08ZM107.696 119.672C104.122 119.672 101.266 118.493 98.8302 116.08L91.7928 123.184C96.1405 127.491 101.541 129.672 107.696 129.672V119.672ZM98.8802 116.13C96.4518 113.655 95.2715 110.775 95.2715 107.2H85.2715C85.2715 113.353 87.4512 118.761 91.7428 123.134L98.8802 116.13ZM95.2715 107.2C95.2715 103.585 96.4561 100.742 98.847 98.3515L91.776 91.2805C87.4469 95.6095 85.2715 101.023 85.2715 107.2H95.2715ZM98.847 98.3515C101.287 95.9118 104.137 94.728 107.696 94.728V84.728C101.526 84.728 96.1203 86.9362 91.776 91.2805L98.847 98.3515ZM107.696 94.728C111.254 94.728 114.104 95.9118 116.544 98.3515L123.615 91.2805C119.271 86.9362 113.865 84.728 107.696 84.728V94.728ZM116.561 98.3682C118.978 100.763 120.168 103.6 120.168 107.2H130.168C130.168 101.008 127.965 95.5892 123.598 91.2637L116.561 98.3682ZM120.168 107.2C120.168 110.801 118.977 113.664 116.544 116.096L123.615 123.168C127.966 118.816 130.168 113.391 130.168 107.2H120.168ZM96.432 118.656C99.4895 121.713 103.371 123.192 107.696 123.192V113.192C105.812 113.192 104.541 112.623 103.503 111.584L96.432 118.656ZM107.696 123.192C112.02 123.192 115.901 121.713 118.959 118.656L111.888 111.584C110.85 112.623 109.579 113.192 107.696 113.192V123.192ZM118.959 118.656C122.064 115.551 123.544 111.598 123.544 107.2H113.544C113.544 109.202 112.943 110.529 111.888 111.584L118.959 118.656ZM123.544 107.2C123.544 102.802 122.064 98.8492 118.959 95.7445L111.888 102.816C112.943 103.871 113.544 105.198 113.544 107.2H123.544ZM118.959 95.7445C115.896 92.6814 112.028 91.16 107.696 91.16V101.16C109.507 101.16 110.791 101.719 111.888 102.816L118.959 95.7445ZM107.696 91.16C103.363 91.16 99.495 92.6814 96.432 95.7445L103.503 102.816C104.6 101.719 105.884 101.16 107.696 101.16V91.16ZM96.432 95.7445C93.3272 98.8492 91.8475 102.802 91.8475 107.2H101.847C101.847 105.198 102.448 103.871 103.503 102.816L96.432 95.7445ZM91.8475 107.2C91.8475 111.598 93.3272 115.551 96.432 118.656L103.503 111.584C102.448 110.529 101.847 109.202 101.847 107.2H91.8475Z" fill="url(#paint1_linear_3328_1059)" mask="url(#path-6-outside-1_3328_1059)"/>
<g filter="url(#filter0_d_3328_1059)">
<g filter="url(#filter1_f_3328_1059)">
<path d="M70.1485 26.7625L58.9165 26.7625L58.9165 25.0345C58.9165 21.8345 59.9405 19.2425 61.9885 17.2585C64.0365 15.2745 66.6818 14.2825 69.9245 14.2825C73.3805 14.2825 76.2498 15.4025 78.5325 17.6425C80.7938 19.9038 81.9245 22.6558 81.9245 25.8985C81.9245 29.1625 80.8045 31.9251 78.5645 34.1865C76.3031 36.4478 73.5085 37.5785 70.1805 37.5785C68.1111 37.5785 66.2125 37.1091 64.4845 36.1705C62.7565 35.2318 61.4018 33.9625 60.4205 32.3625L64.1965 30.1865C64.7298 31.1038 65.5405 31.8505 66.6285 32.4265C67.7165 33.0025 68.9111 33.2905 70.2125 33.2905C72.3671 33.2905 74.1271 32.5865 75.4925 31.1785C76.8578 29.8131 77.5405 28.0531 77.5405 25.8985C77.5405 23.7865 76.8471 22.0371 75.4605 20.6505C74.0738 19.2851 72.2178 18.6025 69.8925 18.6025C68.2071 18.6025 66.7991 18.9758 65.6685 19.7225C64.5378 20.4691 63.7698 21.5145 63.3645 22.8585L70.1485 22.8585L70.1485 26.7625ZM36.9275 17.6425C39.1888 15.4025 41.9408 14.2825 45.1835 14.2825C48.4261 14.2825 51.1781 15.4025 53.4395 17.6425C55.6795 19.9251 56.7995 22.6878 56.7995 25.9305C56.7995 29.1945 55.6795 31.9465 53.4395 34.1865C51.1781 36.4478 48.4261 37.5785 45.1835 37.5785C41.9408 37.5785 39.1888 36.4478 36.9275 34.1865C34.6661 31.9465 33.5355 29.1945 33.5355 25.9305C33.5355 22.6665 34.6661 19.9038 36.9275 17.6425ZM50.3355 20.6505C48.9701 19.2851 47.2528 18.6025 45.1835 18.6025C43.1141 18.6025 41.3968 19.2851 40.0315 20.6505C38.6448 22.0371 37.9515 23.7971 37.9515 25.9305C37.9515 28.0638 38.6448 29.8238 40.0315 31.2105C41.4181 32.5971 43.1355 33.2905 45.1835 33.2905C47.2315 33.2905 48.9488 32.5971 50.3355 31.2105C51.7221 29.8238 52.4155 28.0638 52.4155 25.9305C52.4155 23.7971 51.7221 22.0371 50.3355 20.6505Z" fill="white"/>
</g>
<g filter="url(#filter2_f_3328_1059)">
<path d="M63.7793 12.032L52.5473 12.032L52.5473 10.304C52.5473 7.104 53.5713 4.512 55.6193 2.528C57.6673 0.543998 60.3127 -0.448001 63.5553 -0.448001C67.0113 -0.448001 69.8807 0.671999 72.1633 2.912C74.4247 5.17333 75.5553 7.92533 75.5553 11.168C75.5553 14.432 74.4353 17.1947 72.1953 19.456C69.934 21.7173 67.1393 22.848 63.8113 22.848C61.742 22.848 59.8433 22.3787 58.1153 21.44C56.3873 20.5013 55.0327 19.232 54.0513 17.632L57.8273 15.456C58.3607 16.3733 59.1713 17.12 60.2593 17.696C61.3473 18.272 62.542 18.56 63.8433 18.56C65.998 18.56 67.758 17.856 69.1233 16.448C70.4887 15.0827 71.1713 13.3227 71.1713 11.168C71.1713 9.056 70.478 7.30667 69.0913 5.92C67.7047 4.55467 65.8487 3.872 63.5233 3.872C61.838 3.872 60.43 4.24533 59.2993 4.992C58.1687 5.73867 57.4007 6.784 56.9953 8.128L63.7793 8.128L63.7793 12.032ZM30.5583 2.912C32.8197 0.671996 35.5717 -0.448004 38.8143 -0.448003C42.057 -0.448003 44.809 0.671997 47.0703 2.912C49.3103 5.19466 50.4303 7.95733 50.4303 11.2C50.4303 14.464 49.3103 17.216 47.0703 19.456C44.809 21.7173 42.057 22.848 38.8143 22.848C35.5717 22.848 32.8197 21.7173 30.5583 19.456C28.297 17.216 27.1663 14.464 27.1663 11.2C27.1663 7.936 28.297 5.17333 30.5583 2.912ZM43.9663 5.92C42.601 4.55466 40.8837 3.872 38.8143 3.872C36.745 3.872 35.0277 4.55466 33.6623 5.92C32.2757 7.30666 31.5823 9.06666 31.5823 11.2C31.5823 13.3333 32.2757 15.0933 33.6623 16.48C35.049 17.8667 36.7663 18.56 38.8143 18.56C40.8623 18.56 42.5797 17.8667 43.9663 16.48C45.353 15.0933 46.0463 13.3333 46.0463 11.2C46.0463 9.06666 45.353 7.30666 43.9663 5.92Z" fill="white"/>
</g>
<path d="M96.0218 55.315L95.7832 55.1459L90 62.5L82.3838 68.8431L85.1684 70.7785C89.3521 73.6861 95.0878 72.7522 98.1329 68.6675C101.304 64.4136 100.351 58.3831 96.0218 55.315Z" fill="#539FCE" stroke="black" stroke-width="2"/>
<path d="M101 34L101 -0.999992C101 -24.1959 82.196 -43 59 -43L36 -43C12.804 -43 -6 -24.196 -6 -1.00001L-6 34C-6.00001 57.1959 12.804 76 36 76L59 76C82.196 76 101 57.196 101 34Z" fill="#539FCE" stroke="black" stroke-width="3"/>
<g filter="url(#filter3_d_3328_1059)">
<path d="M58.6113 23C58.6113 24.6569 57.2682 26 55.6113 26L52.6113 26C50.9545 26 49.6113 24.6569 49.6113 23L49.6113 15C49.6113 13.3431 50.9545 12 52.6113 12L53.6113 12C56.3728 12 58.6113 14.2386 58.6113 17L58.6113 23Z" fill="white"/>
<path d="M58.3613 23C58.3613 24.5188 57.1301 25.75 55.6113 25.75L52.6113 25.75C51.0925 25.75 49.8613 24.5188 49.8613 23L49.8613 15C49.8613 13.4812 51.0925 12.25 52.6113 12.25L53.6113 12.25C56.2347 12.25 58.3613 14.3766 58.3613 17L58.3613 23Z" stroke="black" stroke-width="0.5"/>
</g>
<g filter="url(#filter4_d_3328_1059)">
<path d="M48.6113 23C48.6113 24.6569 47.2682 26 45.6113 26L42.6113 26C40.9545 26 39.6113 24.6569 39.6113 23L39.6113 16C39.6113 13.7909 41.4022 12 43.6113 12L45.6113 12C47.2682 12 48.6113 13.3431 48.6113 15L48.6113 23Z" fill="white"/>
<path d="M48.3613 23C48.3613 24.5188 47.1301 25.75 45.6113 25.75L42.6113 25.75C41.0925 25.75 39.8613 24.5188 39.8613 23L39.8613 16C39.8613 13.9289 41.5403 12.25 43.6113 12.25L45.6113 12.25C47.1301 12.25 48.3613 13.4812 48.3613 15L48.3613 23Z" stroke="black" stroke-width="0.5"/>
</g>
<path d="M60.5788 17.4045C61.0298 17.1497 61.4655 16.937 61.8847 16.7614C65.8451 15.1026 69.6781 19.2753 68.5085 23.4067C67.3655 27.4445 63.691 30.5738 60.1845 32.5881C57.591 34.0778 54.6078 34.7165 51.6179 34.7927C45.1024 34.9587 37.4156 33.7387 31.6113 26.0005C30.1113 24.0007 29.6113 20.0002 31.2544 18.0004C33.8303 15.0826 41.4155 20.1526 43.1113 21.0005C44.501 21.6953 47.1782 21.9877 49.13 22.0455C50.449 22.0846 51.7418 21.7901 52.9937 21.3728C55.7073 20.4682 58.0881 18.8112 60.5788 17.4045Z" fill="#E6D2B6" stroke="black"/>
<g filter="url(#filter5_d_3328_1059)">
<circle cx="69.1113" cy="51.5" r="15.5" transform="rotate(-180 69.1113 51.5)" fill="white"/>
<circle cx="69.1113" cy="51.5" r="15.25" transform="rotate(-180 69.1113 51.5)" stroke="black" stroke-width="0.5"/>
</g>
<g filter="url(#filter6_d_3328_1059)">
<circle cx="27.1113" cy="51.5" r="15.5" transform="rotate(-180 27.1113 51.5)" fill="white"/>
<circle cx="27.1113" cy="51.5" r="15.25" transform="rotate(-180 27.1113 51.5)" stroke="black" stroke-width="0.5"/>
</g>
<circle cx="75.6113" cy="49" r="7" transform="rotate(-180 75.6113 49)" fill="#0C0C0C"/>
<circle cx="34.6113" cy="49" r="7" transform="rotate(-180 34.6113 49)" fill="#0C0C0C"/>
<circle cx="32.1113" cy="45.5" r="1.5" transform="rotate(-180 32.1113 45.5)" fill="#E8E7E7"/>
<circle cx="73.1113" cy="45.5" r="1.5" transform="rotate(-180 73.1113 45.5)" fill="#E8E7E7"/>
<path d="M56.6113 32.5008C56.6113 35.5006 53.0808 37.7795 49.6113 38.0008C45.8276 38.2421 42.1113 35.5005 41.611 32.5008C41.2861 30.5526 44.8756 29.6351 47.2032 29.2476C48.4688 29.0369 49.7556 29.0012 51.0266 29.1765C53.2487 29.4831 56.6113 30.309 56.6113 32.5008Z" fill="#0C0C0C" stroke="black"/>
<path d="M87.2508 66.3945C87.723 66.8507 88.2805 67.2094 88.8913 67.4502C89.5022 67.691 90.1545 67.8091 90.811 67.7978C91.4675 67.7865 92.1154 67.646 92.7176 67.3843C93.3198 67.1226 93.8646 66.7449 94.3208 66.2727C94.777 65.8004 95.1358 65.243 95.3766 64.6321C95.6174 64.0213 95.7355 63.3689 95.7242 62.7124C95.7129 62.0559 95.5723 61.4081 95.3107 60.8059C95.049 60.2036 94.6712 59.6589 94.199 59.2026L90.7249 62.7986L87.2508 66.3945Z" fill="black"/>
<path d="M10.9294 68.4759L11.1229 68.2566L6.92199 64.4777C3.99903 61.8484 1.58561 58.703 -0.19736 55.199L-1.07316 53.4778L-3.29344 56.0411C-6.62914 59.8921 -6.30986 65.6946 -2.57179 69.1564C1.32107 72.7616 7.41878 72.4542 10.9294 68.4759Z" fill="#539FCE" stroke="black" stroke-width="2"/>
<path d="M0.843506 58.5776C0.339691 58.9987 -0.0762532 59.5149 -0.380579 60.0967C-0.684903 60.6785 -0.871649 61.3146 -0.930154 61.9686C-0.988658 62.6226 -0.917775 63.2817 -0.721552 63.9083C-0.525329 64.5349 -0.207608 65.1167 0.213469 65.6205C0.634546 66.1244 1.15073 66.5403 1.73256 66.8446C2.31439 67.149 2.95046 67.3357 3.60446 67.3942C4.25845 67.4527 4.91757 67.3818 5.54417 67.1856C6.17078 66.9894 6.7526 66.6717 7.25641 66.2506L4.04996 62.4141L0.843506 58.5776Z" fill="black"/>
</g>
</g>
<rect x="0.5" y="0.5" width="135" height="135" rx="19.5" stroke="black"/>
<defs>
<filter id="filter0_d_3328_1059" x="-11.5" y="-44.5" width="118" height="130" filterUnits="userSpaceOnUse" color-interpolation-filters="sRGB">
<feFlood flood-opacity="0" result="BackgroundImageFix"/>
<feColorMatrix in="SourceAlpha" type="matrix" values="0 0 0 0 0 0 0 0 0 0 0 0 0 0 0 0 0 0 127 0" result="hardAlpha"/>
<feOffset dy="4"/>
<feGaussianBlur stdDeviation="2"/>
<feComposite in2="hardAlpha" operator="out"/>
<feColorMatrix type="matrix" values="0 0 0 0 0 0 0 0 0 0 0 0 0 0 0 0 0 0 0.25 0"/>
<feBlend mode="normal" in2="BackgroundImageFix" result="effect1_dropShadow_3328_1059"/>
<feBlend mode="normal" in="SourceGraphic" in2="effect1_dropShadow_3328_1059" result="shape"/>
</filter>
<filter id="filter1_f_3328_1059" x="-60.9648" y="-80.2178" width="237.39" height="212.296" filterUnits="userSpaceOnUse" color-interpolation-filters="sRGB">
<feFlood flood-opacity="0" result="BackgroundImageFix"/>
<feBlend mode="normal" in="SourceGraphic" in2="BackgroundImageFix" result="shape"/>
<feGaussianBlur stdDeviation="47.25" result="effect1_foregroundBlur_3328_1059"/>
</filter>
<filter id="filter2_f_3328_1059" x="-67.334" y="-94.9482" width="237.39" height="212.296" filterUnits="userSpaceOnUse" color-interpolation-filters="sRGB">
<feFlood flood-opacity="0" result="BackgroundImageFix"/>
<feBlend mode="normal" in="SourceGraphic" in2="BackgroundImageFix" result="shape"/>
<feGaussianBlur stdDeviation="47.25" result="effect1_foregroundBlur_3328_1059"/>
</filter>
<filter id="filter3_d_3328_1059" x="45.6113" y="7" width="17" height="22" filterUnits="userSpaceOnUse" color-interpolation-filters="sRGB">
<feFlood flood-opacity="0" result="BackgroundImageFix"/>
<feColorMatrix in="SourceAlpha" type="matrix" values="0 0 0 0 0 0 0 0 0 0 0 0 0 0 0 0 0 0 127 0" result="hardAlpha"/>
<feOffset dy="-1"/>
<feGaussianBlur stdDeviation="2"/>
<feComposite in2="hardAlpha" operator="out"/>
<feColorMatrix type="matrix" values="0 0 0 0 0 0 0 0 0 0 0 0 0 0 0 0 0 0 0.25 0"/>
<feBlend mode="normal" in2="BackgroundImageFix" result="effect1_dropShadow_3328_1059"/>
<feBlend mode="normal" in="SourceGraphic" in2="effect1_dropShadow_3328_1059" result="shape"/>
</filter>
<filter id="filter4_d_3328_1059" x="35.6113" y="7" width="17" height="22" filterUnits="userSpaceOnUse" color-interpolation-filters="sRGB">
<feFlood flood-opacity="0" result="BackgroundImageFix"/>
<feColorMatrix in="SourceAlpha" type="matrix" values="0 0 0 0 0 0 0 0 0 0 0 0 0 0 0 0 0 0 127 0" result="hardAlpha"/>
<feOffset dy="-1"/>
<feGaussianBlur stdDeviation="2"/>
<feComposite in2="hardAlpha" operator="out"/>
<feColorMatrix type="matrix" values="0 0 0 0 0 0 0 0 0 0 0 0 0 0 0 0 0 0 0.25 0"/>
<feBlend mode="normal" in2="BackgroundImageFix" result="effect1_dropShadow_3328_1059"/>
<feBlend mode="normal" in="SourceGraphic" in2="effect1_dropShadow_3328_1059" result="shape"/>
</filter>
<filter id="filter5_d_3328_1059" x="49.6113" y="36" width="39" height="39" filterUnits="userSpaceOnUse" color-interpolation-filters="sRGB">
<feFlood flood-opacity="0" result="BackgroundImageFix"/>
<feColorMatrix in="SourceAlpha" type="matrix" values="0 0 0 0 0 0 0 0 0 0 0 0 0 0 0 0 0 0 127 0" result="hardAlpha"/>
<feOffset dy="4"/>
<feGaussianBlur stdDeviation="2"/>
<feComposite in2="hardAlpha" operator="out"/>
<feColorMatrix type="matrix" values="0 0 0 0 0 0 0 0 0 0 0 0 0 0 0 0 0 0 0.25 0"/>
<feBlend mode="normal" in2="BackgroundImageFix" result="effect1_dropShadow_3328_1059"/>
<feBlend mode="normal" in="SourceGraphic" in2="effect1_dropShadow_3328_1059" result="shape"/>
</filter>
<filter id="filter6_d_3328_1059" x="7.61133" y="36" width="39" height="39" filterUnits="userSpaceOnUse" color-interpolation-filters="sRGB">
<feFlood flood-opacity="0" result="BackgroundImageFix"/>
<feColorMatrix in="SourceAlpha" type="matrix" values="0 0 0 0 0 0 0 0 0 0 0 0 0 0 0 0 0 0 127 0" result="hardAlpha"/>
<feOffset dy="4"/>
<feGaussianBlur stdDeviation="2"/>
<feComposite in2="hardAlpha" operator="out"/>
<feColorMatrix type="matrix" values="0 0 0 0 0 0 0 0 0 0 0 0 0 0 0 0 0 0 0.25 0"/>
<feBlend mode="normal" in2="BackgroundImageFix" result="effect1_dropShadow_3328_1059"/>
<feBlend mode="normal" in="SourceGraphic" in2="effect1_dropShadow_3328_1059" result="shape"/>
</filter>
<linearGradient id="paint0_linear_3328_1059" x1="7" y1="-7.5" x2="136" y2="136" gradientUnits="userSpaceOnUse">
<stop stop-color="#225A9B"/>
<stop offset="1" stop-color="#0EAEF6"/>
</linearGradient>
<linearGradient id="paint1_linear_3328_1059" x1="48.5" y1="91" x2="123.5" y2="130.5" gradientUnits="userSpaceOnUse">
<stop stop-color="#129CDF"/>
<stop offset="0.0001" stop-color="#168FD5"/>
<stop offset="1" stop-color="#10A7EF"/>
</linearGradient>
<clipPath id="clip0_3328_1059">
<rect width="136" height="136" rx="20" fill="white"/>
</clipPath>
</defs>
</svg>
