<svg width="116" height="116" viewBox="0 0 116 116" fill="none" xmlns="http://www.w3.org/2000/svg">
<g clip-path="url(#clip0_3837_12)">
<rect width="116" height="116" rx="26" fill="#151D22"/>
<g filter="url(#filter0_f_3837_12)">
<g clip-path="url(#clip1_3837_12)">
<rect x="8" y="8" width="100" height="100" rx="20" fill="#16A8ED"/>
<g filter="url(#filter1_d_3837_12)">
<g filter="url(#filter2_f_3837_12)">
<path d="M82.6602 34.8494L71.4282 34.8494L71.4282 33.1214C71.4282 29.9214 72.4522 27.3294 74.5002 25.3454C76.5482 23.3614 79.1935 22.3694 82.4362 22.3694C85.8922 22.3694 88.7615 23.4894 91.0442 25.7294C93.3055 27.9907 94.4362 30.7427 94.4362 33.9854C94.4362 37.2494 93.3162 40.0121 91.0762 42.2734C88.8149 44.5347 86.0202 45.6654 82.6922 45.6654C80.6229 45.6654 78.7242 45.196 76.9962 44.2574C75.2682 43.3187 73.9135 42.0494 72.9322 40.4494L76.7082 38.2734C77.2415 39.1907 78.0522 39.9374 79.1402 40.5134C80.2282 41.0894 81.4229 41.3774 82.7242 41.3774C84.8789 41.3774 86.6389 40.6734 88.0042 39.2654C89.3695 37.9 90.0522 36.14 90.0522 33.9854C90.0522 31.8734 89.3589 30.124 87.9722 28.7374C86.5855 27.372 84.7295 26.6894 82.4042 26.6894C80.7189 26.6894 79.3109 27.0627 78.1802 27.8094C77.0495 28.556 76.2815 29.6014 75.8762 30.9454L82.6602 30.9454L82.6602 34.8494ZM49.4392 25.7294C51.7005 23.4894 54.4525 22.3694 57.6952 22.3694C60.9379 22.3694 63.6899 23.4894 65.9512 25.7294C68.1912 28.012 69.3112 30.7747 69.3112 34.0174C69.3112 37.2814 68.1912 40.0334 65.9512 42.2734C63.6899 44.5347 60.9379 45.6654 57.6952 45.6654C54.4525 45.6654 51.7005 44.5347 49.4392 42.2734C47.1779 40.0334 46.0472 37.2814 46.0472 34.0174C46.0472 30.7534 47.1779 27.9907 49.4392 25.7294ZM62.8472 28.7374C61.4819 27.372 59.7645 26.6894 57.6952 26.6894C55.6259 26.6894 53.9085 27.372 52.5432 28.7374C51.1565 30.124 50.4632 31.884 50.4632 34.0174C50.4632 36.1507 51.1565 37.9107 52.5432 39.2974C53.9299 40.684 55.6472 41.3774 57.6952 41.3774C59.7432 41.3774 61.4605 40.684 62.8472 39.2974C64.2339 37.9107 64.9272 36.1507 64.9272 34.0174C64.9272 31.884 64.2339 30.124 62.8472 28.7374Z" fill="white"/>
</g>
<g filter="url(#filter3_f_3837_12)">
<path d="M75.9219 19.2547L64.6899 19.2547L64.6899 17.5267C64.6899 14.3267 65.7139 11.7347 67.7619 9.75065C69.8099 7.76665 72.4552 6.77465 75.6979 6.77466C79.1539 6.77466 82.0232 7.89466 84.3059 10.1347C86.5672 12.396 87.6979 15.148 87.6979 18.3907C87.6979 21.6547 86.5779 24.4173 84.3379 26.6787C82.0766 28.94 79.2819 30.0707 75.9539 30.0707C73.8846 30.0707 71.9859 29.6013 70.2579 28.6627C68.5299 27.724 67.1752 26.4547 66.1939 24.8547L69.9699 22.6787C70.5032 23.596 71.3139 24.3427 72.4019 24.9187C73.4899 25.4947 74.6846 25.7827 75.9859 25.7827C78.1406 25.7827 79.9006 25.0787 81.2659 23.6707C82.6312 22.3053 83.3139 20.5453 83.3139 18.3907C83.3139 16.2787 82.6206 14.5293 81.2339 13.1427C79.8472 11.7773 77.9912 11.0947 75.6659 11.0947C73.9806 11.0947 72.5726 11.468 71.4419 12.2147C70.3112 12.9613 69.5432 14.0067 69.1379 15.3507L75.9219 15.3507L75.9219 19.2547ZM42.7009 10.1347C44.9622 7.89465 47.7142 6.77465 50.9569 6.77465C54.1996 6.77465 56.9516 7.89465 59.2129 10.1347C61.4529 12.4173 62.5729 15.18 62.5729 18.4227C62.5729 21.6867 61.4529 24.4387 59.2129 26.6787C56.9516 28.94 54.1996 30.0707 50.9569 30.0707C47.7142 30.0707 44.9622 28.94 42.7009 26.6787C40.4396 24.4387 39.3089 21.6867 39.3089 18.4227C39.3089 15.1587 40.4396 12.396 42.7009 10.1347ZM56.1089 13.1427C54.7436 11.7773 53.0262 11.0947 50.9569 11.0947C48.8876 11.0947 47.1702 11.7773 45.8049 13.1427C44.4182 14.5293 43.7249 16.2893 43.7249 18.4227C43.7249 20.556 44.4182 22.316 45.8049 23.7027C47.1916 25.0893 48.9089 25.7827 50.9569 25.7827C53.0049 25.7827 54.7222 25.0893 56.1089 23.7027C57.4956 22.316 58.1889 20.556 58.1889 18.4227C58.1889 16.2893 57.4956 14.5293 56.1089 13.1427Z" fill="white"/>
</g>
<path d="M114.57 43.9795L114.57 1.99965C114.57 -21.1963 95.7663 -40.0004 72.5704 -40.0004L43.2943 -40.0004C20.0984 -40.0004 1.29431 -21.1963 1.2943 1.99968L1.2943 43.9795C1.2943 67.1754 20.0983 85.9795 43.2943 85.9795L72.5703 85.9795C95.7663 85.9795 114.57 67.1754 114.57 43.9795Z" fill="#539FCE" stroke="black" stroke-width="3"/>
<g filter="url(#filter4_d_3837_12)">
<path d="M69.6953 30.0469C69.6953 31.7037 68.3522 33.0469 66.6953 33.0469L63.1674 33.0469C61.5106 33.0469 60.1674 31.7037 60.1674 30.0469L60.1674 21.2257C60.1674 19.5689 61.5106 18.2257 63.1674 18.2257L64.6953 18.2257C67.4567 18.2257 69.6953 20.4643 69.6953 23.2257L69.6953 30.0469Z" fill="white"/>
<path d="M69.4453 30.0469C69.4453 31.5657 68.2141 32.7969 66.6953 32.7969L63.1674 32.7969C61.6486 32.7969 60.4174 31.5657 60.4174 30.0469L60.4174 21.2257C60.4174 19.7069 61.6486 18.4757 63.1674 18.4757L64.6953 18.4757C67.3187 18.4757 69.4453 20.6024 69.4453 23.2257L69.4453 30.0469Z" stroke="black" stroke-width="0.5"/>
</g>
<g filter="url(#filter5_d_3837_12)">
<path d="M59.1094 30.0469C59.1094 31.7037 57.7662 33.0469 56.1094 33.0469L52.5815 33.0469C50.9246 33.0469 49.5815 31.7037 49.5815 30.0469L49.5815 22.2257C49.5815 20.0166 51.3723 18.2257 53.5815 18.2257L56.1094 18.2257C57.7662 18.2257 59.1094 19.5689 59.1094 21.2257L59.1094 30.0469Z" fill="white"/>
<path d="M58.8594 30.0469C58.8594 31.5657 57.6282 32.7969 56.1094 32.7969L52.5815 32.7969C51.0627 32.7969 49.8315 31.5657 49.8315 30.0469L49.8315 22.2257C49.8315 20.1546 51.5104 18.4757 53.5815 18.4757L56.1094 18.4757C57.6282 18.4757 58.8594 19.7069 58.8594 21.2257L58.8594 30.0469Z" stroke="black" stroke-width="0.5"/>
</g>
<path d="M71.778 23.9473C72.2556 23.6776 72.7168 23.4523 73.1606 23.2665C77.3532 21.5103 81.4111 25.9278 80.1729 30.3016C78.9376 34.6651 74.9099 38.0264 71.1293 40.1529C68.5225 41.6192 65.5446 42.2555 62.5551 42.3479C55.602 42.5629 47.3347 41.3441 41.1116 33.0474C39.5236 30.9304 38.9942 26.6953 40.7336 24.5781C43.4606 21.4892 51.4908 26.8565 53.2861 27.7542C54.7573 28.4898 57.5915 28.7993 59.6578 28.8605C61.0541 28.9019 62.4228 28.5901 63.748 28.1483C66.6209 27.1907 69.1413 25.4364 71.778 23.9473Z" fill="#E6D2B6" stroke="black"/>
<g filter="url(#filter6_d_3837_12)">
<circle cx="80.8135" cy="60.043" r="16.4091" transform="rotate(-180 80.8135 60.043)" fill="white"/>
<circle cx="80.8135" cy="60.043" r="16.1591" transform="rotate(-180 80.8135 60.043)" stroke="black" stroke-width="0.5"/>
</g>
<g filter="url(#filter7_d_3837_12)">
<circle cx="36.3487" cy="60.043" r="16.4091" transform="rotate(-180 36.3487 60.043)" fill="white"/>
<circle cx="36.3487" cy="60.043" r="16.1591" transform="rotate(-180 36.3487 60.043)" stroke="black" stroke-width="0.5"/>
</g>
<circle cx="87.6949" cy="57.3961" r="7.41058" transform="rotate(-180 87.6949 57.3961)" fill="#0C0C0C"/>
<circle cx="44.2886" cy="57.3961" r="7.41058" transform="rotate(-180 44.2886 57.3961)" fill="#0C0C0C"/>
<circle cx="41.6425" cy="53.6913" r="1.58798" transform="rotate(-180 41.6425 53.6913)" fill="#E8E7E7"/>
<circle cx="85.0487" cy="53.6913" r="1.58798" transform="rotate(-180 85.0487 53.6913)" fill="#E8E7E7"/>
<path d="M67.5781 39.9293C67.5781 43.105 63.8405 45.5176 60.1675 45.7519C56.1619 46.0074 52.2276 43.1049 51.698 39.9293C51.3488 37.8357 55.2699 36.8663 57.729 36.467C58.9954 36.2614 60.2826 36.226 61.5544 36.3949C63.904 36.7071 67.5781 37.572 67.5781 39.9293Z" fill="#0C0C0C" stroke="black"/>
</g>
<path d="M110.94 79.014L112.492 76.9321C115.202 73.2974 114.017 68.1011 110 66L103 72.5L95 79.5L98.3167 81.4965C102.537 84.0369 107.996 82.9633 110.94 79.014Z" fill="#539FCE" stroke="black" stroke-width="2"/>
<path d="M100.017 75.8108C100.517 76.2938 101.107 76.6735 101.754 76.9285C102.401 77.1834 103.091 77.3084 103.786 77.2964C104.481 77.2845 105.167 77.1357 105.805 76.8587C106.442 76.5816 107.019 76.1817 107.502 75.6818C107.985 75.1819 108.365 74.5917 108.619 73.9451C108.874 73.2984 108.999 72.6078 108.987 71.9128C108.975 71.2177 108.827 70.5319 108.55 69.8944C108.273 69.2568 107.873 68.6801 107.373 68.1971L103.695 72.0039L100.017 75.8108Z" fill="black"/>
<path d="M19.2157 78.0138L19.4205 77.7816L14.7138 73.5478C11.7909 70.9185 9.37744 67.773 7.59447 64.269L6.50909 62.136L4.15858 64.8496C0.627231 68.9265 0.965234 75.0693 4.92256 78.7342C9.04375 82.5508 15.4991 82.2254 19.2157 78.0138Z" fill="#539FCE" stroke="black" stroke-width="2"/>
<path d="M8.542 67.5352C8.00863 67.981 7.56829 68.5274 7.24612 69.1434C6.92394 69.7593 6.72624 70.4327 6.66431 71.1251C6.60237 71.8174 6.67741 72.5152 6.88514 73.1785C7.09287 73.8419 7.42923 74.4579 7.87501 74.9912C8.32078 75.5246 8.86725 75.9649 9.4832 76.2871C10.0992 76.6093 10.7725 76.807 11.4649 76.8689C12.1572 76.9308 12.855 76.8558 13.5184 76.6481C14.1817 76.4403 14.7977 76.104 15.331 75.6582L11.9365 71.5967L8.542 67.5352Z" fill="black"/>
</g>
</g>
<g filter="url(#filter8_d_3837_12)">
<g clip-path="url(#clip2_3837_12)">
<rect x="8" y="8" width="100" height="100" rx="20" fill="#16A8ED"/>
<g filter="url(#filter9_d_3837_12)">
<g filter="url(#filter10_f_3837_12)">
<path d="M82.6602 34.8494L71.4282 34.8494L71.4282 33.1214C71.4282 29.9214 72.4522 27.3294 74.5002 25.3454C76.5482 23.3614 79.1935 22.3694 82.4362 22.3694C85.8922 22.3694 88.7615 23.4894 91.0442 25.7294C93.3055 27.9907 94.4362 30.7427 94.4362 33.9854C94.4362 37.2494 93.3162 40.0121 91.0762 42.2734C88.8149 44.5347 86.0202 45.6654 82.6922 45.6654C80.6229 45.6654 78.7242 45.196 76.9962 44.2574C75.2682 43.3187 73.9135 42.0494 72.9322 40.4494L76.7082 38.2734C77.2415 39.1907 78.0522 39.9374 79.1402 40.5134C80.2282 41.0894 81.4229 41.3774 82.7242 41.3774C84.8789 41.3774 86.6389 40.6734 88.0042 39.2654C89.3695 37.9 90.0522 36.14 90.0522 33.9854C90.0522 31.8734 89.3589 30.124 87.9722 28.7374C86.5855 27.372 84.7295 26.6894 82.4042 26.6894C80.7189 26.6894 79.3109 27.0627 78.1802 27.8094C77.0495 28.556 76.2815 29.6014 75.8762 30.9454L82.6602 30.9454L82.6602 34.8494ZM49.4392 25.7294C51.7005 23.4894 54.4525 22.3694 57.6952 22.3694C60.9379 22.3694 63.6899 23.4894 65.9512 25.7294C68.1912 28.012 69.3112 30.7747 69.3112 34.0174C69.3112 37.2814 68.1912 40.0334 65.9512 42.2734C63.6899 44.5347 60.9379 45.6654 57.6952 45.6654C54.4525 45.6654 51.7005 44.5347 49.4392 42.2734C47.1779 40.0334 46.0472 37.2814 46.0472 34.0174C46.0472 30.7534 47.1779 27.9907 49.4392 25.7294ZM62.8472 28.7374C61.4819 27.372 59.7645 26.6894 57.6952 26.6894C55.6259 26.6894 53.9085 27.372 52.5432 28.7374C51.1565 30.124 50.4632 31.884 50.4632 34.0174C50.4632 36.1507 51.1565 37.9107 52.5432 39.2974C53.9299 40.684 55.6472 41.3774 57.6952 41.3774C59.7432 41.3774 61.4605 40.684 62.8472 39.2974C64.2339 37.9107 64.9272 36.1507 64.9272 34.0174C64.9272 31.884 64.2339 30.124 62.8472 28.7374Z" fill="white"/>
</g>
<g filter="url(#filter11_f_3837_12)">
<path d="M75.9219 19.2547L64.6899 19.2547L64.6899 17.5267C64.6899 14.3267 65.7139 11.7347 67.7619 9.75065C69.8099 7.76665 72.4552 6.77465 75.6979 6.77466C79.1539 6.77466 82.0232 7.89466 84.3059 10.1347C86.5672 12.396 87.6979 15.148 87.6979 18.3907C87.6979 21.6547 86.5779 24.4173 84.3379 26.6787C82.0766 28.94 79.2819 30.0707 75.9539 30.0707C73.8846 30.0707 71.9859 29.6013 70.2579 28.6627C68.5299 27.724 67.1752 26.4547 66.1939 24.8547L69.9699 22.6787C70.5032 23.596 71.3139 24.3427 72.4019 24.9187C73.4899 25.4947 74.6846 25.7827 75.9859 25.7827C78.1406 25.7827 79.9006 25.0787 81.2659 23.6707C82.6312 22.3053 83.3139 20.5453 83.3139 18.3907C83.3139 16.2787 82.6206 14.5293 81.2339 13.1427C79.8472 11.7773 77.9912 11.0947 75.6659 11.0947C73.9806 11.0947 72.5726 11.468 71.4419 12.2147C70.3112 12.9613 69.5432 14.0067 69.1379 15.3507L75.9219 15.3507L75.9219 19.2547ZM42.7009 10.1347C44.9622 7.89465 47.7142 6.77465 50.9569 6.77465C54.1996 6.77465 56.9516 7.89465 59.2129 10.1347C61.4529 12.4173 62.5729 15.18 62.5729 18.4227C62.5729 21.6867 61.4529 24.4387 59.2129 26.6787C56.9516 28.94 54.1996 30.0707 50.9569 30.0707C47.7142 30.0707 44.9622 28.94 42.7009 26.6787C40.4396 24.4387 39.3089 21.6867 39.3089 18.4227C39.3089 15.1587 40.4396 12.396 42.7009 10.1347ZM56.1089 13.1427C54.7436 11.7773 53.0262 11.0947 50.9569 11.0947C48.8876 11.0947 47.1702 11.7773 45.8049 13.1427C44.4182 14.5293 43.7249 16.2893 43.7249 18.4227C43.7249 20.556 44.4182 22.316 45.8049 23.7027C47.1916 25.0893 48.9089 25.7827 50.9569 25.7827C53.0049 25.7827 54.7222 25.0893 56.1089 23.7027C57.4956 22.316 58.1889 20.556 58.1889 18.4227C58.1889 16.2893 57.4956 14.5293 56.1089 13.1427Z" fill="white"/>
</g>
<path d="M114.57 43.9795L114.57 1.99965C114.57 -21.1963 95.7663 -40.0004 72.5704 -40.0004L43.2943 -40.0004C20.0984 -40.0004 1.29431 -21.1963 1.2943 1.99968L1.2943 43.9795C1.2943 67.1754 20.0983 85.9795 43.2943 85.9795L72.5703 85.9795C95.7663 85.9795 114.57 67.1754 114.57 43.9795Z" fill="#539FCE" stroke="black" stroke-width="3"/>
<g filter="url(#filter12_d_3837_12)">
<path d="M69.6953 30.0469C69.6953 31.7037 68.3522 33.0469 66.6953 33.0469L63.1674 33.0469C61.5106 33.0469 60.1674 31.7037 60.1674 30.0469L60.1674 21.2257C60.1674 19.5689 61.5106 18.2257 63.1674 18.2257L64.6953 18.2257C67.4567 18.2257 69.6953 20.4643 69.6953 23.2257L69.6953 30.0469Z" fill="white"/>
<path d="M69.4453 30.0469C69.4453 31.5657 68.2141 32.7969 66.6953 32.7969L63.1674 32.7969C61.6486 32.7969 60.4174 31.5657 60.4174 30.0469L60.4174 21.2257C60.4174 19.7069 61.6486 18.4757 63.1674 18.4757L64.6953 18.4757C67.3187 18.4757 69.4453 20.6024 69.4453 23.2257L69.4453 30.0469Z" stroke="black" stroke-width="0.5"/>
</g>
<g filter="url(#filter13_d_3837_12)">
<path d="M59.1094 30.0469C59.1094 31.7037 57.7662 33.0469 56.1094 33.0469L52.5815 33.0469C50.9246 33.0469 49.5815 31.7037 49.5815 30.0469L49.5815 22.2257C49.5815 20.0166 51.3723 18.2257 53.5815 18.2257L56.1094 18.2257C57.7662 18.2257 59.1094 19.5689 59.1094 21.2257L59.1094 30.0469Z" fill="white"/>
<path d="M58.8594 30.0469C58.8594 31.5657 57.6282 32.7969 56.1094 32.7969L52.5815 32.7969C51.0627 32.7969 49.8315 31.5657 49.8315 30.0469L49.8315 22.2257C49.8315 20.1546 51.5104 18.4757 53.5815 18.4757L56.1094 18.4757C57.6282 18.4757 58.8594 19.7069 58.8594 21.2257L58.8594 30.0469Z" stroke="black" stroke-width="0.5"/>
</g>
<path d="M71.778 23.9473C72.2556 23.6776 72.7168 23.4523 73.1606 23.2665C77.3532 21.5103 81.4111 25.9278 80.1729 30.3016C78.9376 34.6651 74.9099 38.0264 71.1293 40.1529C68.5225 41.6192 65.5446 42.2555 62.5551 42.3479C55.602 42.5629 47.3347 41.3441 41.1116 33.0474C39.5236 30.9304 38.9942 26.6953 40.7336 24.5781C43.4606 21.4892 51.4908 26.8565 53.2861 27.7542C54.7573 28.4898 57.5915 28.7993 59.6578 28.8605C61.0541 28.9019 62.4228 28.5901 63.748 28.1483C66.6209 27.1907 69.1413 25.4364 71.778 23.9473Z" fill="#E6D2B6" stroke="black"/>
<g filter="url(#filter14_d_3837_12)">
<circle cx="80.8135" cy="60.043" r="16.4091" transform="rotate(-180 80.8135 60.043)" fill="white"/>
<circle cx="80.8135" cy="60.043" r="16.1591" transform="rotate(-180 80.8135 60.043)" stroke="black" stroke-width="0.5"/>
</g>
<g filter="url(#filter15_d_3837_12)">
<circle cx="36.3487" cy="60.043" r="16.4091" transform="rotate(-180 36.3487 60.043)" fill="white"/>
<circle cx="36.3487" cy="60.043" r="16.1591" transform="rotate(-180 36.3487 60.043)" stroke="black" stroke-width="0.5"/>
</g>
<circle cx="87.6949" cy="57.3961" r="7.41058" transform="rotate(-180 87.6949 57.3961)" fill="#0C0C0C"/>
<circle cx="44.2886" cy="57.3961" r="7.41058" transform="rotate(-180 44.2886 57.3961)" fill="#0C0C0C"/>
<circle cx="41.6425" cy="53.6913" r="1.58798" transform="rotate(-180 41.6425 53.6913)" fill="#E8E7E7"/>
<circle cx="85.0487" cy="53.6913" r="1.58798" transform="rotate(-180 85.0487 53.6913)" fill="#E8E7E7"/>
<path d="M67.5781 39.9293C67.5781 43.105 63.8405 45.5176 60.1675 45.7519C56.1619 46.0074 52.2276 43.1049 51.698 39.9293C51.3488 37.8357 55.2699 36.8663 57.729 36.467C58.9954 36.2614 60.2826 36.226 61.5544 36.3949C63.904 36.7071 67.5781 37.572 67.5781 39.9293Z" fill="#0C0C0C" stroke="black"/>
</g>
<path d="M110.94 79.014L112.492 76.9321C115.202 73.2974 114.017 68.1011 110 66L103 72.5L95 79.5L98.3167 81.4965C102.537 84.0369 107.996 82.9633 110.94 79.014Z" fill="#539FCE" stroke="black" stroke-width="2"/>
<path d="M100.017 75.8108C100.517 76.2938 101.107 76.6735 101.754 76.9285C102.401 77.1834 103.091 77.3084 103.786 77.2964C104.481 77.2845 105.167 77.1357 105.805 76.8587C106.442 76.5816 107.019 76.1817 107.502 75.6818C107.985 75.1819 108.365 74.5917 108.619 73.9451C108.874 73.2984 108.999 72.6078 108.987 71.9128C108.975 71.2177 108.827 70.5319 108.55 69.8944C108.273 69.2568 107.873 68.6801 107.373 68.1971L103.695 72.0039L100.017 75.8108Z" fill="black"/>
<path d="M19.2157 78.0138L19.4205 77.7816L14.7138 73.5478C11.7909 70.9185 9.37744 67.773 7.59447 64.269L6.50909 62.136L4.15858 64.8496C0.627231 68.9265 0.965234 75.0693 4.92256 78.7342C9.04375 82.5508 15.4991 82.2254 19.2157 78.0138Z" fill="#539FCE" stroke="black" stroke-width="2"/>
<path d="M8.542 67.5352C8.00863 67.981 7.56829 68.5274 7.24612 69.1434C6.92394 69.7593 6.72624 70.4327 6.66431 71.1251C6.60237 71.8174 6.67741 72.5152 6.88514 73.1785C7.09287 73.8419 7.42923 74.4579 7.87501 74.9912C8.32078 75.5246 8.86725 75.9649 9.4832 76.2871C10.0992 76.6093 10.7725 76.807 11.4649 76.8689C12.1572 76.9308 12.855 76.8558 13.5184 76.6481C14.1817 76.4403 14.7977 76.104 15.331 75.6582L11.9365 71.5967L8.542 67.5352Z" fill="black"/>
</g>
</g>
</g>
<defs>
<filter id="filter0_f_3837_12" x="-2.4" y="-2.4" width="120.8" height="120.8" filterUnits="userSpaceOnUse" color-interpolation-filters="sRGB">
<feFlood flood-opacity="0" result="BackgroundImageFix"/>
<feBlend mode="normal" in="SourceGraphic" in2="BackgroundImageFix" result="shape"/>
<feGaussianBlur stdDeviation="5.2" result="effect1_foregroundBlur_3837_12"/>
</filter>
<filter id="filter1_d_3837_12" x="-4.20508" y="-41.5" width="124.275" height="136.979" filterUnits="userSpaceOnUse" color-interpolation-filters="sRGB">
<feFlood flood-opacity="0" result="BackgroundImageFix"/>
<feColorMatrix in="SourceAlpha" type="matrix" values="0 0 0 0 0 0 0 0 0 0 0 0 0 0 0 0 0 0 127 0" result="hardAlpha"/>
<feOffset dy="4"/>
<feGaussianBlur stdDeviation="2"/>
<feComposite in2="hardAlpha" operator="out"/>
<feColorMatrix type="matrix" values="0 0 0 0 0 0 0 0 0 0 0 0 0 0 0 0 0 0 0.25 0"/>
<feBlend mode="normal" in2="BackgroundImageFix" result="effect1_dropShadow_3837_12"/>
<feBlend mode="normal" in="SourceGraphic" in2="effect1_dropShadow_3837_12" result="shape"/>
</filter>
<filter id="filter2_f_3837_12" x="-48.4531" y="-72.1309" width="237.389" height="212.296" filterUnits="userSpaceOnUse" color-interpolation-filters="sRGB">
<feFlood flood-opacity="0" result="BackgroundImageFix"/>
<feBlend mode="normal" in="SourceGraphic" in2="BackgroundImageFix" result="shape"/>
<feGaussianBlur stdDeviation="47.25" result="effect1_foregroundBlur_3837_12"/>
</filter>
<filter id="filter3_f_3837_12" x="-55.1914" y="-87.7256" width="237.389" height="212.296" filterUnits="userSpaceOnUse" color-interpolation-filters="sRGB">
<feFlood flood-opacity="0" result="BackgroundImageFix"/>
<feBlend mode="normal" in="SourceGraphic" in2="BackgroundImageFix" result="shape"/>
<feGaussianBlur stdDeviation="47.25" result="effect1_foregroundBlur_3837_12"/>
</filter>
<filter id="filter4_d_3837_12" x="56.168" y="13.2256" width="17.5273" height="22.8213" filterUnits="userSpaceOnUse" color-interpolation-filters="sRGB">
<feFlood flood-opacity="0" result="BackgroundImageFix"/>
<feColorMatrix in="SourceAlpha" type="matrix" values="0 0 0 0 0 0 0 0 0 0 0 0 0 0 0 0 0 0 127 0" result="hardAlpha"/>
<feOffset dy="-1"/>
<feGaussianBlur stdDeviation="2"/>
<feComposite in2="hardAlpha" operator="out"/>
<feColorMatrix type="matrix" values="0 0 0 0 0 0 0 0 0 0 0 0 0 0 0 0 0 0 0.25 0"/>
<feBlend mode="normal" in2="BackgroundImageFix" result="effect1_dropShadow_3837_12"/>
<feBlend mode="normal" in="SourceGraphic" in2="effect1_dropShadow_3837_12" result="shape"/>
</filter>
<filter id="filter5_d_3837_12" x="45.582" y="13.2256" width="17.5273" height="22.8213" filterUnits="userSpaceOnUse" color-interpolation-filters="sRGB">
<feFlood flood-opacity="0" result="BackgroundImageFix"/>
<feColorMatrix in="SourceAlpha" type="matrix" values="0 0 0 0 0 0 0 0 0 0 0 0 0 0 0 0 0 0 127 0" result="hardAlpha"/>
<feOffset dy="-1"/>
<feGaussianBlur stdDeviation="2"/>
<feComposite in2="hardAlpha" operator="out"/>
<feColorMatrix type="matrix" values="0 0 0 0 0 0 0 0 0 0 0 0 0 0 0 0 0 0 0.25 0"/>
<feBlend mode="normal" in2="BackgroundImageFix" result="effect1_dropShadow_3837_12"/>
<feBlend mode="normal" in="SourceGraphic" in2="effect1_dropShadow_3837_12" result="shape"/>
</filter>
<filter id="filter6_d_3837_12" x="60.4043" y="43.6338" width="40.8184" height="40.8184" filterUnits="userSpaceOnUse" color-interpolation-filters="sRGB">
<feFlood flood-opacity="0" result="BackgroundImageFix"/>
<feColorMatrix in="SourceAlpha" type="matrix" values="0 0 0 0 0 0 0 0 0 0 0 0 0 0 0 0 0 0 127 0" result="hardAlpha"/>
<feOffset dy="4"/>
<feGaussianBlur stdDeviation="2"/>
<feComposite in2="hardAlpha" operator="out"/>
<feColorMatrix type="matrix" values="0 0 0 0 0 0 0 0 0 0 0 0 0 0 0 0 0 0 0.25 0"/>
<feBlend mode="normal" in2="BackgroundImageFix" result="effect1_dropShadow_3837_12"/>
<feBlend mode="normal" in="SourceGraphic" in2="effect1_dropShadow_3837_12" result="shape"/>
</filter>
<filter id="filter7_d_3837_12" x="15.9395" y="43.6338" width="40.8184" height="40.8184" filterUnits="userSpaceOnUse" color-interpolation-filters="sRGB">
<feFlood flood-opacity="0" result="BackgroundImageFix"/>
<feColorMatrix in="SourceAlpha" type="matrix" values="0 0 0 0 0 0 0 0 0 0 0 0 0 0 0 0 0 0 127 0" result="hardAlpha"/>
<feOffset dy="4"/>
<feGaussianBlur stdDeviation="2"/>
<feComposite in2="hardAlpha" operator="out"/>
<feColorMatrix type="matrix" values="0 0 0 0 0 0 0 0 0 0 0 0 0 0 0 0 0 0 0.25 0"/>
<feBlend mode="normal" in2="BackgroundImageFix" result="effect1_dropShadow_3837_12"/>
<feBlend mode="normal" in="SourceGraphic" in2="effect1_dropShadow_3837_12" result="shape"/>
</filter>
<filter id="filter8_d_3837_12" x="4" y="8" width="108" height="108" filterUnits="userSpaceOnUse" color-interpolation-filters="sRGB">
<feFlood flood-opacity="0" result="BackgroundImageFix"/>
<feColorMatrix in="SourceAlpha" type="matrix" values="0 0 0 0 0 0 0 0 0 0 0 0 0 0 0 0 0 0 127 0" result="hardAlpha"/>
<feOffset dy="4"/>
<feGaussianBlur stdDeviation="2"/>
<feComposite in2="hardAlpha" operator="out"/>
<feColorMatrix type="matrix" values="0 0 0 0 0 0 0 0 0 0 0 0 0 0 0 0 0 0 0.25 0"/>
<feBlend mode="normal" in2="BackgroundImageFix" result="effect1_dropShadow_3837_12"/>
<feBlend mode="normal" in="SourceGraphic" in2="effect1_dropShadow_3837_12" result="shape"/>
</filter>
<filter id="filter9_d_3837_12" x="-4.20508" y="-41.5" width="124.275" height="136.979" filterUnits="userSpaceOnUse" color-interpolation-filters="sRGB">
<feFlood flood-opacity="0" result="BackgroundImageFix"/>
<feColorMatrix in="SourceAlpha" type="matrix" values="0 0 0 0 0 0 0 0 0 0 0 0 0 0 0 0 0 0 127 0" result="hardAlpha"/>
<feOffset dy="4"/>
<feGaussianBlur stdDeviation="2"/>
<feComposite in2="hardAlpha" operator="out"/>
<feColorMatrix type="matrix" values="0 0 0 0 0 0 0 0 0 0 0 0 0 0 0 0 0 0 0.25 0"/>
<feBlend mode="normal" in2="BackgroundImageFix" result="effect1_dropShadow_3837_12"/>
<feBlend mode="normal" in="SourceGraphic" in2="effect1_dropShadow_3837_12" result="shape"/>
</filter>
<filter id="filter10_f_3837_12" x="-48.4531" y="-72.1309" width="237.389" height="212.296" filterUnits="userSpaceOnUse" color-interpolation-filters="sRGB">
<feFlood flood-opacity="0" result="BackgroundImageFix"/>
<feBlend mode="normal" in="SourceGraphic" in2="BackgroundImageFix" result="shape"/>
<feGaussianBlur stdDeviation="47.25" result="effect1_foregroundBlur_3837_12"/>
</filter>
<filter id="filter11_f_3837_12" x="-55.1914" y="-87.7256" width="237.389" height="212.296" filterUnits="userSpaceOnUse" color-interpolation-filters="sRGB">
<feFlood flood-opacity="0" result="BackgroundImageFix"/>
<feBlend mode="normal" in="SourceGraphic" in2="BackgroundImageFix" result="shape"/>
<feGaussianBlur stdDeviation="47.25" result="effect1_foregroundBlur_3837_12"/>
</filter>
<filter id="filter12_d_3837_12" x="56.168" y="13.2256" width="17.5273" height="22.8213" filterUnits="userSpaceOnUse" color-interpolation-filters="sRGB">
<feFlood flood-opacity="0" result="BackgroundImageFix"/>
<feColorMatrix in="SourceAlpha" type="matrix" values="0 0 0 0 0 0 0 0 0 0 0 0 0 0 0 0 0 0 127 0" result="hardAlpha"/>
<feOffset dy="-1"/>
<feGaussianBlur stdDeviation="2"/>
<feComposite in2="hardAlpha" operator="out"/>
<feColorMatrix type="matrix" values="0 0 0 0 0 0 0 0 0 0 0 0 0 0 0 0 0 0 0.25 0"/>
<feBlend mode="normal" in2="BackgroundImageFix" result="effect1_dropShadow_3837_12"/>
<feBlend mode="normal" in="SourceGraphic" in2="effect1_dropShadow_3837_12" result="shape"/>
</filter>
<filter id="filter13_d_3837_12" x="45.582" y="13.2256" width="17.5273" height="22.8213" filterUnits="userSpaceOnUse" color-interpolation-filters="sRGB">
<feFlood flood-opacity="0" result="BackgroundImageFix"/>
<feColorMatrix in="SourceAlpha" type="matrix" values="0 0 0 0 0 0 0 0 0 0 0 0 0 0 0 0 0 0 127 0" result="hardAlpha"/>
<feOffset dy="-1"/>
<feGaussianBlur stdDeviation="2"/>
<feComposite in2="hardAlpha" operator="out"/>
<feColorMatrix type="matrix" values="0 0 0 0 0 0 0 0 0 0 0 0 0 0 0 0 0 0 0.25 0"/>
<feBlend mode="normal" in2="BackgroundImageFix" result="effect1_dropShadow_3837_12"/>
<feBlend mode="normal" in="SourceGraphic" in2="effect1_dropShadow_3837_12" result="shape"/>
</filter>
<filter id="filter14_d_3837_12" x="60.4043" y="43.6338" width="40.8184" height="40.8184" filterUnits="userSpaceOnUse" color-interpolation-filters="sRGB">
<feFlood flood-opacity="0" result="BackgroundImageFix"/>
<feColorMatrix in="SourceAlpha" type="matrix" values="0 0 0 0 0 0 0 0 0 0 0 0 0 0 0 0 0 0 127 0" result="hardAlpha"/>
<feOffset dy="4"/>
<feGaussianBlur stdDeviation="2"/>
<feComposite in2="hardAlpha" operator="out"/>
<feColorMatrix type="matrix" values="0 0 0 0 0 0 0 0 0 0 0 0 0 0 0 0 0 0 0.25 0"/>
<feBlend mode="normal" in2="BackgroundImageFix" result="effect1_dropShadow_3837_12"/>
<feBlend mode="normal" in="SourceGraphic" in2="effect1_dropShadow_3837_12" result="shape"/>
</filter>
<filter id="filter15_d_3837_12" x="15.9395" y="43.6338" width="40.8184" height="40.8184" filterUnits="userSpaceOnUse" color-interpolation-filters="sRGB">
<feFlood flood-opacity="0" result="BackgroundImageFix"/>
<feColorMatrix in="SourceAlpha" type="matrix" values="0 0 0 0 0 0 0 0 0 0 0 0 0 0 0 0 0 0 127 0" result="hardAlpha"/>
<feOffset dy="4"/>
<feGaussianBlur stdDeviation="2"/>
<feComposite in2="hardAlpha" operator="out"/>
<feColorMatrix type="matrix" values="0 0 0 0 0 0 0 0 0 0 0 0 0 0 0 0 0 0 0.25 0"/>
<feBlend mode="normal" in2="BackgroundImageFix" result="effect1_dropShadow_3837_12"/>
<feBlend mode="normal" in="SourceGraphic" in2="effect1_dropShadow_3837_12" result="shape"/>
</filter>
<clipPath id="clip0_3837_12">
<rect width="116" height="116" rx="26" fill="white"/>
</clipPath>
<clipPath id="clip1_3837_12">
<rect x="8" y="8" width="100" height="100" rx="20" fill="white"/>
</clipPath>
<clipPath id="clip2_3837_12">
<rect x="8" y="8" width="100" height="100" rx="20" fill="white"/>
</clipPath>
</defs>
</svg>
