<svg width="22" height="22" viewBox="0 0 22 22" fill="none" xmlns="http://www.w3.org/2000/svg">
<rect width="22" height="22" rx="1" fill="white"/>
<path d="M11 4.442C13.136 4.442 13.3893 4.45 14.2333 4.48867C16.4013 4.58733 17.414 5.616 17.5127 7.768C17.5513 8.61133 17.5587 8.86467 17.5587 11.0007C17.5587 13.1373 17.5507 13.39 17.5127 14.2333C17.4133 16.3833 16.4033 17.414 14.2333 17.5127C13.3893 17.5513 13.1373 17.5593 11 17.5593C8.864 17.5593 8.61067 17.5513 7.76733 17.5127C5.594 17.4133 4.58667 16.38 4.488 14.2327C4.44933 13.3893 4.44133 13.1367 4.44133 11C4.44133 8.864 4.45 8.61133 4.488 7.76733C4.58733 5.616 5.59733 4.58667 7.76733 4.488C8.61133 4.45 8.864 4.442 11 4.442ZM11 3C8.82733 3 8.55533 3.00933 7.702 3.048C4.79667 3.18133 3.182 4.79333 3.04867 7.70133C3.00933 8.55533 3 8.82733 3 11C3 13.1727 3.00933 13.4453 3.048 14.2987C3.18133 17.204 4.79333 18.8187 7.70133 18.952C8.55533 18.9907 8.82733 19 11 19C13.1727 19 13.4453 18.9907 14.2987 18.952C17.2013 18.8187 18.82 17.2067 18.9513 14.2987C18.9907 13.4453 19 13.1727 19 11C19 8.82733 18.9907 8.55533 18.952 7.702C18.8213 4.79933 17.2073 3.182 14.2993 3.04867C13.4453 3.00933 13.1727 3 11 3ZM11 6.892C8.73133 6.892 6.892 8.73133 6.892 11C6.892 13.2687 8.73133 15.1087 11 15.1087C13.2687 15.1087 15.108 13.2693 15.108 11C15.108 8.73133 13.2687 6.892 11 6.892ZM11 13.6667C9.52733 13.6667 8.33333 12.4733 8.33333 11C8.33333 9.52733 9.52733 8.33333 11 8.33333C12.4727 8.33333 13.6667 9.52733 13.6667 11C13.6667 12.4733 12.4727 13.6667 11 13.6667ZM15.2707 5.77C14.74 5.77 14.31 6.2 14.31 6.73C14.31 7.26 14.74 7.69 15.2707 7.69C15.8007 7.69 16.23 7.26 16.23 6.73C16.23 6.2 15.8007 5.77 15.2707 5.77Z" fill="black"/>
<path d="M5 5L3.5 9L4 15L5 17L6.5 18H15L18 16V11.5V8.5L17.5 5L12.5 4H8L5 5Z" fill="black"/>
<circle cx="11" cy="11" r="3" fill="white"/>
<circle cx="15" cy="7" r="1" fill="white"/>
</svg>
