<svg width="116" height="116" viewBox="0 0 116 116" fill="none" xmlns="http://www.w3.org/2000/svg">
<rect width="116" height="116" rx="26" fill="#212215"/>
<g clip-path="url(#clip0_3775_7266)">
<rect x="8" y="8" width="100" height="100" rx="20" fill="#61521C"/>
<path d="M54.144 94.644C49.084 94.644 45.542 92.6047 43.518 88.526L48.992 85.398C50.004 87.422 51.7213 88.434 54.144 88.434C55.8 88.434 57.042 88.0507 57.87 87.284C58.7287 86.4867 59.158 85.3827 59.158 83.972V61.8H65.46V83.972C65.46 87.3453 64.402 89.9673 62.286 91.838C60.2007 93.7087 57.4867 94.644 54.144 94.644ZM82.1735 94.644C79.0148 94.644 76.3468 93.9387 74.1695 92.528C71.9921 91.1173 70.4435 89.17 69.5235 86.686L74.9515 83.512C76.2088 86.7933 78.6775 88.434 82.3575 88.434C84.0748 88.434 85.3628 88.1273 86.2215 87.514C87.0801 86.9007 87.5095 86.0727 87.5095 85.03C87.5095 83.8953 87.0035 83.0213 85.9915 82.408C84.9795 81.764 83.1701 81.074 80.5635 80.338C77.7421 79.4793 75.5188 78.4827 73.8935 77.348C71.8695 75.8453 70.8575 73.6373 70.8575 70.724C70.8575 67.78 71.8848 65.4647 73.9395 63.778C75.9941 62.03 78.4935 61.156 81.4375 61.156C84.0135 61.156 86.2981 61.7847 88.2915 63.042C90.2848 64.2993 91.8335 66.078 92.9375 68.378L87.6015 71.46C86.3135 68.7 84.2588 67.32 81.4375 67.32C80.1495 67.32 79.1221 67.6267 78.3555 68.24C77.5888 68.8227 77.2055 69.5893 77.2055 70.54C77.2055 71.552 77.6195 72.38 78.4475 73.024C79.3675 73.668 80.9928 74.3427 83.3235 75.048L85.5315 75.784C85.9301 75.9067 86.6201 76.1673 87.6015 76.566C88.5215 76.9033 89.1961 77.2253 89.6255 77.532C91.1281 78.452 92.1401 79.4027 92.6615 80.384C93.4588 81.672 93.8575 83.19 93.8575 84.938C93.8575 87.9127 92.7688 90.274 90.5915 92.022C88.4141 93.77 85.6081 94.644 82.1735 94.644Z" fill="black"/>
<g clip-path="url(#clip1_3775_7266)">
<rect x="14" y="14" width="94" height="94" rx="18" fill="#DBC928"/>
<path d="M58.144 96.644C53.084 96.644 49.542 94.6047 47.518 90.526L52.992 87.398C54.004 89.422 55.7213 90.434 58.144 90.434C59.8 90.434 61.042 90.0507 61.87 89.284C62.7287 88.4867 63.158 87.3827 63.158 85.972V63.8H69.46V85.972C69.46 89.3453 68.402 91.9673 66.286 93.838C64.2007 95.7087 61.4867 96.644 58.144 96.644ZM86.1735 96.644C83.0148 96.644 80.3468 95.9387 78.1695 94.528C75.9921 93.1173 74.4435 91.17 73.5235 88.686L78.9515 85.512C80.2088 88.7933 82.6775 90.434 86.3575 90.434C88.0748 90.434 89.3628 90.1273 90.2215 89.514C91.0801 88.9007 91.5095 88.0727 91.5095 87.03C91.5095 85.8953 91.0035 85.0213 89.9915 84.408C88.9795 83.764 87.1701 83.074 84.5635 82.338C81.7421 81.4793 79.5188 80.4827 77.8935 79.348C75.8695 77.8453 74.8575 75.6373 74.8575 72.724C74.8575 69.78 75.8848 67.4647 77.9395 65.778C79.9941 64.03 82.4935 63.156 85.4375 63.156C88.0135 63.156 90.2981 63.7847 92.2915 65.042C94.2848 66.2993 95.8335 68.078 96.9375 70.378L91.6015 73.46C90.3135 70.7 88.2588 69.32 85.4375 69.32C84.1495 69.32 83.1221 69.6267 82.3555 70.24C81.5888 70.8227 81.2055 71.5893 81.2055 72.54C81.2055 73.552 81.6195 74.38 82.4475 75.024C83.3675 75.668 84.9928 76.3427 87.3235 77.048L89.5315 77.784C89.9301 77.9067 90.6201 78.1673 91.6015 78.566C92.5215 78.9033 93.1961 79.2253 93.6255 79.532C95.1281 80.452 96.1401 81.4027 96.6615 82.384C97.4588 83.672 97.8575 85.19 97.8575 86.938C97.8575 89.9127 96.7688 92.274 94.5915 94.022C92.4141 95.77 89.6081 96.644 86.1735 96.644Z" fill="black"/>
</g>
</g>
<defs>
<clipPath id="clip0_3775_7266">
<rect x="8" y="8" width="100" height="100" rx="20" fill="white"/>
</clipPath>
<clipPath id="clip1_3775_7266">
<rect x="14" y="14" width="94" height="94" rx="18" fill="white"/>
</clipPath>
</defs>
</svg>
