<svg width="20" height="20" viewBox="0 0 20 20" fill="none" xmlns="http://www.w3.org/2000/svg">
<path d="M0 1.5C0 0.671573 0.671573 0 1.5 0H18.5C19.3284 0 20 0.671573 20 1.5C20 2.32843 19.3284 3 18.5 3H1.5C0.671573 3 0 2.32843 0 1.5Z" fill="black"/>
<path d="M18.5 20C17.6716 20 17 19.3284 17 18.5L17 1.5C17 0.671574 17.6716 8.00843e-09 18.5 1.78873e-08C19.3284 2.77662e-08 20 0.671574 20 1.5L20 18.5C20 19.3284 19.3284 20 18.5 20Z" fill="black"/>
<path d="M7.06754 13.3789C6.47795 12.797 6.47177 11.8472 7.05373 11.2577L16.1252 2.06733C16.7072 1.47775 17.6569 1.47156 18.2465 2.05353C18.8361 2.63549 18.8423 3.58521 18.2603 4.1748L9.18882 13.3651C8.60685 13.9547 7.65713 13.9609 7.06754 13.3789Z" fill="black"/>
</svg>
