<svg width="209" height="30" viewBox="0 0 209 30" fill="none" xmlns="http://www.w3.org/2000/svg">
<path d="M15.8061 7.33398H11.1797V16.2085H15.8061V7.33398Z" fill="white"/>
<path d="M28.5463 7.33398H23.9199V16.2085H28.5463V7.33398Z" fill="white"/>
<path d="M0 23.6226L0 10.1797C0 8.01067 1.79591 6.24473 4.00176 6.24473L4.00176 27.5576C1.79591 27.5576 0 25.7917 0 23.6226Z" fill="white"/>
<path d="M18.01 27.5576L4.33893 27.5576C2.13308 27.5576 0.337174 25.7917 0.337174 23.6226L22.0117 23.6226C22.0117 25.7917 20.2158 27.5576 18.01 27.5576Z" fill="white"/>
<path d="M36.9922 3.09207V13.6302C36.9922 15.4345 35.5021 16.9061 33.6606 16.9061V1.63965L35.5151 1.63965C36.3285 1.63965 36.9922 2.29228 36.9922 3.09207Z" fill="white"/>
<path d="M23.4409 0H33.6698C35.5048 0 37.0013 1.46522 37.0013 3.27595H20.1094C20.1094 1.46522 21.5995 0 23.4409 0Z" fill="white"/>
<path d="M15.8061 7.33398H11.1797V16.2085H15.8061V7.33398Z" fill="white"/>
<path d="M28.5463 7.33398H23.9199V16.2085H28.5463V7.33398Z" fill="white"/>
<path d="M0 23.6226L0 10.1797C0 8.01067 1.79591 6.24473 4.00176 6.24473L4.00176 27.5576C1.79591 27.5576 0 25.7917 0 23.6226Z" fill="white"/>
<path d="M18.01 27.5576L4.33893 27.5576C2.13308 27.5576 0.337174 25.7917 0.337174 23.6226L22.0117 23.6226C22.0117 25.7917 20.2158 27.5576 18.01 27.5576Z" fill="white"/>
<path d="M36.9922 3.09207V13.6302C36.9922 15.4345 35.5021 16.9061 33.6606 16.9061V1.63965L35.5151 1.63965C36.3285 1.63965 36.9922 2.29228 36.9922 3.09207Z" fill="white"/>
<path d="M23.4409 0H33.6698C35.5048 0 37.0013 1.46522 37.0013 3.27595H20.1094C20.1094 1.46522 21.5995 0 23.4409 0Z" fill="white"/>
<path d="M56.9482 15.928L58.3782 19.802H58.5342L58.1182 15.85V5.502C58.1182 5.22467 58.1615 5.04267 58.2482 4.956C58.3522 4.852 58.5428 4.8 58.8202 4.8H60.1982V22.298C60.1982 22.5753 60.1462 22.766 60.0422 22.87C59.9555 22.9567 59.7735 23 59.4962 23H58.1442L53.3342 12.08L51.8782 7.894H51.7222L52.1122 11.534V22.298C52.1122 22.5753 52.0602 22.766 51.9562 22.87C51.8695 22.9567 51.6875 23 51.4102 23H50.0322V5.502C50.0322 5.22467 50.0755 5.04267 50.1622 4.956C50.2662 4.852 50.4568 4.8 50.7342 4.8H52.1382L56.9482 15.928ZM66.0262 4.8V22.298C66.0262 22.5753 65.9742 22.766 65.8702 22.87C65.7836 22.9567 65.6016 23 65.3242 23H63.9462V5.502C63.9462 5.22467 63.9896 5.04267 64.0762 4.956C64.1802 4.852 64.3709 4.8 64.6482 4.8H66.0262ZM71.8407 4.8V22.298C71.8407 22.5753 71.7887 22.766 71.6847 22.87C71.598 22.9567 71.416 23 71.1387 23H69.7607V5.502C69.7607 5.22467 69.804 5.04267 69.8907 4.956C69.9947 4.852 70.1853 4.8 70.4627 4.8H71.8407ZM79.3807 23H78.0807C77.8033 23 77.5433 22.948 77.3007 22.844C77.058 22.7227 76.876 22.5407 76.7547 22.298L72.8807 14.472V12.626L76.5467 5.502C76.668 5.25933 76.85 5.086 77.0927 4.982C77.3353 4.86067 77.5953 4.8 77.8727 4.8H78.9647L74.4407 13.406L79.3807 23ZM83.7235 4.8V22.298C83.7235 22.5753 83.6715 22.766 83.5675 22.87C83.4808 22.9567 83.2988 23 83.0215 23H81.6435V5.502C81.6435 5.22467 81.6868 5.04267 81.7735 4.956C81.8775 4.852 82.0682 4.8 82.3455 4.8H83.7235ZM95.9339 4.8V5.606C95.9339 5.88333 95.8819 6.074 95.7779 6.178C95.6913 6.26467 95.5093 6.308 95.2319 6.308H92.1119V22.298C92.1119 22.5753 92.0599 22.766 91.9559 22.87C91.8693 22.9567 91.6873 23 91.4099 23H90.0319V6.308H86.2619V5.502C86.2619 5.22467 86.3053 5.04267 86.3919 4.956C86.4959 4.852 86.6866 4.8 86.9639 4.8H95.9339ZM100.507 14.316V22.298C100.507 22.5753 100.455 22.766 100.351 22.87C100.264 22.9567 100.082 23 99.8047 23H98.4267V7.27C98.4267 6.36867 98.6087 5.736 98.9727 5.372C99.354 4.99067 99.9954 4.8 100.897 4.8H104.641C105.542 4.8 106.175 4.99067 106.539 5.372C106.92 5.736 107.111 6.36867 107.111 7.27V22.298C107.111 22.5753 107.059 22.766 106.955 22.87C106.868 22.9567 106.686 23 106.409 23H105.031V7.79C105.031 7.28733 104.961 6.92333 104.823 6.698C104.701 6.47267 104.415 6.34267 103.965 6.308H101.573C101.105 6.34267 100.81 6.47267 100.689 6.698C100.567 6.92333 100.507 7.28733 100.507 7.79V12.808H103.991V13.614C103.991 13.8913 103.947 14.082 103.861 14.186C103.791 14.2727 103.618 14.316 103.341 14.316H100.507ZM123.149 16.682C123.028 16.942 122.907 17.124 122.785 17.228C122.681 17.332 122.517 17.384 122.291 17.384H121.459L117.845 7.868H117.689L117.897 11.014L118.027 22.298C118.027 22.5753 117.975 22.766 117.871 22.87C117.785 22.9567 117.603 23 117.325 23H115.895V5.502C115.895 5.22467 115.939 5.04267 116.025 4.956C116.129 4.852 116.32 4.8 116.597 4.8H118.339L121.667 13.276L122.239 15.434H122.395L122.993 13.276L126.269 5.502C126.373 5.25933 126.495 5.086 126.633 4.982C126.772 4.86067 126.971 4.8 127.231 4.8H128.791V22.298C128.791 22.5753 128.739 22.766 128.635 22.87C128.549 22.9567 128.367 23 128.089 23H126.711V11.014L126.945 7.868H126.789L123.149 16.682ZM134.606 14.316V22.298C134.606 22.5753 134.554 22.766 134.45 22.87C134.364 22.9567 134.182 23 133.904 23H132.526V7.27C132.526 6.36867 132.708 5.736 133.072 5.372C133.454 4.99067 134.095 4.8 134.996 4.8H138.74C139.642 4.8 140.274 4.99067 140.638 5.372C141.02 5.736 141.21 6.36867 141.21 7.27V22.298C141.21 22.5753 141.158 22.766 141.054 22.87C140.968 22.9567 140.786 23 140.508 23H139.13V7.79C139.13 7.28733 139.061 6.92333 138.922 6.698C138.801 6.47267 138.515 6.34267 138.064 6.308H135.672C135.204 6.34267 134.91 6.47267 134.788 6.698C134.667 6.92333 134.606 7.28733 134.606 7.79V12.808H138.09V13.614C138.09 13.8913 138.047 14.082 137.96 14.186C137.891 14.2727 137.718 14.316 137.44 14.316H134.606ZM144.917 23V5.502C144.917 5.22467 144.96 5.04267 145.047 4.956C145.151 4.852 145.342 4.8 145.619 4.8H146.997V21.492H152.483V22.298C152.483 22.5753 152.431 22.766 152.327 22.87C152.24 22.9567 152.058 23 151.781 23H144.917ZM157.077 14.316V22.298C157.077 22.5753 157.025 22.766 156.921 22.87C156.834 22.9567 156.652 23 156.375 23H154.997V7.27C154.997 6.36867 155.179 5.736 155.543 5.372C155.924 4.99067 156.566 4.8 157.467 4.8H161.211C162.112 4.8 162.745 4.99067 163.109 5.372C163.49 5.736 163.681 6.36867 163.681 7.27V22.298C163.681 22.5753 163.629 22.766 163.525 22.87C163.438 22.9567 163.256 23 162.979 23H161.601V7.79C161.601 7.28733 161.532 6.92333 161.393 6.698C161.272 6.47267 160.986 6.34267 160.535 6.308H158.143C157.675 6.34267 157.38 6.47267 157.259 6.698C157.138 6.92333 157.077 7.28733 157.077 7.79V12.808H160.561V13.614C160.561 13.8913 160.518 14.082 160.431 14.186C160.362 14.2727 160.188 14.316 159.911 14.316H157.077ZM176.592 4.8V22.298C176.592 22.5753 176.54 22.766 176.436 22.87C176.349 22.9567 176.167 23 175.89 23H174.512V5.502C174.512 5.22467 174.555 5.04267 174.642 4.956C174.746 4.852 174.936 4.8 175.214 4.8H176.592ZM169.468 14.316V22.298C169.468 22.5753 169.416 22.766 169.312 22.87C169.225 22.9567 169.043 23 168.766 23H167.388V5.502C167.388 5.22467 167.431 5.04267 167.518 4.956C167.622 4.852 167.812 4.8 168.09 4.8H169.468V12.808H173.472V13.614C173.472 13.8913 173.428 14.082 173.342 14.186C173.272 14.2727 173.099 14.316 172.822 14.316H169.468ZM182.365 20.01C182.365 20.5473 182.434 20.9287 182.573 21.154C182.712 21.3793 183.05 21.492 183.587 21.492H185.927C186.464 21.492 186.802 21.3793 186.941 21.154C187.08 20.9287 187.149 20.5473 187.149 20.01V7.79C187.149 7.25267 187.08 6.87133 186.941 6.646C186.802 6.42067 186.464 6.308 185.927 6.308H183.587C183.05 6.308 182.712 6.42067 182.573 6.646C182.434 6.87133 182.365 7.25267 182.365 7.79V20.01ZM180.285 7.27C180.285 6.36867 180.467 5.736 180.831 5.372C181.212 4.99067 181.854 4.8 182.755 4.8H186.759C187.66 4.8 188.293 4.99067 188.657 5.372C189.038 5.736 189.229 6.36867 189.229 7.27V20.53C189.229 21.4313 189.038 22.0727 188.657 22.454C188.293 22.818 187.66 23 186.759 23H182.755C181.854 23 181.212 22.818 180.831 22.454C180.467 22.0727 180.285 21.4313 180.285 20.53V7.27ZM191.865 5.502C191.761 5.034 191.934 4.8 192.385 4.8H193.815L196.597 17.722L196.961 20.608H197.117L197.481 17.722L199.951 5.502C200.02 5.22467 200.115 5.04267 200.237 4.956C200.358 4.852 200.557 4.8 200.835 4.8H202.135L198.391 22.298C198.321 22.5753 198.226 22.766 198.105 22.87C198.001 22.9567 197.81 23 197.533 23H195.609L191.865 5.502Z" fill="white"/>
</svg>
