<svg width="136" height="136" viewBox="0 0 136 136" fill="none" xmlns="http://www.w3.org/2000/svg">
<g clip-path="url(#clip0_3328_1113)">
<rect width="136" height="136" rx="20" fill="#60331B"/>
<path d="M22 105.983C16 107.983 2.83333 106.816 -3 105.983V127.482L5.5 138.982L29.5 136.982L69 135.482C67.5 132.649 64.1 126.482 62.5 124.482C60.9 122.482 59.5 111.316 59 105.983C58 107.483 50 107.483 47.5 106.983C45 106.483 29.5 103.483 22 105.983Z" fill="#472311"/>
<path d="M79.5 117.5L73.5 136H91.5L87 127.5L79.5 117.5Z" fill="#472311"/>
<g filter="url(#filter0_d_3328_1113)">
<circle cx="93.5" cy="35.5" r="16.5" fill="#B9611E" fill-opacity="0.1" shape-rendering="crispEdges"/>
<circle cx="93.5" cy="35.5" r="16.5" fill="#B9611E" fill-opacity="0.1" shape-rendering="crispEdges"/>
</g>
<circle cx="94.5" cy="33.5" r="23.5" fill="#B9611E" fill-opacity="0.1"/>
<g filter="url(#filter1_d_3328_1113)">
<circle cx="94.5" cy="35.5" r="20.5" fill="#B9611E" fill-opacity="0.1" shape-rendering="crispEdges"/>
</g>
<path d="M70.5 36.5L62.5 44.5L75.5 49.5L81.5 64.5H109.5L107 55.5V53.5L88.5 42.5L70.5 36.5Z" fill="#60331B"/>
<g filter="url(#filter2_d_3328_1113)">
<path d="M80.1646 107.673C82.6604 120.632 98.5369 141.291 106.163 150C93.2679 143.311 83.4578 127.356 80.1646 120.214L79.1245 123.872C78.6046 133.278 76.5247 135.891 72.8849 136.936C69.2451 137.981 65.6052 133.8 61.9654 128.575C58.3256 123.349 57.8057 112.898 57.8057 105.06C57.8057 98.7888 60.5788 88.5117 61.9654 84.157C60.9255 83.2861 58.4296 80.8127 56.7657 77.8863C54.6858 74.2284 48.9661 57.5064 48.4463 54.8936C47.9265 52.2808 38.5668 41.8296 35.967 36.0814C33.3671 30.3332 35.967 23.54 44.2865 23.0174C50.9422 22.5994 62.3122 29.8107 67.1653 33.4686C82.7644 35.0362 85.8843 35.5589 103.563 47.5778C121.242 59.5967 132.682 81.0217 133.722 83.6346C134.762 86.2474 149.841 119.691 152.961 120.736C155.457 121.573 163.36 124.917 167 126.485V134.323C165.44 130.665 152.961 127.007 150.881 126.485C149.217 126.067 146.374 124.569 145.161 123.872L138.402 110.285C135.108 102.969 127.17 85.8293 121.762 75.7961C115.003 63.2547 99.4036 52.2809 91.084 46.5327C82.7645 40.7845 69.7652 39.2168 67.1653 39.2168C64.5653 39.2168 62.4856 38.1717 61.4456 36.604C60.4057 35.0363 56.7659 33.9913 48.4463 29.8109C41.7907 26.4665 39.7801 29.8109 39.6068 31.9011C39.7801 33.4688 40.9587 37.3357 44.2865 40.2621C47.6144 43.1884 52.2594 52.6294 54.166 56.9841C58.3258 74.2286 64.0455 78.9316 65.0854 79.9768C65.9174 80.8129 66.8186 83.1121 67.1653 84.1573C56.7658 115.929 65.6053 128.749 71.325 131.188C71.741 116.138 77.3914 109.24 80.1646 107.673Z" fill="#BF641E"/>
</g>
<path d="M72.9232 60C72.9232 57.544 68.9744 52.8367 67 50.7901C68.3163 49.9373 71.5411 49.0504 73.9104 52.3251C76.2797 55.5997 74.2395 58.8061 72.9232 60Z" fill="#EF771C"/>
<g filter="url(#filter3_d_3328_1113)">
<path d="M22 105.769C18.4 106.969 4.83333 106.269 -1 105.269L-2 107.769C3.66667 108.602 18 109 25.5 106.5C28.7644 105.412 36 105.769 43 106.001C38.2 104.801 30.5 104 22 105.769Z" fill="#834312"/>
</g>
<g filter="url(#filter4_d_3328_1113)">
<path d="M33 115C30.6 115.8 25 114.667 22.5 114C25.1667 115.333 31.3344 117.366 33.5 116.5C36 115.5 43 114.5 47 115C45.5 114 36 114 33 115Z" fill="#834312"/>
</g>
<g filter="url(#filter5_d_3328_1113)">
<path d="M30.5 126.5C18 131 2.22449 126.724 -4 125C2.63946 128.447 19.5 132 34 128.5C40.4953 126.933 47.0408 126.293 57 127.585C53.2653 125 38.0416 123.786 30.5 126.5Z" fill="#834312"/>
</g>
<g filter="url(#filter6_f_3328_1113)">
<path d="M39.632 70.7H43.75V91H39.777V77.834L34.064 87.259H33.6L27.887 77.863V91H23.885V70.7H28.003L33.832 80.299L39.632 70.7ZM53.5935 86.244L56.8125 76.5H60.8145L55.5365 91C54.7825 93.088 53.7771 94.596 52.5205 95.524C51.2831 96.4713 49.7365 96.8967 47.8805 96.8V93.32C48.8665 93.3393 49.6591 93.1267 50.2585 92.682C50.8578 92.2373 51.3315 91.522 51.6795 90.536L45.7345 76.5H49.8235L53.5935 86.244ZM69.1334 91.406C67.142 91.406 65.46 90.9613 64.0874 90.072C62.7147 89.1827 61.7384 87.955 61.1584 86.389L64.5804 84.388C65.373 86.4567 66.9294 87.491 69.2494 87.491C70.3321 87.491 71.1441 87.2977 71.6854 86.911C72.2267 86.5243 72.4974 86.0023 72.4974 85.345C72.4974 84.6297 72.1784 84.0787 71.5404 83.692C70.9024 83.286 69.7617 82.851 68.1184 82.387C66.3397 81.8457 64.938 81.2173 63.9134 80.502C62.6374 79.5547 61.9994 78.1627 61.9994 76.326C61.9994 74.47 62.647 73.0103 63.9424 71.947C65.2377 70.845 66.8134 70.294 68.6694 70.294C70.2934 70.294 71.7337 70.6903 72.9904 71.483C74.2471 72.2757 75.2234 73.397 75.9194 74.847L72.5554 76.79C71.7434 75.05 70.4481 74.18 68.6694 74.18C67.8574 74.18 67.2097 74.3733 66.7264 74.76C66.243 75.1273 66.0014 75.6107 66.0014 76.21C66.0014 76.848 66.2624 77.37 66.7844 77.776C67.3644 78.182 68.3891 78.6073 69.8584 79.052L71.2504 79.516C71.5017 79.5933 71.9367 79.7577 72.5554 80.009C73.1354 80.2217 73.5607 80.4247 73.8314 80.618C74.7787 81.198 75.4167 81.7973 75.7454 82.416C76.2481 83.228 76.4994 84.185 76.4994 85.287C76.4994 87.1623 75.8131 88.651 74.4404 89.753C73.0677 90.855 71.2987 91.406 69.1334 91.406ZM99.123 80.85C99.123 83.46 98.2917 85.7413 96.629 87.694L98.717 89.869L95.875 92.392L93.671 90.101C92.105 90.971 90.4037 91.406 88.567 91.406C85.667 91.406 83.1827 90.391 81.114 88.361C79.0647 86.3117 78.04 83.808 78.04 80.85C78.04 77.892 79.0647 75.398 81.114 73.368C83.1633 71.3187 85.6477 70.294 88.567 70.294C91.4863 70.294 93.9707 71.3187 96.02 73.368C98.0887 75.398 99.123 77.892 99.123 80.85ZM88.567 87.491C89.3403 87.491 90.0943 87.3653 90.829 87.114L87.494 83.634L90.336 81.111L93.903 84.823C94.715 83.663 95.121 82.3387 95.121 80.85C95.121 78.9167 94.4927 77.3217 93.236 76.065C91.9793 74.8083 90.423 74.18 88.567 74.18C86.711 74.18 85.1547 74.8083 83.898 76.065C82.6413 77.3217 82.013 78.9167 82.013 80.85C82.013 82.764 82.6413 84.3493 83.898 85.606C85.1547 86.8627 86.711 87.491 88.567 87.491ZM106.079 70.7V87.172H113.822V91H102.077V70.7H106.079Z" fill="#0A0A09" fill-opacity="0.85"/>
</g>
<path d="M39.632 70.7H43.75V91H39.777V77.834L34.064 87.259H33.6L27.887 77.863V91H23.885V70.7H28.003L33.832 80.299L39.632 70.7ZM53.5935 86.244L56.8125 76.5H60.8145L55.5365 91C54.7825 93.088 53.7771 94.596 52.5205 95.524C51.2831 96.4713 49.7365 96.8967 47.8805 96.8V93.32C48.8665 93.3393 49.6591 93.1267 50.2585 92.682C50.8578 92.2373 51.3315 91.522 51.6795 90.536L45.7345 76.5H49.8235L53.5935 86.244ZM69.1334 91.406C67.142 91.406 65.46 90.9613 64.0874 90.072C62.7147 89.1827 61.7384 87.955 61.1584 86.389L64.5804 84.388C65.373 86.4567 66.9294 87.491 69.2494 87.491C70.3321 87.491 71.1441 87.2977 71.6854 86.911C72.2267 86.5243 72.4974 86.0023 72.4974 85.345C72.4974 84.6297 72.1784 84.0787 71.5404 83.692C70.9024 83.286 69.7617 82.851 68.1184 82.387C66.3397 81.8457 64.938 81.2173 63.9134 80.502C62.6374 79.5547 61.9994 78.1627 61.9994 76.326C61.9994 74.47 62.647 73.0103 63.9424 71.947C65.2377 70.845 66.8134 70.294 68.6694 70.294C70.2934 70.294 71.7337 70.6903 72.9904 71.483C74.2471 72.2757 75.2234 73.397 75.9194 74.847L72.5554 76.79C71.7434 75.05 70.4481 74.18 68.6694 74.18C67.8574 74.18 67.2097 74.3733 66.7264 74.76C66.243 75.1273 66.0014 75.6107 66.0014 76.21C66.0014 76.848 66.2624 77.37 66.7844 77.776C67.3644 78.182 68.3891 78.6073 69.8584 79.052L71.2504 79.516C71.5017 79.5933 71.9367 79.7577 72.5554 80.009C73.1354 80.2217 73.5607 80.4247 73.8314 80.618C74.7787 81.198 75.4167 81.7973 75.7454 82.416C76.2481 83.228 76.4994 84.185 76.4994 85.287C76.4994 87.1623 75.8131 88.651 74.4404 89.753C73.0677 90.855 71.2987 91.406 69.1334 91.406ZM99.123 80.85C99.123 83.46 98.2917 85.7413 96.629 87.694L98.717 89.869L95.875 92.392L93.671 90.101C92.105 90.971 90.4037 91.406 88.567 91.406C85.667 91.406 83.1827 90.391 81.114 88.361C79.0647 86.3117 78.04 83.808 78.04 80.85C78.04 77.892 79.0647 75.398 81.114 73.368C83.1633 71.3187 85.6477 70.294 88.567 70.294C91.4863 70.294 93.9707 71.3187 96.02 73.368C98.0887 75.398 99.123 77.892 99.123 80.85ZM88.567 87.491C89.3403 87.491 90.0943 87.3653 90.829 87.114L87.494 83.634L90.336 81.111L93.903 84.823C94.715 83.663 95.121 82.3387 95.121 80.85C95.121 78.9167 94.4927 77.3217 93.236 76.065C91.9793 74.8083 90.423 74.18 88.567 74.18C86.711 74.18 85.1547 74.8083 83.898 76.065C82.6413 77.3217 82.013 78.9167 82.013 80.85C82.013 82.764 82.6413 84.3493 83.898 85.606C85.1547 86.8627 86.711 87.491 88.567 87.491ZM106.079 70.7V87.172H113.822V91H102.077V70.7H106.079Z" fill="white"/>
</g>
<rect x="0.5" y="0.5" width="135" height="135" rx="19.5" stroke="#EF771C"/>
<defs>
<filter id="filter0_d_3328_1113" x="73" y="19" width="41" height="41" filterUnits="userSpaceOnUse" color-interpolation-filters="sRGB">
<feFlood flood-opacity="0" result="BackgroundImageFix"/>
<feColorMatrix in="SourceAlpha" type="matrix" values="0 0 0 0 0 0 0 0 0 0 0 0 0 0 0 0 0 0 127 0" result="hardAlpha"/>
<feOffset dy="4"/>
<feGaussianBlur stdDeviation="2"/>
<feComposite in2="hardAlpha" operator="out"/>
<feColorMatrix type="matrix" values="0 0 0 0 0 0 0 0 0 0 0 0 0 0 0 0 0 0 0.25 0"/>
<feBlend mode="normal" in2="BackgroundImageFix" result="effect1_dropShadow_3328_1113"/>
<feBlend mode="normal" in="SourceGraphic" in2="effect1_dropShadow_3328_1113" result="shape"/>
</filter>
<filter id="filter1_d_3328_1113" x="70" y="15" width="49" height="49" filterUnits="userSpaceOnUse" color-interpolation-filters="sRGB">
<feFlood flood-opacity="0" result="BackgroundImageFix"/>
<feColorMatrix in="SourceAlpha" type="matrix" values="0 0 0 0 0 0 0 0 0 0 0 0 0 0 0 0 0 0 127 0" result="hardAlpha"/>
<feOffset dy="4"/>
<feGaussianBlur stdDeviation="2"/>
<feComposite in2="hardAlpha" operator="out"/>
<feColorMatrix type="matrix" values="0 0 0 0 0 0 0 0 0 0 0 0 0 0 0 0 0 0 0.25 0"/>
<feBlend mode="normal" in2="BackgroundImageFix" result="effect1_dropShadow_3328_1113"/>
<feBlend mode="normal" in="SourceGraphic" in2="effect1_dropShadow_3328_1113" result="shape"/>
</filter>
<filter id="filter2_d_3328_1113" x="31" y="23" width="140" height="135" filterUnits="userSpaceOnUse" color-interpolation-filters="sRGB">
<feFlood flood-opacity="0" result="BackgroundImageFix"/>
<feColorMatrix in="SourceAlpha" type="matrix" values="0 0 0 0 0 0 0 0 0 0 0 0 0 0 0 0 0 0 127 0" result="hardAlpha"/>
<feOffset dy="4"/>
<feGaussianBlur stdDeviation="2"/>
<feComposite in2="hardAlpha" operator="out"/>
<feColorMatrix type="matrix" values="0 0 0 0 0 0 0 0 0 0 0 0 0 0 0 0 0 0 0.25 0"/>
<feBlend mode="normal" in2="BackgroundImageFix" result="effect1_dropShadow_3328_1113"/>
<feBlend mode="normal" in="SourceGraphic" in2="effect1_dropShadow_3328_1113" result="shape"/>
</filter>
<filter id="filter3_d_3328_1113" x="-6" y="104.739" width="53" height="11.667" filterUnits="userSpaceOnUse" color-interpolation-filters="sRGB">
<feFlood flood-opacity="0" result="BackgroundImageFix"/>
<feColorMatrix in="SourceAlpha" type="matrix" values="0 0 0 0 0 0 0 0 0 0 0 0 0 0 0 0 0 0 127 0" result="hardAlpha"/>
<feOffset dy="4"/>
<feGaussianBlur stdDeviation="2"/>
<feComposite in2="hardAlpha" operator="out"/>
<feColorMatrix type="matrix" values="0 0 0 0 0 0 0 0 0 0 0 0 0 0 0 0 0 0 0.25 0"/>
<feBlend mode="normal" in2="BackgroundImageFix" result="effect1_dropShadow_3328_1113"/>
<feBlend mode="normal" in="SourceGraphic" in2="effect1_dropShadow_3328_1113" result="shape"/>
</filter>
<filter id="filter4_d_3328_1113" x="18.5" y="114" width="32.5" height="10.708" filterUnits="userSpaceOnUse" color-interpolation-filters="sRGB">
<feFlood flood-opacity="0" result="BackgroundImageFix"/>
<feColorMatrix in="SourceAlpha" type="matrix" values="0 0 0 0 0 0 0 0 0 0 0 0 0 0 0 0 0 0 127 0" result="hardAlpha"/>
<feOffset dy="4"/>
<feGaussianBlur stdDeviation="2"/>
<feComposite in2="hardAlpha" operator="out"/>
<feColorMatrix type="matrix" values="0 0 0 0 0 0 0 0 0 0 0 0 0 0 0 0 0 0 0.25 0"/>
<feBlend mode="normal" in2="BackgroundImageFix" result="effect1_dropShadow_3328_1113"/>
<feBlend mode="normal" in="SourceGraphic" in2="effect1_dropShadow_3328_1113" result="shape"/>
</filter>
<filter id="filter5_d_3328_1113" x="-8" y="124.965" width="69" height="12.9756" filterUnits="userSpaceOnUse" color-interpolation-filters="sRGB">
<feFlood flood-opacity="0" result="BackgroundImageFix"/>
<feColorMatrix in="SourceAlpha" type="matrix" values="0 0 0 0 0 0 0 0 0 0 0 0 0 0 0 0 0 0 127 0" result="hardAlpha"/>
<feOffset dy="4"/>
<feGaussianBlur stdDeviation="2"/>
<feComposite in2="hardAlpha" operator="out"/>
<feColorMatrix type="matrix" values="0 0 0 0 0 0 0 0 0 0 0 0 0 0 0 0 0 0 0.25 0"/>
<feBlend mode="normal" in2="BackgroundImageFix" result="effect1_dropShadow_3328_1113"/>
<feBlend mode="normal" in="SourceGraphic" in2="effect1_dropShadow_3328_1113" result="shape"/>
</filter>
<filter id="filter6_f_3328_1113" x="-7.61523" y="38.7939" width="152.938" height="89.6514" filterUnits="userSpaceOnUse" color-interpolation-filters="sRGB">
<feFlood flood-opacity="0" result="BackgroundImageFix"/>
<feBlend mode="normal" in="SourceGraphic" in2="BackgroundImageFix" result="shape"/>
<feGaussianBlur stdDeviation="15.75" result="effect1_foregroundBlur_3328_1113"/>
</filter>
<clipPath id="clip0_3328_1113">
<rect width="136" height="136" rx="20" fill="white"/>
</clipPath>
</defs>
</svg>
