<svg width="116" height="116" viewBox="0 0 116 116" fill="none" xmlns="http://www.w3.org/2000/svg">
<g clip-path="url(#clip0_3837_14)">
<rect width="116" height="116" rx="26" fill="url(#paint0_linear_3837_14)"/>
<g clip-path="url(#clip1_3837_14)">
<rect x="8" y="8" width="100" height="100" rx="20" fill="#60331B"/>
<g filter="url(#filter0_f_3837_14)">
<g clip-path="url(#clip2_3837_14)">
<rect x="4" y="-5" width="99" height="99" rx="20" fill="#60331B"/>
<g filter="url(#filter1_d_3837_14)">
<circle cx="97.5" cy="30.5" r="16.5" fill="#B9611E" fill-opacity="0.1" shape-rendering="crispEdges"/>
<circle cx="97.5" cy="30.5" r="16.5" fill="#B9611E" fill-opacity="0.1" shape-rendering="crispEdges"/>
</g>
<circle cx="98.5" cy="28.5" r="23.5" fill="#B9611E" fill-opacity="0.1"/>
<g filter="url(#filter2_d_3837_14)">
<circle cx="98.5" cy="30.5" r="20.5" fill="#B9611E" fill-opacity="0.1" shape-rendering="crispEdges"/>
</g>
<path d="M74.5 31.5L66.5 39.5L79.5 44.5L85.5 59.5H113.5L111 50.5V48.5L92.5 37.5L74.5 31.5Z" fill="#60331B"/>
<g filter="url(#filter3_d_3837_14)">
<path d="M84.1646 102.673C86.6604 115.632 102.537 136.291 110.163 145C97.2679 138.311 87.4578 122.356 84.1646 115.214L83.1245 118.872C82.6046 128.278 80.5247 130.891 76.8849 131.936C73.2451 132.981 69.6052 128.8 65.9654 123.575C62.3256 118.349 61.8057 107.898 61.8057 100.06C61.8057 93.7888 64.5788 83.5117 65.9654 79.157C64.9255 78.2861 62.4296 75.8127 60.7657 72.8863C58.6858 69.2284 52.9661 52.5064 52.4463 49.8936C51.9265 47.2808 42.5668 36.8296 39.967 31.0814C37.3671 25.3332 39.967 18.54 48.2865 18.0174C54.9422 17.5994 66.3122 24.8107 71.1653 28.4686C86.7644 30.0362 89.8843 30.5589 107.563 42.5778C125.242 54.5967 136.682 76.0217 137.722 78.6346C138.762 81.2474 153.841 114.691 156.961 115.736C159.457 116.573 167.36 119.917 171 121.485V129.323C169.44 125.665 156.961 122.007 154.881 121.485C153.217 121.067 150.374 119.569 149.161 118.872L142.402 105.285C139.108 97.9693 131.17 80.8293 125.762 70.7961C119.003 58.2547 103.404 47.2809 95.084 41.5327C86.7645 35.7845 73.7652 34.2168 71.1653 34.2168C68.5653 34.2168 66.4856 33.1717 65.4456 31.604C64.4057 30.0363 60.7659 28.9913 52.4463 24.8109C45.7907 21.4665 43.7801 24.8109 43.6068 26.9011C43.7801 28.4688 44.9587 32.3357 48.2865 35.2621C51.6144 38.1884 56.2594 47.6294 58.166 51.9841C62.3258 69.2286 68.0455 73.9316 69.0854 74.9768C69.9174 75.8129 70.8186 78.1121 71.1653 79.1573C60.7658 110.929 69.6053 123.749 75.325 126.188C75.741 111.138 81.3914 104.24 84.1646 102.673Z" fill="#BF641E"/>
</g>
<path d="M76.9232 55C76.9232 52.544 72.9744 47.8367 71 45.7901C72.3163 44.9373 75.5411 44.0504 77.9104 47.3251C80.2797 50.5997 78.2395 53.8061 76.9232 55Z" fill="#EF771C"/>
<g filter="url(#filter4_f_3837_14)">
<path d="M43.632 65.7H47.75V86H43.777V72.834L38.064 82.259H37.6L31.887 72.863V86H27.885V65.7H32.003L37.832 75.299L43.632 65.7ZM57.5935 81.244L60.8125 71.5H64.8145L59.5365 86C58.7825 88.088 57.7771 89.596 56.5205 90.524C55.2831 91.4713 53.7365 91.8967 51.8805 91.8V88.32C52.8665 88.3393 53.6591 88.1267 54.2585 87.682C54.8578 87.2373 55.3315 86.522 55.6795 85.536L49.7345 71.5H53.8235L57.5935 81.244ZM73.1334 86.406C71.142 86.406 69.46 85.9613 68.0874 85.072C66.7147 84.1827 65.7384 82.955 65.1584 81.389L68.5804 79.388C69.373 81.4567 70.9294 82.491 73.2494 82.491C74.3321 82.491 75.1441 82.2977 75.6854 81.911C76.2267 81.5243 76.4974 81.0023 76.4974 80.345C76.4974 79.6297 76.1784 79.0787 75.5404 78.692C74.9024 78.286 73.7617 77.851 72.1184 77.387C70.3397 76.8457 68.938 76.2173 67.9134 75.502C66.6374 74.5547 65.9994 73.1627 65.9994 71.326C65.9994 69.47 66.647 68.0103 67.9424 66.947C69.2377 65.845 70.8134 65.294 72.6694 65.294C74.2934 65.294 75.7337 65.6903 76.9904 66.483C78.2471 67.2757 79.2234 68.397 79.9194 69.847L76.5554 71.79C75.7434 70.05 74.4481 69.18 72.6694 69.18C71.8574 69.18 71.2097 69.3733 70.7264 69.76C70.243 70.1273 70.0014 70.6107 70.0014 71.21C70.0014 71.848 70.2624 72.37 70.7844 72.776C71.3644 73.182 72.3891 73.6073 73.8584 74.052L75.2504 74.516C75.5017 74.5933 75.9367 74.7577 76.5554 75.009C77.1354 75.2217 77.5607 75.4247 77.8314 75.618C78.7787 76.198 79.4167 76.7973 79.7454 77.416C80.2481 78.228 80.4994 79.185 80.4994 80.287C80.4994 82.1623 79.8131 83.651 78.4404 84.753C77.0677 85.855 75.2987 86.406 73.1334 86.406ZM103.123 75.85C103.123 78.46 102.292 80.7413 100.629 82.694L102.717 84.869L99.875 87.392L97.671 85.101C96.105 85.971 94.4037 86.406 92.567 86.406C89.667 86.406 87.1827 85.391 85.114 83.361C83.0647 81.3117 82.04 78.808 82.04 75.85C82.04 72.892 83.0647 70.398 85.114 68.368C87.1633 66.3187 89.6477 65.294 92.567 65.294C95.4863 65.294 97.9707 66.3187 100.02 68.368C102.089 70.398 103.123 72.892 103.123 75.85ZM92.567 82.491C93.3403 82.491 94.0943 82.3653 94.829 82.114L91.494 78.634L94.336 76.111L97.903 79.823C98.715 78.663 99.121 77.3387 99.121 75.85C99.121 73.9167 98.4927 72.3217 97.236 71.065C95.9793 69.8083 94.423 69.18 92.567 69.18C90.711 69.18 89.1547 69.8083 87.898 71.065C86.6413 72.3217 86.013 73.9167 86.013 75.85C86.013 77.764 86.6413 79.3493 87.898 80.606C89.1547 81.8627 90.711 82.491 92.567 82.491ZM110.079 65.7V82.172H117.822V86H106.077V65.7H110.079Z" fill="#0A0A09" fill-opacity="0.85"/>
</g>
</g>
<rect x="4.5" y="-4.5" width="98" height="98" rx="19.5" stroke="#EF771C"/>
</g>
<path d="M67.6636 62C67.6636 59.2984 63.2212 54.1204 61 51.8691C62.4808 50.9311 66.1088 49.9555 68.7742 53.5576C71.4397 57.1597 69.1444 60.6867 67.6636 62Z" fill="#EF771C"/>
<g filter="url(#filter5_f_3837_14)">
<path d="M47.632 78.7H51.75V99H47.777V85.834L42.064 95.259H41.6L35.887 85.863V99H31.885V78.7H36.003L41.832 88.299L47.632 78.7ZM61.5935 94.244L64.8125 84.5H68.8145L63.5365 99C62.7825 101.088 61.7771 102.596 60.5205 103.524C59.2831 104.471 57.7365 104.897 55.8805 104.8V101.32C56.8665 101.339 57.6591 101.127 58.2585 100.682C58.8578 100.237 59.3315 99.522 59.6795 98.536L53.7345 84.5H57.8235L61.5935 94.244ZM77.1334 99.406C75.142 99.406 73.46 98.9613 72.0874 98.072C70.7147 97.1827 69.7384 95.955 69.1584 94.389L72.5804 92.388C73.373 94.4567 74.9294 95.491 77.2494 95.491C78.3321 95.491 79.1441 95.2977 79.6854 94.911C80.2267 94.5243 80.4974 94.0023 80.4974 93.345C80.4974 92.6297 80.1784 92.0787 79.5404 91.692C78.9024 91.286 77.7617 90.851 76.1184 90.387C74.3397 89.8457 72.938 89.2173 71.9134 88.502C70.6374 87.5547 69.9994 86.1627 69.9994 84.326C69.9994 82.47 70.647 81.0103 71.9424 79.947C73.2377 78.845 74.8134 78.294 76.6694 78.294C78.2934 78.294 79.7337 78.6903 80.9904 79.483C82.2471 80.2757 83.2234 81.397 83.9194 82.847L80.5554 84.79C79.7434 83.05 78.4481 82.18 76.6694 82.18C75.8574 82.18 75.2097 82.3733 74.7264 82.76C74.243 83.1273 74.0014 83.6107 74.0014 84.21C74.0014 84.848 74.2624 85.37 74.7844 85.776C75.3644 86.182 76.3891 86.6073 77.8584 87.052L79.2504 87.516C79.5017 87.5933 79.9367 87.7577 80.5554 88.009C81.1354 88.2217 81.5607 88.4247 81.8314 88.618C82.7787 89.198 83.4167 89.7973 83.7454 90.416C84.2481 91.228 84.4994 92.185 84.4994 93.287C84.4994 95.1623 83.8131 96.651 82.4404 97.753C81.0677 98.855 79.2987 99.406 77.1334 99.406ZM107.123 88.85C107.123 91.46 106.292 93.7413 104.629 95.694L106.717 97.869L103.875 100.392L101.671 98.101C100.105 98.971 98.4037 99.406 96.567 99.406C93.667 99.406 91.1827 98.391 89.114 96.361C87.0647 94.3117 86.04 91.808 86.04 88.85C86.04 85.892 87.0647 83.398 89.114 81.368C91.1633 79.3187 93.6477 78.294 96.567 78.294C99.4863 78.294 101.971 79.3187 104.02 81.368C106.089 83.398 107.123 85.892 107.123 88.85ZM96.567 95.491C97.3403 95.491 98.0943 95.3653 98.829 95.114L95.494 91.634L98.336 89.111L101.903 92.823C102.715 91.663 103.121 90.3387 103.121 88.85C103.121 86.9167 102.493 85.3217 101.236 84.065C99.9793 82.8083 98.423 82.18 96.567 82.18C94.711 82.18 93.1547 82.8083 91.898 84.065C90.6413 85.3217 90.013 86.9167 90.013 88.85C90.013 90.764 90.6413 92.3493 91.898 93.606C93.1547 94.8627 94.711 95.491 96.567 95.491ZM114.079 78.7V95.172H121.822V99H110.077V78.7H114.079Z" fill="#0A0A09" fill-opacity="0.85"/>
</g>
<g filter="url(#filter6_d_3837_14)">
<path d="M78.0077 120.34C80.8817 135.238 99.1637 158.988 107.945 169C93.0964 161.311 81.7998 142.968 78.0077 134.758L76.8101 138.963C76.2113 149.776 73.8163 152.78 69.625 153.981C65.4337 155.183 61.2424 150.377 57.0511 144.369C52.8598 138.362 52.2611 126.347 52.2611 117.336C52.2611 110.127 55.4544 98.3127 57.0511 93.3065C55.8536 92.3053 52.9796 89.4618 51.0636 86.0976C48.6685 81.8925 42.0822 62.6688 41.4836 59.6651C40.885 56.6614 30.1073 44.6466 27.1135 38.0384C24.1197 31.4303 27.1135 23.6208 36.6936 23.02C44.3577 22.5394 57.4504 30.8296 63.0388 35.0348C81.0014 36.8369 84.5941 37.4378 104.952 51.2548C125.309 65.0718 138.482 89.7022 139.68 92.7059C140.877 95.7096 158.241 134.157 161.834 135.358C164.708 136.32 173.809 140.164 178 141.967V150.978C176.204 146.772 161.834 142.567 159.439 141.967C157.523 141.486 154.249 139.764 152.852 138.963L145.068 123.344C141.276 114.933 132.135 95.229 125.908 83.6948C118.124 69.277 100.162 56.6615 90.5816 50.0533C81.0015 43.4452 66.0326 41.643 63.0388 41.643C60.0449 41.643 57.65 40.4415 56.4525 38.6393C55.255 36.837 51.0637 35.6357 41.4836 30.8298C33.8196 26.9851 31.5044 30.8298 31.3048 33.2328C31.5044 35.035 32.8615 39.4805 36.6936 42.8446C40.5256 46.2087 45.8745 57.0621 48.0699 62.0683C52.86 81.8927 59.4463 87.2994 60.6438 88.5008C61.6018 89.462 62.6396 92.1053 63.0388 93.3068C51.0637 129.832 61.2425 144.57 67.8288 147.373C68.3078 130.072 74.8143 122.142 78.0077 120.34Z" fill="#BF641E"/>
</g>
</g>
<rect x="8.5" y="8.5" width="99" height="99" rx="19.5" stroke="#EF771C"/>
<g filter="url(#filter7_d_3837_14)">
<path d="M78.0077 120.34C80.8817 135.238 99.1637 158.988 107.945 169C93.0964 161.311 81.7998 142.968 78.0077 134.758L76.8101 138.963C76.2113 149.776 73.8163 152.78 69.625 153.981C65.4337 155.183 61.2424 150.377 57.0511 144.369C52.8598 138.362 52.2611 126.347 52.2611 117.336C52.2611 110.127 55.4544 98.3127 57.0511 93.3065C55.8536 92.3053 52.9796 89.4618 51.0636 86.0976C48.6685 81.8925 42.0822 62.6688 41.4836 59.6651C40.885 56.6614 30.1073 44.6466 27.1135 38.0384C24.1197 31.4303 27.1135 23.6208 36.6936 23.02C44.3577 22.5394 57.4504 30.8296 63.0388 35.0348C81.0014 36.8369 84.5941 37.4378 104.952 51.2548C125.309 65.0718 138.482 89.7022 139.68 92.7059C140.877 95.7096 158.241 134.157 161.834 135.358C164.708 136.32 173.809 140.164 178 141.967V150.978C176.204 146.772 161.834 142.567 159.439 141.967C157.523 141.486 154.249 139.764 152.852 138.963L145.068 123.344C141.276 114.933 132.135 95.229 125.908 83.6948C118.124 69.277 100.162 56.6615 90.5816 50.0533C81.0015 43.4452 66.0326 41.643 63.0388 41.643C60.0449 41.643 57.65 40.4415 56.4525 38.6393C55.255 36.837 51.0637 35.6357 41.4836 30.8298C33.8196 26.9851 31.5044 30.8298 31.3048 33.2328C31.5044 35.035 32.8615 39.4805 36.6936 42.8446C40.5256 46.2087 45.8745 57.0621 48.0699 62.0683C52.86 81.8927 59.4463 87.2994 60.6438 88.5008C61.6018 89.462 62.6396 92.1053 63.0388 93.3068C51.0637 129.832 61.2425 144.57 67.8288 147.373C68.3078 130.072 74.8143 122.142 78.0077 120.34Z" fill="#BF641E"/>
</g>
</g>
<defs>
<filter id="filter0_f_3837_14" x="-43.5" y="-52.5" width="194" height="194" filterUnits="userSpaceOnUse" color-interpolation-filters="sRGB">
<feFlood flood-opacity="0" result="BackgroundImageFix"/>
<feBlend mode="normal" in="SourceGraphic" in2="BackgroundImageFix" result="shape"/>
<feGaussianBlur stdDeviation="23.75" result="effect1_foregroundBlur_3837_14"/>
</filter>
<filter id="filter1_d_3837_14" x="77" y="14" width="41" height="41" filterUnits="userSpaceOnUse" color-interpolation-filters="sRGB">
<feFlood flood-opacity="0" result="BackgroundImageFix"/>
<feColorMatrix in="SourceAlpha" type="matrix" values="0 0 0 0 0 0 0 0 0 0 0 0 0 0 0 0 0 0 127 0" result="hardAlpha"/>
<feOffset dy="4"/>
<feGaussianBlur stdDeviation="2"/>
<feComposite in2="hardAlpha" operator="out"/>
<feColorMatrix type="matrix" values="0 0 0 0 0 0 0 0 0 0 0 0 0 0 0 0 0 0 0.25 0"/>
<feBlend mode="normal" in2="BackgroundImageFix" result="effect1_dropShadow_3837_14"/>
<feBlend mode="normal" in="SourceGraphic" in2="effect1_dropShadow_3837_14" result="shape"/>
</filter>
<filter id="filter2_d_3837_14" x="74" y="10" width="49" height="49" filterUnits="userSpaceOnUse" color-interpolation-filters="sRGB">
<feFlood flood-opacity="0" result="BackgroundImageFix"/>
<feColorMatrix in="SourceAlpha" type="matrix" values="0 0 0 0 0 0 0 0 0 0 0 0 0 0 0 0 0 0 127 0" result="hardAlpha"/>
<feOffset dy="4"/>
<feGaussianBlur stdDeviation="2"/>
<feComposite in2="hardAlpha" operator="out"/>
<feColorMatrix type="matrix" values="0 0 0 0 0 0 0 0 0 0 0 0 0 0 0 0 0 0 0.25 0"/>
<feBlend mode="normal" in2="BackgroundImageFix" result="effect1_dropShadow_3837_14"/>
<feBlend mode="normal" in="SourceGraphic" in2="effect1_dropShadow_3837_14" result="shape"/>
</filter>
<filter id="filter3_d_3837_14" x="35" y="18" width="140" height="135" filterUnits="userSpaceOnUse" color-interpolation-filters="sRGB">
<feFlood flood-opacity="0" result="BackgroundImageFix"/>
<feColorMatrix in="SourceAlpha" type="matrix" values="0 0 0 0 0 0 0 0 0 0 0 0 0 0 0 0 0 0 127 0" result="hardAlpha"/>
<feOffset dy="4"/>
<feGaussianBlur stdDeviation="2"/>
<feComposite in2="hardAlpha" operator="out"/>
<feColorMatrix type="matrix" values="0 0 0 0 0 0 0 0 0 0 0 0 0 0 0 0 0 0 0.25 0"/>
<feBlend mode="normal" in2="BackgroundImageFix" result="effect1_dropShadow_3837_14"/>
<feBlend mode="normal" in="SourceGraphic" in2="effect1_dropShadow_3837_14" result="shape"/>
</filter>
<filter id="filter4_f_3837_14" x="-3.61328" y="33.7939" width="152.938" height="89.6514" filterUnits="userSpaceOnUse" color-interpolation-filters="sRGB">
<feFlood flood-opacity="0" result="BackgroundImageFix"/>
<feBlend mode="normal" in="SourceGraphic" in2="BackgroundImageFix" result="shape"/>
<feGaussianBlur stdDeviation="15.75" result="effect1_foregroundBlur_3837_14"/>
</filter>
<filter id="filter5_f_3837_14" x="0.386719" y="46.7939" width="152.938" height="89.6514" filterUnits="userSpaceOnUse" color-interpolation-filters="sRGB">
<feFlood flood-opacity="0" result="BackgroundImageFix"/>
<feBlend mode="normal" in="SourceGraphic" in2="BackgroundImageFix" result="shape"/>
<feGaussianBlur stdDeviation="15.75" result="effect1_foregroundBlur_3837_14"/>
</filter>
<filter id="filter6_d_3837_14" x="22" y="23" width="160" height="154" filterUnits="userSpaceOnUse" color-interpolation-filters="sRGB">
<feFlood flood-opacity="0" result="BackgroundImageFix"/>
<feColorMatrix in="SourceAlpha" type="matrix" values="0 0 0 0 0 0 0 0 0 0 0 0 0 0 0 0 0 0 127 0" result="hardAlpha"/>
<feOffset dy="4"/>
<feGaussianBlur stdDeviation="2"/>
<feComposite in2="hardAlpha" operator="out"/>
<feColorMatrix type="matrix" values="0 0 0 0 0 0 0 0 0 0 0 0 0 0 0 0 0 0 0.25 0"/>
<feBlend mode="normal" in2="BackgroundImageFix" result="effect1_dropShadow_3837_14"/>
<feBlend mode="normal" in="SourceGraphic" in2="effect1_dropShadow_3837_14" result="shape"/>
</filter>
<filter id="filter7_d_3837_14" x="22" y="23" width="160" height="154" filterUnits="userSpaceOnUse" color-interpolation-filters="sRGB">
<feFlood flood-opacity="0" result="BackgroundImageFix"/>
<feColorMatrix in="SourceAlpha" type="matrix" values="0 0 0 0 0 0 0 0 0 0 0 0 0 0 0 0 0 0 127 0" result="hardAlpha"/>
<feOffset dy="4"/>
<feGaussianBlur stdDeviation="2"/>
<feComposite in2="hardAlpha" operator="out"/>
<feColorMatrix type="matrix" values="0 0 0 0 0 0 0 0 0 0 0 0 0 0 0 0 0 0 0.25 0"/>
<feBlend mode="normal" in2="BackgroundImageFix" result="effect1_dropShadow_3837_14"/>
<feBlend mode="normal" in="SourceGraphic" in2="effect1_dropShadow_3837_14" result="shape"/>
</filter>
<linearGradient id="paint0_linear_3837_14" x1="58" y1="0" x2="58" y2="116" gradientUnits="userSpaceOnUse">
<stop stop-color="#332117"/>
<stop offset="1" stop-color="#332117" stop-opacity="0.42"/>
</linearGradient>
<clipPath id="clip0_3837_14">
<rect width="116" height="116" rx="26" fill="white"/>
</clipPath>
<clipPath id="clip1_3837_14">
<rect x="8" y="8" width="100" height="100" rx="20" fill="white"/>
</clipPath>
<clipPath id="clip2_3837_14">
<rect x="4" y="-5" width="99" height="99" rx="20" fill="white"/>
</clipPath>
</defs>
</svg>
