<svg width="116" height="116" viewBox="0 0 116 116" fill="none" xmlns="http://www.w3.org/2000/svg">
<g clip-path="url(#clip0_3740_5712)">
<g clip-path="url(#clip1_3740_5712)">
<rect width="116" height="116" rx="26" fill="#1C1C1C"/>
<g clip-path="url(#clip2_3740_5712)">
<rect x="8" y="8" width="100" height="100" rx="20" fill="black"/>
<rect x="8" y="8" width="100" height="100" rx="20" fill="url(#paint0_linear_3740_5712)" fill-opacity="0.2"/>
<rect x="8" y="8" width="100" height="100" rx="20" fill="url(#paint1_linear_3740_5712)" fill-opacity="0.2"/>
<rect x="10.5" y="-54" width="0.5" height="229" fill="#D9D9D9" fill-opacity="0.16"/>
<rect x="29" y="-54" width="0.5" height="229" fill="#D9D9D9" fill-opacity="0.16"/>
<rect x="47.5" y="-54" width="0.5" height="229" fill="#D9D9D9" fill-opacity="0.16"/>
<rect x="66" y="-54" width="0.5" height="229" fill="#D9D9D9" fill-opacity="0.16"/>
<rect x="84.5" y="-54" width="0.5" height="229" fill="#D9D9D9" fill-opacity="0.16"/>
<rect x="103" y="-54" width="0.5" height="229" fill="#D9D9D9" fill-opacity="0.16"/>
<rect x="-81" y="94" width="0.5" height="229" transform="rotate(-90 -81 94)" fill="#D9D9D9" fill-opacity="0.16"/>
<rect x="-81" y="75.5" width="0.5" height="229" transform="rotate(-90 -81 75.5)" fill="#D9D9D9" fill-opacity="0.16"/>
<rect x="-81" y="57" width="0.5" height="229" transform="rotate(-90 -81 57)" fill="#D9D9D9" fill-opacity="0.16"/>
<rect x="-81" y="38.5" width="0.5" height="229" transform="rotate(-90 -81 38.5)" fill="#D9D9D9" fill-opacity="0.16"/>
<rect x="-81" y="20" width="0.5" height="229" transform="rotate(-90 -81 20)" fill="#D9D9D9" fill-opacity="0.16"/>
<rect x="8" y="8" width="136" height="136" rx="20" fill="url(#paint2_linear_3740_5712)" fill-opacity="0.8"/>
<rect x="8" y="8" width="136" height="136" rx="20" fill="url(#paint3_linear_3740_5712)" fill-opacity="0.8"/>
<rect x="8" y="8" width="136" height="136" rx="20" fill="url(#paint4_linear_3740_5712)" fill-opacity="0.8"/>
<rect x="8" y="8" width="136" height="136" rx="20" fill="url(#paint5_linear_3740_5712)" fill-opacity="0.8"/>
<rect x="8" y="8" width="136" height="136" rx="20" fill="url(#paint6_radial_3740_5712)" fill-opacity="0.1"/>
<rect x="8" y="8" width="136" height="136" rx="20" fill="url(#paint7_linear_3740_5712)" fill-opacity="0.8"/>
<rect x="8" y="8" width="136" height="136" rx="20" fill="url(#paint8_linear_3740_5712)" fill-opacity="0.8"/>
<rect x="8" y="8" width="136" height="136" rx="20" fill="url(#paint9_linear_3740_5712)" fill-opacity="0.8"/>
<rect x="8" y="8" width="136" height="136" rx="20" fill="url(#paint10_linear_3740_5712)" fill-opacity="0.8"/>
<rect x="8" y="8" width="136" height="136" rx="20" fill="url(#paint11_radial_3740_5712)" fill-opacity="0.1"/>
<path d="M56.0352 28.0161C55.9062 28.0279 55.4956 28.0689 55.1261 28.0982C46.6041 28.8665 38.6217 33.464 33.566 40.5304C30.7507 44.4595 28.9501 48.9163 28.2698 53.637C28.0293 55.2849 28 55.7716 28 58.0059C28 60.2402 28.0293 60.7269 28.2698 62.3747C29.9003 73.6399 37.9179 83.1048 48.7918 86.6116C50.739 87.2391 52.7918 87.6672 55.1261 87.9252C56.0352 88.0249 59.9648 88.0249 60.8739 87.9252C64.9032 87.4796 68.3167 86.4826 71.6833 84.7644C72.1994 84.5005 72.2991 84.4301 72.2287 84.3715C72.1818 84.3363 69.9824 81.3866 67.3431 77.8211L62.5455 71.3412L56.5337 62.4451C53.2258 57.5543 50.5044 53.5549 50.4809 53.5549C50.4575 53.5491 50.434 57.5016 50.4223 62.3278C50.4047 70.7782 50.3988 71.1183 50.2933 71.3177C50.1408 71.605 50.0235 71.7223 49.7771 71.8513C49.5894 71.9452 49.4252 71.9628 48.5396 71.9628H47.5249L47.2551 71.7927C47.0792 71.6813 46.9501 71.5347 46.8622 71.3646L46.739 71.1007L46.7507 59.3429L46.7683 47.5793L46.9501 47.3505C47.044 47.2274 47.2434 47.0691 47.3842 46.9928C47.6246 46.8755 47.7185 46.8638 48.7331 46.8638C49.9296 46.8638 50.129 46.9107 50.4399 47.2509C50.5279 47.3447 53.783 52.2472 57.6774 58.1525C61.5718 64.0578 66.8974 72.1211 69.5132 76.0795L74.2639 83.2749L74.5044 83.1166C76.6334 81.7326 78.8856 79.7622 80.6686 77.7097C84.4633 73.3526 86.9091 68.0396 87.7302 62.3747C87.9707 60.7269 88 60.2402 88 58.0059C88 55.7716 87.9707 55.2849 87.7302 53.637C86.0997 42.3718 78.0821 32.9069 67.2082 29.4001C65.2903 28.7785 63.2493 28.3504 60.9619 28.0924C60.3988 28.0337 56.522 27.9692 56.0352 28.0161ZM68.3167 46.1601C68.5982 46.3008 68.827 46.5706 68.9091 46.8521C68.956 47.0046 68.9677 50.2651 68.956 57.613L68.9384 68.1569L67.0792 65.3069L65.2141 62.4568V54.7923C65.2141 49.837 65.2375 47.0515 65.2727 46.9166C65.3666 46.5882 65.5718 46.3302 65.8534 46.1777C66.0938 46.0546 66.1818 46.0428 67.1026 46.0428C67.9707 46.0428 68.1232 46.0546 68.3167 46.1601Z" fill="white"/>
</g>
<rect x="8.5" y="8.5" width="99" height="99" rx="19.5" stroke="white"/>
<rect x="10.5" y="-54" width="0.5" height="229" fill="url(#paint12_linear_3740_5712)" fill-opacity="0.16"/>
<rect x="29" y="-54" width="0.5" height="229" fill="url(#paint13_linear_3740_5712)" fill-opacity="0.16"/>
<rect x="47.5" y="-54" width="0.5" height="229" fill="url(#paint14_linear_3740_5712)" fill-opacity="0.16"/>
<rect x="66" y="-54" width="0.5" height="229" fill="url(#paint15_linear_3740_5712)" fill-opacity="0.16"/>
<rect x="84.5" y="-54" width="0.5" height="229" fill="url(#paint16_linear_3740_5712)" fill-opacity="0.16"/>
<rect x="103" y="-54" width="0.5" height="229" fill="url(#paint17_linear_3740_5712)" fill-opacity="0.16"/>
<rect x="-81" y="112.5" width="0.5" height="229" transform="rotate(-90 -81 112.5)" fill="url(#paint18_linear_3740_5712)" fill-opacity="0.16"/>
<rect x="-81" y="94" width="0.5" height="229" transform="rotate(-90 -81 94)" fill="url(#paint19_linear_3740_5712)" fill-opacity="0.16"/>
<rect x="-81" y="75.5" width="0.5" height="229" transform="rotate(-90 -81 75.5)" fill="url(#paint20_linear_3740_5712)" fill-opacity="0.16"/>
<rect x="-81" y="57" width="0.5" height="229" transform="rotate(-90 -81 57)" fill="url(#paint21_linear_3740_5712)" fill-opacity="0.16"/>
<rect x="-81" y="38.5" width="0.5" height="229" transform="rotate(-90 -81 38.5)" fill="url(#paint22_linear_3740_5712)" fill-opacity="0.16"/>
<rect x="-81" y="20" width="0.5" height="229" transform="rotate(-90 -81 20)" fill="url(#paint23_linear_3740_5712)" fill-opacity="0.16"/>
<rect x="-81" y="1.5" width="0.5" height="229" transform="rotate(-90 -81 1.5)" fill="url(#paint24_linear_3740_5712)" fill-opacity="0.16"/>
</g>
</g>
<defs>
<linearGradient id="paint0_linear_3740_5712" x1="96.2353" y1="11.3088" x2="33.3676" y2="87.0441" gradientUnits="userSpaceOnUse">
<stop stop-color="white"/>
<stop offset="1" stop-opacity="0"/>
</linearGradient>
<linearGradient id="paint1_linear_3740_5712" x1="21.2353" y1="100.279" x2="58" y2="62.0441" gradientUnits="userSpaceOnUse">
<stop stop-color="white"/>
<stop offset="1" stop-opacity="0"/>
</linearGradient>
<linearGradient id="paint2_linear_3740_5712" x1="76" y1="8" x2="76" y2="36.5" gradientUnits="userSpaceOnUse">
<stop/>
<stop offset="1" stop-opacity="0"/>
</linearGradient>
<linearGradient id="paint3_linear_3740_5712" x1="76" y1="144" x2="76" y2="126.5" gradientUnits="userSpaceOnUse">
<stop/>
<stop offset="1" stop-opacity="0"/>
</linearGradient>
<linearGradient id="paint4_linear_3740_5712" x1="144" y1="80" x2="123.5" y2="80" gradientUnits="userSpaceOnUse">
<stop/>
<stop offset="1" stop-opacity="0"/>
</linearGradient>
<linearGradient id="paint5_linear_3740_5712" x1="8" y1="79.5" x2="29.5" y2="79.5" gradientUnits="userSpaceOnUse">
<stop/>
<stop offset="1" stop-opacity="0"/>
</linearGradient>
<radialGradient id="paint6_radial_3740_5712" cx="0" cy="0" r="1" gradientUnits="userSpaceOnUse" gradientTransform="translate(76 76) rotate(90) scale(41.5 78.3889)">
<stop stop-color="white"/>
<stop offset="1" stop-color="white" stop-opacity="0"/>
</radialGradient>
<linearGradient id="paint7_linear_3740_5712" x1="76" y1="8" x2="76" y2="36.5" gradientUnits="userSpaceOnUse">
<stop/>
<stop offset="1" stop-opacity="0"/>
</linearGradient>
<linearGradient id="paint8_linear_3740_5712" x1="76" y1="144" x2="76" y2="126.5" gradientUnits="userSpaceOnUse">
<stop/>
<stop offset="1" stop-opacity="0"/>
</linearGradient>
<linearGradient id="paint9_linear_3740_5712" x1="144" y1="80" x2="123.5" y2="80" gradientUnits="userSpaceOnUse">
<stop/>
<stop offset="1" stop-opacity="0"/>
</linearGradient>
<linearGradient id="paint10_linear_3740_5712" x1="8" y1="79.5" x2="29.5" y2="79.5" gradientUnits="userSpaceOnUse">
<stop/>
<stop offset="1" stop-opacity="0"/>
</linearGradient>
<radialGradient id="paint11_radial_3740_5712" cx="0" cy="0" r="1" gradientUnits="userSpaceOnUse" gradientTransform="translate(76 76) rotate(90) scale(41.5 78.3889)">
<stop stop-color="white"/>
<stop offset="1" stop-color="white" stop-opacity="0"/>
</radialGradient>
<linearGradient id="paint12_linear_3740_5712" x1="10.8796" y1="-54.6189" x2="10.5469" y2="-54.6186" gradientUnits="userSpaceOnUse">
<stop stop-color="#D9D9D9"/>
<stop offset="1" stop-color="#D9D9D9" stop-opacity="0"/>
</linearGradient>
<linearGradient id="paint13_linear_3740_5712" x1="29.3796" y1="-54.6189" x2="29.0469" y2="-54.6186" gradientUnits="userSpaceOnUse">
<stop stop-color="#D9D9D9"/>
<stop offset="1" stop-color="#D9D9D9" stop-opacity="0"/>
</linearGradient>
<linearGradient id="paint14_linear_3740_5712" x1="47.8796" y1="-54.6189" x2="47.5469" y2="-54.6186" gradientUnits="userSpaceOnUse">
<stop stop-color="#D9D9D9"/>
<stop offset="1" stop-color="#D9D9D9" stop-opacity="0"/>
</linearGradient>
<linearGradient id="paint15_linear_3740_5712" x1="66.3796" y1="-54.6189" x2="66.0469" y2="-54.6186" gradientUnits="userSpaceOnUse">
<stop stop-color="#D9D9D9"/>
<stop offset="1" stop-color="#D9D9D9" stop-opacity="0"/>
</linearGradient>
<linearGradient id="paint16_linear_3740_5712" x1="84.8796" y1="-54.6189" x2="84.5469" y2="-54.6186" gradientUnits="userSpaceOnUse">
<stop stop-color="#D9D9D9"/>
<stop offset="1" stop-color="#D9D9D9" stop-opacity="0"/>
</linearGradient>
<linearGradient id="paint17_linear_3740_5712" x1="103.38" y1="-54.6189" x2="103.047" y2="-54.6186" gradientUnits="userSpaceOnUse">
<stop stop-color="#D9D9D9"/>
<stop offset="1" stop-color="#D9D9D9" stop-opacity="0"/>
</linearGradient>
<linearGradient id="paint18_linear_3740_5712" x1="-80.6204" y1="111.881" x2="-80.9531" y2="111.881" gradientUnits="userSpaceOnUse">
<stop stop-color="#D9D9D9"/>
<stop offset="1" stop-color="#D9D9D9" stop-opacity="0"/>
</linearGradient>
<linearGradient id="paint19_linear_3740_5712" x1="-80.6204" y1="93.3811" x2="-80.9531" y2="93.3814" gradientUnits="userSpaceOnUse">
<stop stop-color="#D9D9D9"/>
<stop offset="1" stop-color="#D9D9D9" stop-opacity="0"/>
</linearGradient>
<linearGradient id="paint20_linear_3740_5712" x1="-80.6204" y1="74.8811" x2="-80.9531" y2="74.8814" gradientUnits="userSpaceOnUse">
<stop stop-color="#D9D9D9"/>
<stop offset="1" stop-color="#D9D9D9" stop-opacity="0"/>
</linearGradient>
<linearGradient id="paint21_linear_3740_5712" x1="-80.6204" y1="56.3811" x2="-80.9531" y2="56.3814" gradientUnits="userSpaceOnUse">
<stop stop-color="#D9D9D9"/>
<stop offset="1" stop-color="#D9D9D9" stop-opacity="0"/>
</linearGradient>
<linearGradient id="paint22_linear_3740_5712" x1="-80.6204" y1="37.8811" x2="-80.9531" y2="37.8814" gradientUnits="userSpaceOnUse">
<stop stop-color="#D9D9D9"/>
<stop offset="1" stop-color="#D9D9D9" stop-opacity="0"/>
</linearGradient>
<linearGradient id="paint23_linear_3740_5712" x1="-80.6204" y1="19.3811" x2="-80.9531" y2="19.3814" gradientUnits="userSpaceOnUse">
<stop stop-color="#D9D9D9"/>
<stop offset="1" stop-color="#D9D9D9" stop-opacity="0"/>
</linearGradient>
<linearGradient id="paint24_linear_3740_5712" x1="-80.6204" y1="0.881089" x2="-80.9531" y2="0.881351" gradientUnits="userSpaceOnUse">
<stop stop-color="#D9D9D9"/>
<stop offset="1" stop-color="#D9D9D9" stop-opacity="0"/>
</linearGradient>
<clipPath id="clip0_3740_5712">
<rect width="116" height="116" rx="26" fill="white"/>
</clipPath>
<clipPath id="clip1_3740_5712">
<rect width="116" height="116" rx="26" fill="white"/>
</clipPath>
<clipPath id="clip2_3740_5712">
<rect x="8" y="8" width="100" height="100" rx="20" fill="white"/>
</clipPath>
</defs>
</svg>
