<svg width="116" height="116" viewBox="0 0 116 116" fill="none" xmlns="http://www.w3.org/2000/svg">
<rect width="116" height="116" rx="26" fill="#152217"/>
<g clip-path="url(#clip0_3775_7280)">
<rect x="8" y="8" width="100" height="100" rx="20" fill="url(#paint0_linear_3775_7280)"/>
<g clip-path="url(#clip1_3775_7280)">
<rect x="8" y="8" width="182" height="140" rx="20" fill="url(#paint1_linear_3775_7280)" fill-opacity="0.8"/>
<path d="M74 46V30H52V1" stroke="#121A0E" stroke-dasharray="5 5"/>
<path d="M24 63L12.6222 63L12.6222 85L-8 85" stroke="#121A0E" stroke-dasharray="5 5"/>
<path d="M29 21L17.6222 21L17.6222 43L-3 43" stroke="#121A0E" stroke-dasharray="5 5"/>
<path d="M52 11.5H88.5V20.5H116" stroke="url(#paint2_linear_3775_7280)" stroke-dasharray="5 5"/>
<path d="M74 38H110.5V47H138" stroke="url(#paint3_linear_3775_7280)" stroke-dasharray="5 5"/>
<path d="M52 21H29V5.5" stroke="url(#paint4_linear_3775_7280)" stroke-dasharray="5 5"/>
<rect x="33" y="64" width="86" height="72" rx="2" fill="#0C1108"/>
<rect x="27" y="81" width="98" height="24" rx="2" fill="#182212"/>
<rect x="27" y="81" width="98" height="24" rx="2" fill="#182212"/>
<rect x="27" y="52" width="98" height="24" rx="2" fill="#182212"/>
<rect x="27" y="52" width="98" height="24" rx="2" fill="#182212"/>
<rect x="31" y="56" width="90" height="16" fill="#158D48"/>
<rect x="31" y="85" width="90" height="16" fill="#158D48"/>
<rect x="36" y="60" width="6" height="4" rx="1" fill="white"/>
<rect x="54" y="60" width="62" height="4" rx="1" fill="#0D4A27"/>
<rect x="36" y="89" width="6" height="4" rx="1" fill="white"/>
<rect x="54" y="89" width="62" height="4" rx="1" fill="#0D4A27"/>
</g>
</g>
<defs>
<linearGradient id="paint0_linear_3775_7280" x1="58" y1="8" x2="58" y2="108" gradientUnits="userSpaceOnUse">
<stop stop-color="#25DD7A"/>
<stop offset="1" stop-color="#518446"/>
</linearGradient>
<linearGradient id="paint1_linear_3775_7280" x1="99" y1="148" x2="99" y2="60.5" gradientUnits="userSpaceOnUse">
<stop/>
<stop offset="1" stop-opacity="0"/>
</linearGradient>
<linearGradient id="paint2_linear_3775_7280" x1="54.5" y1="13" x2="126.5" y2="20.5" gradientUnits="userSpaceOnUse">
<stop stop-color="#121A0E"/>
<stop offset="1" stop-color="#121A0E" stop-opacity="0"/>
</linearGradient>
<linearGradient id="paint3_linear_3775_7280" x1="76.5" y1="39.5" x2="148.5" y2="47" gradientUnits="userSpaceOnUse">
<stop stop-color="#121A0E"/>
<stop offset="1" stop-color="#121A0E" stop-opacity="0"/>
</linearGradient>
<linearGradient id="paint4_linear_3775_7280" x1="49.5" y1="21.5" x2="33.5" y2="-2" gradientUnits="userSpaceOnUse">
<stop stop-color="#121A0E"/>
<stop offset="1" stop-color="#121A0E" stop-opacity="0"/>
</linearGradient>
<clipPath id="clip0_3775_7280">
<rect x="8" y="8" width="100" height="100" rx="20" fill="white"/>
</clipPath>
<clipPath id="clip1_3775_7280">
<rect x="8" y="8" width="182" height="140" rx="20" fill="white"/>
</clipPath>
</defs>
</svg>
