<svg width="136" height="136" viewBox="0 0 136 136" fill="none" xmlns="http://www.w3.org/2000/svg">
<g clip-path="url(#clip0_3328_989)">
<rect width="136" height="136" rx="20" fill="url(#paint0_linear_3328_989)"/>
<rect x="25" y="72" width="86" height="72" rx="2" fill="#131C0E"/>
<rect x="19" y="120" width="98" height="24" rx="2" fill="#182212"/>
<rect x="19" y="120" width="98" height="24" rx="2" fill="#182212"/>
<rect x="19" y="89" width="98" height="24" rx="2" fill="#182212"/>
<rect x="19" y="89" width="98" height="24" rx="2" fill="#182212"/>
<rect x="19" y="60" width="98" height="24" rx="2" fill="#182212"/>
<rect x="19" y="60" width="98" height="24" rx="2" fill="#182212"/>
<rect x="23" y="64" width="90" height="16" fill="#304A28"/>
<rect x="23" y="93" width="90" height="16" fill="#304A28"/>
<rect x="23" y="124" width="90" height="16" fill="#304A28"/>
<g clip-path="url(#clip1_3328_989)">
<rect width="136" height="136" rx="20" fill="url(#paint1_linear_3328_989)" fill-opacity="0.8"/>
<rect x="28" y="68" width="9" height="4" fill="#94A18D"/>
<rect x="46" y="68" width="62" height="4" fill="#94A18D"/>
<rect x="28" y="97" width="9" height="4" fill="#94A18D"/>
<rect x="46" y="97" width="62" height="4" fill="#94A18D"/>
<rect x="28" y="128" width="9" height="4" fill="#94A18D"/>
<rect x="46" y="128" width="62" height="4" fill="#94A18D"/>
<path d="M19.5 74H11V22H32V33" stroke="#121A0E" stroke-dasharray="5 5"/>
<path d="M83.5 46.5H127V101.5H119.5" stroke="#121A0E" stroke-dasharray="5 5"/>
<path d="M94.5 46.5V30.5H72.5V1.5" stroke="#121A0E" stroke-dasharray="5 5"/>
<path d="M72.5 12H109V21H136.5" stroke="url(#paint2_linear_3328_989)" stroke-dasharray="5 5"/>
<path d="M19 102H0.5" stroke="#121A0E" stroke-dasharray="5 5"/>
<path d="M21 22V-1M9.5 102V133.5" stroke="url(#paint3_linear_3328_989)" stroke-dasharray="4 4"/>
<path d="M127 101.5V114M127 131.5V114M127 114H135.5" stroke="#121A0E" stroke-dasharray="5 5"/>
<path d="M72.5 21.5H49.5V6" stroke="url(#paint4_linear_3328_989)" stroke-dasharray="5 5"/>
</g>
<path d="M38.75 42.175V31.5H42.2V49H39.575L32.075 38.3V49H28.625V31.5H31.25L38.75 42.175ZM55.9463 47.45C54.6796 48.7167 53.113 49.35 51.2463 49.35C49.3796 49.35 47.813 48.7167 46.5463 47.45C45.2796 46.1833 44.6463 44.6167 44.6463 42.75C44.6463 40.9 45.2796 39.3417 46.5463 38.075C47.8296 36.7917 49.3963 36.15 51.2463 36.15C53.0963 36.15 54.663 36.7917 55.9463 38.075C57.2296 39.3583 57.8713 40.9167 57.8713 42.75C57.8713 44.6 57.2296 46.1667 55.9463 47.45ZM48.8213 45.225C49.4713 45.875 50.2796 46.2 51.2463 46.2C52.213 46.2 53.0213 45.875 53.6713 45.225C54.3213 44.575 54.6463 43.75 54.6463 42.75C54.6463 41.75 54.3213 40.925 53.6713 40.275C53.0213 39.625 52.213 39.3 51.2463 39.3C50.2796 39.3 49.4713 39.625 48.8213 40.275C48.188 40.9417 47.8713 41.7667 47.8713 42.75C47.8713 43.7333 48.188 44.5583 48.8213 45.225ZM69.615 37.975V31.5H72.84V49H69.615V47.525C68.665 48.7417 67.315 49.35 65.565 49.35C63.8817 49.35 62.44 48.7167 61.24 47.45C60.0567 46.1667 59.465 44.6 59.465 42.75C59.465 40.9167 60.0567 39.3583 61.24 38.075C62.44 36.7917 63.8817 36.15 65.565 36.15C67.315 36.15 68.665 36.7583 69.615 37.975ZM63.665 45.3C64.3484 45.95 65.1817 46.275 66.165 46.275C67.165 46.275 67.99 45.95 68.64 45.3C69.29 44.6333 69.615 43.7833 69.615 42.75C69.615 41.7167 69.29 40.875 68.64 40.225C67.99 39.5583 67.165 39.225 66.165 39.225C65.165 39.225 64.3317 39.5583 63.665 40.225C63.015 40.875 62.69 41.7167 62.69 42.75C62.69 43.7833 63.015 44.6333 63.665 45.3ZM87.9395 44.075H78.5145C78.9311 45.6417 80.1061 46.425 82.0395 46.425C83.2728 46.425 84.2061 46.0083 84.8395 45.175L87.4395 46.675C86.2061 48.4583 84.3895 49.35 81.9895 49.35C79.9228 49.35 78.2645 48.725 77.0145 47.475C75.7645 46.225 75.1395 44.65 75.1395 42.75C75.1395 40.8833 75.7561 39.3167 76.9895 38.05C78.2061 36.7833 79.7895 36.15 81.7395 36.15C83.5895 36.15 85.0978 36.7833 86.2645 38.05C87.4645 39.3167 88.0645 40.8833 88.0645 42.75C88.0645 43.1 88.0228 43.5417 87.9395 44.075ZM78.4645 41.575H84.8395C84.6561 40.7583 84.2811 40.1333 83.7145 39.7C83.1645 39.2667 82.5061 39.05 81.7395 39.05C80.8728 39.05 80.1561 39.275 79.5895 39.725C79.0228 40.1583 78.6478 40.775 78.4645 41.575Z" fill="white"/>
</g>
<rect x="0.5" y="0.5" width="135" height="135" rx="19.5" stroke="#94A18D"/>
<defs>
<linearGradient id="paint0_linear_3328_989" x1="68" y1="0" x2="68" y2="136" gradientUnits="userSpaceOnUse">
<stop stop-color="#35C27E"/>
<stop offset="1" stop-color="#518446"/>
</linearGradient>
<linearGradient id="paint1_linear_3328_989" x1="68" y1="136" x2="68" y2="51" gradientUnits="userSpaceOnUse">
<stop/>
<stop offset="1" stop-opacity="0"/>
</linearGradient>
<linearGradient id="paint2_linear_3328_989" x1="75" y1="13.5" x2="147" y2="21" gradientUnits="userSpaceOnUse">
<stop stop-color="#121A0E"/>
<stop offset="1" stop-color="#121A0E" stop-opacity="0"/>
</linearGradient>
<linearGradient id="paint3_linear_3328_989" x1="24" y1="33.5" x2="21" y2="-0.999997" gradientUnits="userSpaceOnUse">
<stop stop-color="#121A0E"/>
<stop offset="1" stop-color="#121A0E" stop-opacity="0"/>
</linearGradient>
<linearGradient id="paint4_linear_3328_989" x1="70" y1="22" x2="54" y2="-1.5" gradientUnits="userSpaceOnUse">
<stop stop-color="#121A0E"/>
<stop offset="1" stop-color="#121A0E" stop-opacity="0"/>
</linearGradient>
<clipPath id="clip0_3328_989">
<rect width="136" height="136" rx="20" fill="white"/>
</clipPath>
<clipPath id="clip1_3328_989">
<rect width="136" height="136" rx="20" fill="white"/>
</clipPath>
</defs>
</svg>
