<svg width="116" height="116" viewBox="0 0 116 116" fill="none" xmlns="http://www.w3.org/2000/svg">
<g clip-path="url(#clip0_3775_7273)">
<rect width="116" height="116" rx="26" fill="#221515"/>
<g clip-path="url(#clip1_3775_7273)">
<rect x="9" y="8" width="100" height="100" rx="20" fill="#DE332C"/>
<g filter="url(#filter0_d_3775_7273)">
<path d="M5 71.5V86C5 98.7025 15.2975 109 28 109H102.75C108.411 109 113 104.411 113 98.75C113 93.0891 108.411 88.5 102.75 88.5H84.5C78.9771 88.5 74.5 84.0228 74.5 78.5V76.5C74.5 72.0817 70.9183 68.5 66.5 68.5C62.0817 68.5 58.5 64.9183 58.5 60.5V58.25C58.5 52.5891 53.9109 48 48.25 48H37C34.2386 48 32 50.2386 32 53C32 55.7614 29.7614 58 27 58H18.5C11.0442 58 5 64.0442 5 71.5Z" fill="#E24B45"/>
</g>
<g filter="url(#filter1_d_3775_7273)">
<path d="M5 82V88C5 100.979 15.5213 111.5 28.5 111.5H74C82.2843 111.5 89 104.784 89 96.5C89 88.2157 82.2843 81.5 74 81.5H58.75C54.1936 81.5 50.5 77.8063 50.5 73.25C50.5 68.6937 46.8064 65 42.25 65H24.75C22.1266 65 20 67.1266 20 69.75C20 72.3734 17.8734 74.5 15.25 74.5H12.5C8.35786 74.5 5 77.8579 5 82Z" fill="#E46460"/>
</g>
</g>
<g filter="url(#filter2_d_3775_7273)">
<path d="M82.5 52L97 52C109.703 52 120 41.7025 120 29L120 -45.75C120 -51.4109 115.411 -56 109.75 -56C104.089 -56 99.5 -51.4109 99.5 -45.75L99.5 -27.5C99.5 -21.9771 95.0228 -17.5 89.5 -17.5L87.5 -17.5C83.0817 -17.5 79.5 -13.9183 79.5 -9.5C79.5 -5.08172 75.9183 -1.5 71.5 -1.5L69.25 -1.5C63.5891 -1.5 59 3.08908 59 8.75L59 20C59 22.7614 61.2386 25 64 25C66.7614 25 69 27.2386 69 30L69 38.5C69 45.9558 75.0442 52 82.5 52Z" fill="#E24B45"/>
</g>
</g>
<defs>
<filter id="filter0_d_3775_7273" x="1" y="42" width="116" height="69" filterUnits="userSpaceOnUse" color-interpolation-filters="sRGB">
<feFlood flood-opacity="0" result="BackgroundImageFix"/>
<feColorMatrix in="SourceAlpha" type="matrix" values="0 0 0 0 0 0 0 0 0 0 0 0 0 0 0 0 0 0 127 0" result="hardAlpha"/>
<feOffset dy="-2"/>
<feGaussianBlur stdDeviation="2"/>
<feComposite in2="hardAlpha" operator="out"/>
<feColorMatrix type="matrix" values="0 0 0 0 0 0 0 0 0 0 0 0 0 0 0 0 0 0 0.25 0"/>
<feBlend mode="normal" in2="BackgroundImageFix" result="effect1_dropShadow_3775_7273"/>
<feBlend mode="normal" in="SourceGraphic" in2="effect1_dropShadow_3775_7273" result="shape"/>
</filter>
<filter id="filter1_d_3775_7273" x="1" y="59" width="92" height="54.5" filterUnits="userSpaceOnUse" color-interpolation-filters="sRGB">
<feFlood flood-opacity="0" result="BackgroundImageFix"/>
<feColorMatrix in="SourceAlpha" type="matrix" values="0 0 0 0 0 0 0 0 0 0 0 0 0 0 0 0 0 0 127 0" result="hardAlpha"/>
<feOffset dy="-2"/>
<feGaussianBlur stdDeviation="2"/>
<feComposite in2="hardAlpha" operator="out"/>
<feColorMatrix type="matrix" values="0 0 0 0 0 0 0 0 0 0 0 0 0 0 0 0 0 0 0.25 0"/>
<feBlend mode="normal" in2="BackgroundImageFix" result="effect1_dropShadow_3775_7273"/>
<feBlend mode="normal" in="SourceGraphic" in2="effect1_dropShadow_3775_7273" result="shape"/>
</filter>
<filter id="filter2_d_3775_7273" x="55" y="-56" width="69" height="116" filterUnits="userSpaceOnUse" color-interpolation-filters="sRGB">
<feFlood flood-opacity="0" result="BackgroundImageFix"/>
<feColorMatrix in="SourceAlpha" type="matrix" values="0 0 0 0 0 0 0 0 0 0 0 0 0 0 0 0 0 0 127 0" result="hardAlpha"/>
<feOffset dy="4"/>
<feGaussianBlur stdDeviation="2"/>
<feComposite in2="hardAlpha" operator="out"/>
<feColorMatrix type="matrix" values="0 0 0 0 0 0 0 0 0 0 0 0 0 0 0 0 0 0 0.25 0"/>
<feBlend mode="normal" in2="BackgroundImageFix" result="effect1_dropShadow_3775_7273"/>
<feBlend mode="normal" in="SourceGraphic" in2="effect1_dropShadow_3775_7273" result="shape"/>
</filter>
<clipPath id="clip0_3775_7273">
<rect width="116" height="116" rx="26" fill="white"/>
</clipPath>
<clipPath id="clip1_3775_7273">
<rect x="9" y="8" width="100" height="100" rx="20" fill="white"/>
</clipPath>
</defs>
</svg>
