<svg width="136" height="136" viewBox="0 0 136 136" fill="none" xmlns="http://www.w3.org/2000/svg">
<g clip-path="url(#clip0_3328_1114)">
<rect width="136" height="136" rx="20" fill="#DE332C"/>
<path d="M39.388 65.998C37.8333 67.538 35.9413 68.308 33.712 68.308C31.4827 68.308 29.5907 67.538 28.036 65.998C26.496 64.4287 25.726 62.5293 25.726 60.3C25.726 58.056 26.496 56.164 28.036 54.624C29.5907 53.0693 31.4827 52.292 33.712 52.292C35.9413 52.292 37.8333 53.0693 39.388 54.624C40.9427 56.164 41.72 58.056 41.72 60.3C41.72 62.544 40.9427 64.4433 39.388 65.998ZM30.17 63.93C31.1087 64.8687 32.2893 65.338 33.712 65.338C35.1347 65.338 36.3153 64.8687 37.254 63.93C38.2073 62.9767 38.684 61.7667 38.684 60.3C38.684 58.8333 38.2073 57.6233 37.254 56.67C36.3007 55.7167 35.12 55.24 33.712 55.24C32.304 55.24 31.1233 55.7167 30.17 56.67C29.2167 57.6233 28.74 58.8333 28.74 60.3C28.74 61.7667 29.2167 62.9767 30.17 63.93ZM55.5798 68H52.3018L49.1998 62.654H46.8898V68H43.8538V52.6H50.0138C51.4365 52.6 52.6465 53.0987 53.6438 54.096C54.6412 55.0933 55.1398 56.296 55.1398 57.704C55.1398 58.6573 54.8685 59.5447 54.3258 60.366C53.7832 61.1727 53.0645 61.7813 52.1698 62.192L55.5798 68ZM50.0138 55.438H46.8898V59.992H50.0138C50.5858 59.992 51.0772 59.772 51.4878 59.332C51.8985 58.8773 52.1038 58.3347 52.1038 57.704C52.1038 57.0733 51.8985 56.538 51.4878 56.098C51.0772 55.658 50.5858 55.438 50.0138 55.438ZM70.5675 68H67.2675L66.3435 65.228H60.2055L59.2815 68H56.0035L61.3935 52.6H65.1555L70.5675 68ZM63.2855 56.098L61.1735 62.39H65.3975L63.2855 56.098ZM78.8082 68.308C76.5056 68.308 74.5916 67.538 73.0662 65.998C71.5556 64.4727 70.8002 62.5733 70.8002 60.3C70.8002 58.012 71.5556 56.1127 73.0662 54.602C74.5916 53.062 76.5056 52.292 78.8082 52.292C80.2016 52.292 81.4849 52.622 82.6582 53.282C83.8462 53.9273 84.7702 54.8073 85.4302 55.922L82.8122 57.44C82.4309 56.7507 81.8882 56.2153 81.1842 55.834C80.4802 55.438 79.6882 55.24 78.8082 55.24C77.3122 55.24 76.1022 55.7093 75.1782 56.648C74.2689 57.6013 73.8142 58.8187 73.8142 60.3C73.8142 61.7667 74.2689 62.9767 75.1782 63.93C76.1022 64.8687 77.3122 65.338 78.8082 65.338C79.6882 65.338 80.4802 65.1473 81.1842 64.766C81.9029 64.37 82.4456 63.8347 82.8122 63.16L85.4302 64.678C84.7702 65.7927 83.8462 66.68 82.6582 67.34C81.4849 67.9853 80.2016 68.308 78.8082 68.308ZM90.3312 52.6V65.096H96.2052V68H87.2952V52.6H90.3312ZM100.966 61.642V65.096H107.456V68H97.93V52.6H107.346V55.504H100.966V58.782H106.796V61.642H100.966Z" fill="white"/>
<path d="M88.952 84.182C88.0593 84.182 87.3053 83.9827 86.69 83.584C86.0747 83.1853 85.637 82.635 85.377 81.933L86.911 81.036C87.2663 81.9633 87.964 82.427 89.004 82.427C89.4893 82.427 89.8533 82.3403 90.096 82.167C90.3387 81.9937 90.46 81.7597 90.46 81.465C90.46 81.1443 90.317 80.8973 90.031 80.724C89.745 80.542 89.2337 80.347 88.497 80.139C87.6997 79.8963 87.0713 79.6147 86.612 79.294C86.04 78.8693 85.754 78.2453 85.754 77.422C85.754 76.59 86.0443 75.9357 86.625 75.459C87.2057 74.965 87.912 74.718 88.744 74.718C89.472 74.718 90.1177 74.8957 90.681 75.251C91.2443 75.6063 91.682 76.109 91.994 76.759L90.486 77.63C90.122 76.85 89.5413 76.46 88.744 76.46C88.38 76.46 88.0897 76.5467 87.873 76.72C87.6563 76.8847 87.548 77.1013 87.548 77.37C87.548 77.656 87.665 77.89 87.899 78.072C88.159 78.254 88.6183 78.4447 89.277 78.644L89.901 78.852C90.0137 78.8867 90.2087 78.9603 90.486 79.073C90.746 79.1683 90.9367 79.2593 91.058 79.346C91.4827 79.606 91.7687 79.8747 91.916 80.152C92.1413 80.516 92.254 80.945 92.254 81.439C92.254 82.2797 91.9463 82.947 91.331 83.441C90.7157 83.935 89.9227 84.182 88.952 84.182ZM102.396 79.45C102.396 80.62 102.023 81.6427 101.278 82.518L102.214 83.493L100.94 84.624L99.9516 83.597C99.2496 83.987 98.487 84.182 97.6636 84.182C96.3636 84.182 95.25 83.727 94.3226 82.817C93.404 81.8983 92.9446 80.776 92.9446 79.45C92.9446 78.124 93.404 77.006 94.3226 76.096C95.2413 75.1773 96.355 74.718 97.6636 74.718C98.9723 74.718 100.086 75.1773 101.005 76.096C101.932 77.006 102.396 78.124 102.396 79.45ZM97.6636 82.427C98.0103 82.427 98.3483 82.3707 98.6776 82.258L97.1826 80.698L98.4566 79.567L100.056 81.231C100.42 80.711 100.602 80.1173 100.602 79.45C100.602 78.5833 100.32 77.8683 99.7566 77.305C99.1933 76.7417 98.4956 76.46 97.6636 76.46C96.8316 76.46 96.134 76.7417 95.5706 77.305C95.0073 77.8683 94.7256 78.5833 94.7256 79.45C94.7256 80.308 95.0073 81.0187 95.5706 81.582C96.134 82.1453 96.8316 82.427 97.6636 82.427ZM105.514 74.9V82.284H108.985V84H103.72V74.9H105.514Z" fill="white"/>
<g filter="url(#filter0_d_3328_1114)">
<path d="M1 105V119.5C1 132.203 11.2975 142.5 24 142.5H98.75C104.411 142.5 109 137.911 109 132.25C109 126.589 104.411 122 98.75 122H80.5C74.9771 122 70.5 117.523 70.5 112V110C70.5 105.582 66.9183 102 62.5 102C58.0817 102 54.5 98.4183 54.5 94V91.75C54.5 86.0891 49.9109 81.5 44.25 81.5H33C30.2386 81.5 28 83.7386 28 86.5C28 89.2614 25.7614 91.5 23 91.5H14.5C7.04416 91.5 1 97.5442 1 105Z" fill="#E24B45"/>
</g>
<g filter="url(#filter1_d_3328_1114)">
<path d="M-17 121V127C-17 139.979 -6.47869 150.5 6.5 150.5H52C60.2843 150.5 67 143.784 67 135.5C67 127.216 60.2843 120.5 52 120.5H36.75C32.1936 120.5 28.5 116.806 28.5 112.25C28.5 107.694 24.8064 104 20.25 104H2.75C0.126648 104 -2 106.127 -2 108.75C-2 111.373 -4.12665 113.5 -6.75 113.5H-9.5C-13.6421 113.5 -17 116.858 -17 121Z" fill="#E46460"/>
</g>
<g filter="url(#filter2_d_3328_1114)">
<path d="M116.5 38L131 38C143.703 38 154 27.7025 154 15L154 -59.75C154 -65.4109 149.411 -70 143.75 -70C138.089 -70 133.5 -65.4109 133.5 -59.75L133.5 -41.5C133.5 -35.9771 129.023 -31.5 123.5 -31.5L121.5 -31.5C117.082 -31.5 113.5 -27.9183 113.5 -23.5C113.5 -19.0817 109.918 -15.5 105.5 -15.5L103.25 -15.5C97.5891 -15.5 93 -10.9109 93 -5.25L93 6C93 8.76142 95.2386 11 98 11C100.761 11 103 13.2386 103 16L103 24.5C103 31.9558 109.044 38 116.5 38Z" fill="#E24B45"/>
</g>
<g filter="url(#filter3_d_3328_1114)">
<path d="M132.5 56L138.5 56C151.479 56 162 45.4787 162 32.5L162 -13C162 -21.2843 155.284 -28 147 -28C138.716 -28 132 -21.2843 132 -13L132 2.25C132 6.80635 128.306 10.5 123.75 10.5C119.194 10.5 115.5 14.1936 115.5 18.75L115.5 36.25C115.5 38.8734 117.627 41 120.25 41C122.873 41 125 43.1266 125 45.75L125 48.5C125 52.6421 128.358 56 132.5 56Z" fill="#E46460"/>
</g>
</g>
<rect x="0.5" y="0.5" width="135" height="135" rx="19.5" stroke="white"/>
<defs>
<filter id="filter0_d_3328_1114" x="-3" y="75.5" width="116" height="69" filterUnits="userSpaceOnUse" color-interpolation-filters="sRGB">
<feFlood flood-opacity="0" result="BackgroundImageFix"/>
<feColorMatrix in="SourceAlpha" type="matrix" values="0 0 0 0 0 0 0 0 0 0 0 0 0 0 0 0 0 0 127 0" result="hardAlpha"/>
<feOffset dy="-2"/>
<feGaussianBlur stdDeviation="2"/>
<feComposite in2="hardAlpha" operator="out"/>
<feColorMatrix type="matrix" values="0 0 0 0 0 0 0 0 0 0 0 0 0 0 0 0 0 0 0.25 0"/>
<feBlend mode="normal" in2="BackgroundImageFix" result="effect1_dropShadow_3328_1114"/>
<feBlend mode="normal" in="SourceGraphic" in2="effect1_dropShadow_3328_1114" result="shape"/>
</filter>
<filter id="filter1_d_3328_1114" x="-21" y="98" width="92" height="54.5" filterUnits="userSpaceOnUse" color-interpolation-filters="sRGB">
<feFlood flood-opacity="0" result="BackgroundImageFix"/>
<feColorMatrix in="SourceAlpha" type="matrix" values="0 0 0 0 0 0 0 0 0 0 0 0 0 0 0 0 0 0 127 0" result="hardAlpha"/>
<feOffset dy="-2"/>
<feGaussianBlur stdDeviation="2"/>
<feComposite in2="hardAlpha" operator="out"/>
<feColorMatrix type="matrix" values="0 0 0 0 0 0 0 0 0 0 0 0 0 0 0 0 0 0 0.25 0"/>
<feBlend mode="normal" in2="BackgroundImageFix" result="effect1_dropShadow_3328_1114"/>
<feBlend mode="normal" in="SourceGraphic" in2="effect1_dropShadow_3328_1114" result="shape"/>
</filter>
<filter id="filter2_d_3328_1114" x="89" y="-70" width="69" height="116" filterUnits="userSpaceOnUse" color-interpolation-filters="sRGB">
<feFlood flood-opacity="0" result="BackgroundImageFix"/>
<feColorMatrix in="SourceAlpha" type="matrix" values="0 0 0 0 0 0 0 0 0 0 0 0 0 0 0 0 0 0 127 0" result="hardAlpha"/>
<feOffset dy="4"/>
<feGaussianBlur stdDeviation="2"/>
<feComposite in2="hardAlpha" operator="out"/>
<feColorMatrix type="matrix" values="0 0 0 0 0 0 0 0 0 0 0 0 0 0 0 0 0 0 0.25 0"/>
<feBlend mode="normal" in2="BackgroundImageFix" result="effect1_dropShadow_3328_1114"/>
<feBlend mode="normal" in="SourceGraphic" in2="effect1_dropShadow_3328_1114" result="shape"/>
</filter>
<filter id="filter3_d_3328_1114" x="111.5" y="-28" width="54.5" height="92" filterUnits="userSpaceOnUse" color-interpolation-filters="sRGB">
<feFlood flood-opacity="0" result="BackgroundImageFix"/>
<feColorMatrix in="SourceAlpha" type="matrix" values="0 0 0 0 0 0 0 0 0 0 0 0 0 0 0 0 0 0 127 0" result="hardAlpha"/>
<feOffset dy="4"/>
<feGaussianBlur stdDeviation="2"/>
<feComposite in2="hardAlpha" operator="out"/>
<feColorMatrix type="matrix" values="0 0 0 0 0 0 0 0 0 0 0 0 0 0 0 0 0 0 0.25 0"/>
<feBlend mode="normal" in2="BackgroundImageFix" result="effect1_dropShadow_3328_1114"/>
<feBlend mode="normal" in="SourceGraphic" in2="effect1_dropShadow_3328_1114" result="shape"/>
</filter>
<clipPath id="clip0_3328_1114">
<rect width="136" height="136" rx="20" fill="white"/>
</clipPath>
</defs>
</svg>
