<svg width="116" height="116" viewBox="0 0 116 116" fill="none" xmlns="http://www.w3.org/2000/svg">
<rect width="116" height="116" rx="26" fill="#151622"/>
<g clip-path="url(#clip0_3740_5717)">
<rect x="8" y="8" width="100" height="100" rx="20" fill="#030303"/>
<path d="M47.2274 42.3432C46.1439 52.7325 49.9349 66.9491 49.9362 69C47.2271 65.5823 39.9129 52.8688 32.3283 29.3561C24.7437 5.84344 31.8768 -3.67981 36.3915 -5.50236C57.3845 -19.856 75.4462 -13.9271 74.9916 -13.0209C74.3073 -11.657 70.2512 -10.7426 68.2196 -9.6034C56.7073 -2.08482 46.55 17.0534 45.8728 20.4709C45.1956 23.8885 48.5818 29.3565 47.2274 42.3432Z" fill="#294264"/>
<path d="M65.976 30.9627C66.4975 38.7841 58.8542 54.195 54.3184 62.09C53.9587 62.7162 53.1144 62.7293 52.8655 62.0514C50.5045 55.6221 51.9633 37.1388 51.5514 25.0926C51.5174 24.0994 52.1974 23.2156 53.1859 23.1121C58.0657 22.6013 65.4856 23.6079 65.976 30.9627Z" fill="#7292BE"/>
<path d="M21.4592 -4.15551C13.807 14.9015 31.4798 54.1499 41.2727 71.3919H31.0238C19.4055 71.3919 17.342 72.072 20.0779 78.1975C26.227 89.0872 40.8167 93.8515 51.5206 94.5321C53.5703 110.867 54.9368 134.007 74.7504 138.772C94.5639 143.536 100.03 133.327 102.763 127.201C104.949 122.301 105.496 105.195 105.496 97.2545C119.707 102.155 130.547 97.4814 134.191 94.5321C137.471 96.71 142.39 97.2545 144.439 97.2545C160.837 92.4902 164.936 67.9884 171.769 48.2508C178.601 28.5131 179.967 4.69186 168.352 -12.3233C159.061 -25.9355 129.409 -21.625 115.744 -17.7682C105.359 -23.7575 90.0091 -22.0783 83.6323 -20.4901C76.8 -25.935 31.0243 -27.9768 21.4592 -4.15551Z" stroke="white" stroke-opacity="0.86" stroke-width="2"/>
<path d="M80.6364 -11.5665C67 -8.28176 55.8636 9.4191 52 17.8589C54.2727 17.631 60.1818 17.7227 65.6364 19.9125C72.4545 22.6497 71.0909 30.8614 70.4091 39.0732C69.8636 45.6426 58.8182 64.1646 53.3636 72.6045C57.4545 73.2888 60.1818 78.7633 60.1818 83.5534C60.1818 88.3436 61.5455 99.9769 62.9091 109.557C64.2727 119.138 65.6364 125.981 77.2273 130.087C88.8182 134.193 94.2727 123.244 94.9545 121.191C95.6364 119.138 97 90.3966 96.3182 81.5005C95.6364 72.6045 106.545 73.2888 106.545 71.9202C106.545 70.5515 99.0455 53.4437 98.3636 50.7065C97.6818 47.9692 97.6818 32.2301 103.136 23.334C107.5 16.2172 120.864 20.3687 127 23.334C127 14.438 120.864 0.751151 116.773 -4.72334C112.682 -10.1978 97.6818 -15.6723 80.6364 -11.5665Z" fill="#4F6D96"/>
<path d="M58.5 26.5C58.0121 26.5 57.4704 26.5691 56.9468 26.6866C55.2169 27.075 55.2101 28.9034 56.8199 29.6464C59.298 30.79 62 30.5444 62 29.271C62 27.5677 60.5 26.5 58.5 26.5Z" fill="#030303"/>
<path d="M50.0598 75.853C46.9497 78.3215 34.3369 77.9466 29.0521 77.6651C34.1415 83.6135 47.3498 83.9643 53.8313 83.0842C54.7376 82.9611 55.5506 82.3888 55.7856 81.5049C56.7112 78.0235 53.5077 76.1801 51.1639 75.528C50.7747 75.4198 50.3762 75.6019 50.0598 75.853Z" fill="#9EB4D2"/>
</g>
<rect x="8.5" y="8.5" width="99" height="99" rx="19.5" stroke="#DCDCDC"/>
<defs>
<clipPath id="clip0_3740_5717">
<rect x="8" y="8" width="100" height="100" rx="20" fill="white"/>
</clipPath>
</defs>
</svg>
