<svg width="731" height="542" viewBox="0 0 731 542" fill="none" xmlns="http://www.w3.org/2000/svg">
<circle cx="411" cy="539" r="2" fill="#D9D9D9" fill-opacity="0.2"/>
<circle cx="452" cy="539" r="2" fill="#D9D9D9" fill-opacity="0.2"/>
<circle cx="494" cy="539" r="2" fill="#D9D9D9" fill-opacity="0.2"/>
<circle cx="535" cy="539" r="2" fill="#D9D9D9" fill-opacity="0.2"/>
<circle cx="576" cy="539" r="2" fill="#D9D9D9" fill-opacity="0.2"/>
<circle cx="617" cy="539" r="2" fill="#D9D9D9" fill-opacity="0.2"/>
<circle cx="659" cy="539" r="2" fill="#D9D9D9" fill-opacity="0.2"/>
<circle cx="700" cy="539" r="2" fill="#D9D9D9" fill-opacity="0.2"/>
<circle cx="411" cy="498" r="2" fill="#D9D9D9" fill-opacity="0.2"/>
<circle cx="452" cy="498" r="2" fill="#D9D9D9" fill-opacity="0.2"/>
<circle cx="494" cy="498" r="2" fill="#D9D9D9" fill-opacity="0.2"/>
<circle cx="535" cy="498" r="2" fill="#D9D9D9" fill-opacity="0.2"/>
<circle cx="576" cy="498" r="2" fill="#D9D9D9" fill-opacity="0.2"/>
<circle cx="617" cy="498" r="2" fill="#D9D9D9" fill-opacity="0.2"/>
<circle cx="659" cy="498" r="2" fill="#D9D9D9" fill-opacity="0.2"/>
<circle cx="700" cy="498" r="2" fill="#D9D9D9" fill-opacity="0.2"/>
<circle cx="411" cy="457" r="2" fill="#D9D9D9" fill-opacity="0.2"/>
<circle cx="452" cy="457" r="2" fill="#D9D9D9" fill-opacity="0.2"/>
<circle cx="494" cy="457" r="2" fill="#D9D9D9" fill-opacity="0.2"/>
<circle cx="535" cy="457" r="2" fill="#D9D9D9" fill-opacity="0.2"/>
<circle cx="576" cy="457" r="2" fill="#D9D9D9" fill-opacity="0.2"/>
<circle cx="617" cy="457" r="2" fill="#D9D9D9" fill-opacity="0.2"/>
<circle cx="659" cy="457" r="2" fill="#D9D9D9" fill-opacity="0.2"/>
<circle cx="700" cy="457" r="2" fill="#D9D9D9" fill-opacity="0.2"/>
<circle cx="411" cy="416" r="2" fill="#D9D9D9" fill-opacity="0.2"/>
<circle cx="452" cy="416" r="2" fill="#D9D9D9" fill-opacity="0.2"/>
<circle cx="494" cy="416" r="2" fill="#D9D9D9" fill-opacity="0.2"/>
<circle cx="535" cy="416" r="2" fill="#D9D9D9" fill-opacity="0.2"/>
<circle cx="576" cy="416" r="2" fill="#D9D9D9" fill-opacity="0.2"/>
<circle cx="617" cy="416" r="2" fill="#D9D9D9" fill-opacity="0.2"/>
<circle cx="659" cy="416" r="2" fill="#D9D9D9" fill-opacity="0.2"/>
<circle cx="700" cy="416" r="2" fill="#D9D9D9" fill-opacity="0.2"/>
<circle cx="411" cy="374" r="2" fill="#D9D9D9" fill-opacity="0.2"/>
<circle cx="452" cy="374" r="2" fill="#D9D9D9" fill-opacity="0.2"/>
<circle cx="494" cy="374" r="2" fill="#D9D9D9" fill-opacity="0.2"/>
<circle cx="535" cy="374" r="2" fill="#D9D9D9" fill-opacity="0.2"/>
<circle cx="576" cy="374" r="2" fill="#D9D9D9" fill-opacity="0.2"/>
<circle cx="617" cy="374" r="2" fill="#D9D9D9" fill-opacity="0.2"/>
<circle cx="659" cy="374" r="2" fill="#D9D9D9" fill-opacity="0.2"/>
<circle cx="700" cy="374" r="2" fill="#D9D9D9" fill-opacity="0.2"/>
<circle cx="411" cy="332" r="2" fill="#D9D9D9" fill-opacity="0.2"/>
<circle cx="452" cy="332" r="2" fill="#D9D9D9" fill-opacity="0.2"/>
<circle cx="494" cy="332" r="2" fill="#D9D9D9" fill-opacity="0.2"/>
<circle cx="535" cy="332" r="2" fill="#D9D9D9" fill-opacity="0.2"/>
<circle cx="576" cy="332" r="2" fill="#D9D9D9" fill-opacity="0.2"/>
<circle cx="617" cy="332" r="2" fill="#D9D9D9" fill-opacity="0.2"/>
<circle cx="659" cy="332" r="2" fill="#D9D9D9" fill-opacity="0.2"/>
<circle cx="700" cy="332" r="2" fill="#D9D9D9" fill-opacity="0.2"/>
<circle cx="411" cy="292" r="2" fill="#D9D9D9" fill-opacity="0.2"/>
<circle cx="452" cy="292" r="2" fill="#D9D9D9" fill-opacity="0.2"/>
<circle cx="494" cy="292" r="2" fill="#D9D9D9" fill-opacity="0.2"/>
<circle cx="535" cy="292" r="2" fill="#D9D9D9" fill-opacity="0.2"/>
<circle cx="576" cy="292" r="2" fill="#D9D9D9" fill-opacity="0.2"/>
<circle cx="617" cy="292" r="2" fill="#D9D9D9" fill-opacity="0.2"/>
<circle cx="659" cy="292" r="2" fill="#D9D9D9" fill-opacity="0.2"/>
<circle cx="700" cy="292" r="2" fill="#D9D9D9" fill-opacity="0.2"/>
<circle cx="411" cy="251" r="2" fill="#D9D9D9" fill-opacity="0.2"/>
<circle cx="452" cy="251" r="2" fill="#D9D9D9" fill-opacity="0.2"/>
<circle cx="494" cy="251" r="2" fill="#D9D9D9" fill-opacity="0.2"/>
<circle cx="535" cy="251" r="2" fill="#D9D9D9" fill-opacity="0.2"/>
<circle cx="576" cy="251" r="2" fill="#D9D9D9" fill-opacity="0.2"/>
<circle cx="617" cy="251" r="2" fill="#D9D9D9" fill-opacity="0.2"/>
<circle cx="659" cy="251" r="2" fill="#D9D9D9" fill-opacity="0.2"/>
<circle cx="700" cy="251" r="2" fill="#D9D9D9" fill-opacity="0.2"/>
<circle cx="411" cy="209" r="2" fill="#D9D9D9" fill-opacity="0.2"/>
<circle cx="452" cy="209" r="2" fill="#D9D9D9" fill-opacity="0.2"/>
<circle cx="494" cy="209" r="2" fill="#D9D9D9" fill-opacity="0.2"/>
<circle cx="535" cy="209" r="2" fill="#D9D9D9" fill-opacity="0.2"/>
<circle cx="576" cy="209" r="2" fill="#D9D9D9" fill-opacity="0.2"/>
<circle cx="617" cy="209" r="2" fill="#D9D9D9" fill-opacity="0.2"/>
<circle cx="659" cy="209" r="2" fill="#D9D9D9" fill-opacity="0.2"/>
<circle cx="700" cy="209" r="2" fill="#D9D9D9" fill-opacity="0.2"/>
<circle cx="411" cy="168" r="2" fill="#D9D9D9" fill-opacity="0.2"/>
<circle cx="452" cy="168" r="2" fill="#D9D9D9" fill-opacity="0.2"/>
<circle cx="494" cy="168" r="2" fill="#D9D9D9" fill-opacity="0.2"/>
<circle cx="535" cy="168" r="2" fill="#D9D9D9" fill-opacity="0.2"/>
<circle cx="576" cy="168" r="2" fill="#D9D9D9" fill-opacity="0.2"/>
<circle cx="617" cy="168" r="2" fill="#D9D9D9" fill-opacity="0.2"/>
<circle cx="659" cy="168" r="2" fill="#D9D9D9" fill-opacity="0.2"/>
<circle cx="700" cy="168" r="2" fill="#D9D9D9" fill-opacity="0.2"/>
<circle cx="411" cy="127" r="2" fill="#D9D9D9" fill-opacity="0.2"/>
<circle cx="452" cy="127" r="2" fill="#D9D9D9" fill-opacity="0.2"/>
<circle cx="494" cy="127" r="2" fill="#D9D9D9" fill-opacity="0.2"/>
<circle cx="535" cy="127" r="2" fill="#D9D9D9" fill-opacity="0.2"/>
<circle cx="576" cy="127" r="2" fill="#D9D9D9" fill-opacity="0.2"/>
<circle cx="617" cy="127" r="2" fill="#D9D9D9" fill-opacity="0.2"/>
<circle cx="659" cy="127" r="2" fill="#D9D9D9" fill-opacity="0.2"/>
<circle cx="700" cy="127" r="2" fill="#D9D9D9" fill-opacity="0.2"/>
<circle cx="411" cy="86" r="2" fill="#D9D9D9" fill-opacity="0.2"/>
<circle cx="452" cy="86" r="2" fill="#D9D9D9" fill-opacity="0.2"/>
<circle cx="494" cy="86" r="2" fill="#D9D9D9" fill-opacity="0.2"/>
<circle cx="535" cy="86" r="2" fill="#D9D9D9" fill-opacity="0.2"/>
<circle cx="576" cy="86" r="2" fill="#D9D9D9" fill-opacity="0.2"/>
<circle cx="617" cy="86" r="2" fill="#D9D9D9" fill-opacity="0.2"/>
<circle cx="659" cy="86" r="2" fill="#D9D9D9" fill-opacity="0.2"/>
<circle cx="700" cy="86" r="2" fill="#D9D9D9" fill-opacity="0.2"/>
<circle cx="411" cy="44" r="2" fill="#D9D9D9" fill-opacity="0.2"/>
<circle cx="452" cy="44" r="2" fill="#D9D9D9" fill-opacity="0.2"/>
<circle cx="494" cy="44" r="2" fill="#D9D9D9" fill-opacity="0.2"/>
<circle cx="535" cy="44" r="2" fill="#D9D9D9" fill-opacity="0.2"/>
<circle cx="576" cy="44" r="2" fill="#D9D9D9" fill-opacity="0.2"/>
<circle cx="617" cy="44" r="2" fill="#D9D9D9" fill-opacity="0.2"/>
<circle cx="659" cy="44" r="2" fill="#D9D9D9" fill-opacity="0.2"/>
<circle cx="700" cy="44" r="2" fill="#D9D9D9" fill-opacity="0.2"/>
<circle cx="411" cy="2" r="2" fill="#D9D9D9" fill-opacity="0.2"/>
<circle cx="452" cy="2" r="2" fill="#D9D9D9" fill-opacity="0.2"/>
<circle cx="494" cy="2" r="2" fill="#D9D9D9" fill-opacity="0.2"/>
<circle cx="535" cy="2" r="2" fill="#D9D9D9" fill-opacity="0.2"/>
<circle cx="576" cy="2" r="2" fill="#D9D9D9" fill-opacity="0.2"/>
<circle cx="617" cy="2" r="2" fill="#D9D9D9" fill-opacity="0.2"/>
<circle cx="659" cy="2" r="2" fill="#D9D9D9" fill-opacity="0.2"/>
<circle cx="700" cy="2" r="2" fill="#D9D9D9" fill-opacity="0.2"/>
<circle cx="2" cy="540" r="2" fill="#D9D9D9" fill-opacity="0.2"/>
<circle cx="43" cy="540" r="2" fill="#D9D9D9" fill-opacity="0.2"/>
<circle cx="85" cy="540" r="2" fill="#D9D9D9" fill-opacity="0.2"/>
<circle cx="126" cy="540" r="2" fill="#D9D9D9" fill-opacity="0.2"/>
<circle cx="167" cy="540" r="2" fill="#D9D9D9" fill-opacity="0.2"/>
<circle cx="208" cy="540" r="2" fill="#D9D9D9" fill-opacity="0.2"/>
<circle cx="250" cy="540" r="2" fill="#D9D9D9" fill-opacity="0.2"/>
<circle cx="291" cy="540" r="2" fill="#D9D9D9" fill-opacity="0.2"/>
<circle cx="332" cy="540" r="2" fill="#D9D9D9" fill-opacity="0.2"/>
<circle cx="373" cy="540" r="2" fill="#D9D9D9" fill-opacity="0.2"/>
<circle cx="2" cy="499" r="2" fill="#D9D9D9" fill-opacity="0.2"/>
<circle cx="43" cy="499" r="2" fill="#D9D9D9" fill-opacity="0.2"/>
<circle cx="85" cy="499" r="2" fill="#D9D9D9" fill-opacity="0.2"/>
<circle cx="126" cy="499" r="2" fill="#D9D9D9" fill-opacity="0.2"/>
<circle cx="167" cy="499" r="2" fill="#D9D9D9" fill-opacity="0.2"/>
<circle cx="208" cy="499" r="2" fill="#D9D9D9" fill-opacity="0.2"/>
<circle cx="250" cy="499" r="2" fill="#D9D9D9" fill-opacity="0.2"/>
<circle cx="291" cy="499" r="2" fill="#D9D9D9" fill-opacity="0.2"/>
<circle cx="332" cy="499" r="2" fill="#D9D9D9" fill-opacity="0.2"/>
<circle cx="373" cy="499" r="2" fill="#D9D9D9" fill-opacity="0.2"/>
<circle cx="2" cy="458" r="2" fill="#D9D9D9" fill-opacity="0.2"/>
<circle cx="43" cy="458" r="2" fill="#D9D9D9" fill-opacity="0.2"/>
<circle cx="85" cy="458" r="2" fill="#D9D9D9" fill-opacity="0.2"/>
<circle cx="126" cy="458" r="2" fill="#D9D9D9" fill-opacity="0.2"/>
<circle cx="167" cy="458" r="2" fill="#D9D9D9" fill-opacity="0.2"/>
<circle cx="208" cy="458" r="2" fill="#D9D9D9" fill-opacity="0.2"/>
<circle cx="250" cy="458" r="2" fill="#D9D9D9" fill-opacity="0.2"/>
<circle cx="291" cy="458" r="2" fill="#D9D9D9" fill-opacity="0.2"/>
<circle cx="332" cy="458" r="2" fill="#D9D9D9" fill-opacity="0.2"/>
<circle cx="373" cy="458" r="2" fill="#D9D9D9" fill-opacity="0.2"/>
<circle cx="2" cy="417" r="2" fill="#D9D9D9" fill-opacity="0.2"/>
<circle cx="43" cy="417" r="2" fill="#D9D9D9" fill-opacity="0.2"/>
<circle cx="85" cy="417" r="2" fill="#D9D9D9" fill-opacity="0.2"/>
<circle cx="126" cy="417" r="2" fill="#D9D9D9" fill-opacity="0.2"/>
<circle cx="167" cy="417" r="2" fill="#D9D9D9" fill-opacity="0.2"/>
<circle cx="208" cy="417" r="2" fill="#D9D9D9" fill-opacity="0.2"/>
<circle cx="250" cy="417" r="2" fill="#D9D9D9" fill-opacity="0.2"/>
<circle cx="291" cy="417" r="2" fill="#D9D9D9" fill-opacity="0.2"/>
<circle cx="332" cy="417" r="2" fill="#D9D9D9" fill-opacity="0.2"/>
<circle cx="373" cy="417" r="2" fill="#D9D9D9" fill-opacity="0.2"/>
<circle cx="2" cy="375" r="2" fill="#D9D9D9" fill-opacity="0.2"/>
<circle cx="43" cy="375" r="2" fill="#D9D9D9" fill-opacity="0.2"/>
<circle cx="85" cy="375" r="2" fill="#D9D9D9" fill-opacity="0.2"/>
<circle cx="126" cy="375" r="2" fill="#D9D9D9" fill-opacity="0.2"/>
<circle cx="167" cy="375" r="2" fill="#D9D9D9" fill-opacity="0.2"/>
<circle cx="208" cy="375" r="2" fill="#D9D9D9" fill-opacity="0.2"/>
<circle cx="250" cy="375" r="2" fill="#D9D9D9" fill-opacity="0.2"/>
<circle cx="291" cy="375" r="2" fill="#D9D9D9" fill-opacity="0.2"/>
<circle cx="332" cy="375" r="2" fill="#D9D9D9" fill-opacity="0.2"/>
<circle cx="373" cy="375" r="2" fill="#D9D9D9" fill-opacity="0.2"/>
<circle cx="2" cy="333" r="2" fill="#D9D9D9" fill-opacity="0.2"/>
<circle cx="43" cy="333" r="2" fill="#D9D9D9" fill-opacity="0.2"/>
<circle cx="85" cy="333" r="2" fill="#D9D9D9" fill-opacity="0.2"/>
<circle cx="126" cy="333" r="2" fill="#D9D9D9" fill-opacity="0.2"/>
<circle cx="167" cy="333" r="2" fill="#D9D9D9" fill-opacity="0.2"/>
<circle cx="208" cy="333" r="2" fill="#D9D9D9" fill-opacity="0.2"/>
<circle cx="250" cy="333" r="2" fill="#D9D9D9" fill-opacity="0.2"/>
<circle cx="291" cy="333" r="2" fill="#D9D9D9" fill-opacity="0.2"/>
<circle cx="332" cy="333" r="2" fill="#D9D9D9" fill-opacity="0.2"/>
<circle cx="373" cy="333" r="2" fill="#D9D9D9" fill-opacity="0.2"/>
<circle cx="2" cy="293" r="2" fill="#D9D9D9" fill-opacity="0.2"/>
<circle cx="43" cy="293" r="2" fill="#D9D9D9" fill-opacity="0.2"/>
<circle cx="85" cy="293" r="2" fill="#D9D9D9" fill-opacity="0.2"/>
<circle cx="126" cy="293" r="2" fill="#D9D9D9" fill-opacity="0.2"/>
<circle cx="167" cy="293" r="2" fill="#D9D9D9" fill-opacity="0.2"/>
<circle cx="208" cy="293" r="2" fill="#D9D9D9" fill-opacity="0.2"/>
<circle cx="250" cy="293" r="2" fill="#D9D9D9" fill-opacity="0.2"/>
<circle cx="291" cy="293" r="2" fill="#D9D9D9" fill-opacity="0.2"/>
<circle cx="332" cy="293" r="2" fill="#D9D9D9" fill-opacity="0.2"/>
<circle cx="373" cy="293" r="2" fill="#D9D9D9" fill-opacity="0.2"/>
<circle cx="2" cy="252" r="2" fill="#D9D9D9" fill-opacity="0.2"/>
<circle cx="43" cy="252" r="2" fill="#D9D9D9" fill-opacity="0.2"/>
<circle cx="85" cy="252" r="2" fill="#D9D9D9" fill-opacity="0.2"/>
<circle cx="126" cy="252" r="2" fill="#D9D9D9" fill-opacity="0.2"/>
<circle cx="167" cy="252" r="2" fill="#D9D9D9" fill-opacity="0.2"/>
<circle cx="208" cy="252" r="2" fill="#D9D9D9" fill-opacity="0.2"/>
<circle cx="250" cy="252" r="2" fill="#D9D9D9" fill-opacity="0.2"/>
<circle cx="291" cy="252" r="2" fill="#D9D9D9" fill-opacity="0.2"/>
<circle cx="332" cy="252" r="2" fill="#D9D9D9" fill-opacity="0.2"/>
<circle cx="373" cy="252" r="2" fill="#D9D9D9" fill-opacity="0.2"/>
<circle cx="2" cy="210" r="2" fill="#D9D9D9" fill-opacity="0.2"/>
<circle cx="43" cy="210" r="2" fill="#D9D9D9" fill-opacity="0.2"/>
<circle cx="85" cy="210" r="2" fill="#D9D9D9" fill-opacity="0.2"/>
<circle cx="126" cy="210" r="2" fill="#D9D9D9" fill-opacity="0.2"/>
<circle cx="167" cy="210" r="2" fill="#D9D9D9" fill-opacity="0.2"/>
<circle cx="208" cy="210" r="2" fill="#D9D9D9" fill-opacity="0.2"/>
<circle cx="250" cy="210" r="2" fill="#D9D9D9" fill-opacity="0.2"/>
<circle cx="291" cy="210" r="2" fill="#D9D9D9" fill-opacity="0.2"/>
<circle cx="332" cy="210" r="2" fill="#D9D9D9" fill-opacity="0.2"/>
<circle cx="373" cy="210" r="2" fill="#D9D9D9" fill-opacity="0.2"/>
<circle cx="2" cy="169" r="2" fill="#D9D9D9" fill-opacity="0.2"/>
<circle cx="43" cy="169" r="2" fill="#D9D9D9" fill-opacity="0.2"/>
<circle cx="85" cy="169" r="2" fill="#D9D9D9" fill-opacity="0.2"/>
<circle cx="126" cy="169" r="2" fill="#D9D9D9" fill-opacity="0.2"/>
<circle cx="167" cy="169" r="2" fill="#D9D9D9" fill-opacity="0.2"/>
<circle cx="208" cy="169" r="2" fill="#D9D9D9" fill-opacity="0.2"/>
<circle cx="250" cy="169" r="2" fill="#D9D9D9" fill-opacity="0.2"/>
<circle cx="291" cy="169" r="2" fill="#D9D9D9" fill-opacity="0.2"/>
<circle cx="332" cy="169" r="2" fill="#D9D9D9" fill-opacity="0.2"/>
<circle cx="373" cy="169" r="2" fill="#D9D9D9" fill-opacity="0.2"/>
<circle cx="2" cy="128" r="2" fill="#D9D9D9" fill-opacity="0.2"/>
<circle cx="43" cy="128" r="2" fill="#D9D9D9" fill-opacity="0.2"/>
<circle cx="85" cy="128" r="2" fill="#D9D9D9" fill-opacity="0.2"/>
<circle cx="126" cy="128" r="2" fill="#D9D9D9" fill-opacity="0.2"/>
<circle cx="167" cy="128" r="2" fill="#D9D9D9" fill-opacity="0.2"/>
<circle cx="208" cy="128" r="2" fill="#D9D9D9" fill-opacity="0.2"/>
<circle cx="250" cy="128" r="2" fill="#D9D9D9" fill-opacity="0.2"/>
<circle cx="291" cy="128" r="2" fill="#D9D9D9" fill-opacity="0.2"/>
<circle cx="332" cy="128" r="2" fill="#D9D9D9" fill-opacity="0.2"/>
<circle cx="373" cy="128" r="2" fill="#D9D9D9" fill-opacity="0.2"/>
<circle cx="2" cy="87" r="2" fill="#D9D9D9" fill-opacity="0.2"/>
<circle cx="43" cy="87" r="2" fill="#D9D9D9" fill-opacity="0.2"/>
<circle cx="85" cy="87" r="2" fill="#D9D9D9" fill-opacity="0.2"/>
<circle cx="126" cy="87" r="2" fill="#D9D9D9" fill-opacity="0.2"/>
<circle cx="167" cy="87" r="2" fill="#D9D9D9" fill-opacity="0.2"/>
<circle cx="208" cy="87" r="2" fill="#D9D9D9" fill-opacity="0.2"/>
<circle cx="250" cy="87" r="2" fill="#D9D9D9" fill-opacity="0.2"/>
<circle cx="291" cy="87" r="2" fill="#D9D9D9" fill-opacity="0.2"/>
<circle cx="332" cy="87" r="2" fill="#D9D9D9" fill-opacity="0.2"/>
<circle cx="373" cy="87" r="2" fill="#D9D9D9" fill-opacity="0.2"/>
<circle cx="2" cy="45" r="2" fill="#D9D9D9" fill-opacity="0.2"/>
<circle cx="43" cy="45" r="2" fill="#D9D9D9" fill-opacity="0.2"/>
<circle cx="85" cy="45" r="2" fill="#D9D9D9" fill-opacity="0.2"/>
<circle cx="126" cy="45" r="2" fill="#D9D9D9" fill-opacity="0.2"/>
<circle cx="167" cy="45" r="2" fill="#D9D9D9" fill-opacity="0.2"/>
<circle cx="208" cy="45" r="2" fill="#D9D9D9" fill-opacity="0.2"/>
<circle cx="250" cy="45" r="2" fill="#D9D9D9" fill-opacity="0.2"/>
<circle cx="291" cy="45" r="2" fill="#D9D9D9" fill-opacity="0.2"/>
<circle cx="332" cy="45" r="2" fill="#D9D9D9" fill-opacity="0.2"/>
<circle cx="373" cy="45" r="2" fill="#D9D9D9" fill-opacity="0.2"/>
<circle cx="2" cy="3" r="2" fill="#D9D9D9" fill-opacity="0.2"/>
<circle cx="43" cy="3" r="2" fill="#D9D9D9" fill-opacity="0.2"/>
<circle cx="85" cy="3" r="2" fill="#D9D9D9" fill-opacity="0.2"/>
<circle cx="126" cy="3" r="2" fill="#D9D9D9" fill-opacity="0.2"/>
<circle cx="167" cy="3" r="2" fill="#D9D9D9" fill-opacity="0.2"/>
<circle cx="208" cy="3" r="2" fill="#D9D9D9" fill-opacity="0.2"/>
<circle cx="250" cy="3" r="2" fill="#D9D9D9" fill-opacity="0.2"/>
<circle cx="291" cy="3" r="2" fill="#D9D9D9" fill-opacity="0.2"/>
<circle cx="332" cy="3" r="2" fill="#D9D9D9" fill-opacity="0.2"/>
<circle cx="373" cy="3" r="2" fill="#D9D9D9" fill-opacity="0.2"/>
</svg>
