<svg width="136" height="136" viewBox="0 0 136 136" fill="none" xmlns="http://www.w3.org/2000/svg">
<g clip-path="url(#clip0_3328_1015)">
<rect width="136" height="136" rx="20" fill="url(#paint0_linear_3328_1015)"/>
<line x1="-0.40064" y1="147.701" x2="55.5994" y2="72.7009" stroke="white" stroke-opacity="0.27"/>
<line x1="102.367" y1="154.311" x2="55.5667" y2="73.2504" stroke="white" stroke-opacity="0.27"/>
<line x1="145.541" y1="48.483" x2="55.1297" y2="72.7085" stroke="white" stroke-opacity="0.27"/>
<line x1="55.3668" y1="73.3105" x2="8.56668" y2="-7.74961" stroke="white" stroke-opacity="0.27"/>
<line x1="103.251" y1="59.5674" x2="148.986" y2="86.0804" stroke="white" stroke-opacity="0.27"/>
<line x1="-5.74923" y1="67.5674" x2="39.9857" y2="94.0804" stroke="white" stroke-opacity="0.27"/>
<path d="M-0.141043 71.5198L45.5 56.5" stroke="white" stroke-opacity="0.27"/>
<line x1="28.2508" y1="110.567" x2="73.9857" y2="137.08" stroke="white" stroke-opacity="0.27"/>
<line x1="104.28" y1="59.4144" x2="27.2803" y2="111.417" stroke="white" stroke-opacity="0.27"/>
<line x1="150.366" y1="141.311" x2="103.566" y2="60.2504" stroke="white" stroke-opacity="0.27"/>
<line x1="81.1171" y1="116.486" x2="51.1174" y2="123.712" stroke="white" stroke-opacity="0.27"/>
<line x1="105.388" y1="117.315" x2="91.3883" y2="134.541" stroke="white" stroke-opacity="0.27"/>
<line x1="116.205" y1="123.456" x2="91.2051" y2="134.682" stroke="white" stroke-opacity="0.27"/>
<line x1="125.619" y1="135.324" x2="115.619" y2="123.549" stroke="white" stroke-opacity="0.27"/>
<line x1="114.743" y1="123.429" x2="104.743" y2="117.429" stroke="white" stroke-opacity="0.27"/>
<line x1="105.5" y1="118.018" x2="103.5" y2="62.0178" stroke="white" stroke-opacity="0.27"/>
<line x1="28.1171" y1="110.486" x2="-1.88265" y2="117.712" stroke="white" stroke-opacity="0.27"/>
<circle cx="103" cy="60" r="3" fill="#D0CAE8"/>
<circle cx="105" cy="118" r="2" fill="#D0CAE8"/>
<circle cx="115.5" cy="123.5" r="1.5" fill="#D0CAE8"/>
<circle cx="51.5" cy="123.5" r="1.5" fill="#D0CAE8"/>
<circle cx="28" cy="111" r="2" fill="#D0CAE8"/>
<circle cx="64" cy="87" r="2" fill="#D0CAE8"/>
<circle cx="45.5" cy="56.5" r="1.5" fill="#D0CAE8"/>
<circle cx="1" cy="71" r="1" fill="#D0CAE8"/>
<circle cx="40" cy="93" r="2" fill="#D0CAE8"/>
<path d="M18.69 88.8H25.476C27.2093 88.8 28.6827 89.3893 29.896 90.568C31.092 91.7467 31.69 93.194 31.69 94.91C31.69 96.626 31.092 98.0733 29.896 99.252C28.6827 100.431 27.2093 101.02 25.476 101.02H22.278V107H18.69V88.8ZM22.278 97.666H25.476C26.2387 97.666 26.8713 97.406 27.374 96.886C27.8767 96.3487 28.128 95.69 28.128 94.91C28.128 94.1127 27.8767 93.454 27.374 92.934C26.8713 92.414 26.2387 92.154 25.476 92.154H22.278V97.666ZM43.8661 88.8H47.9221L41.6821 99.902V107H38.1201V99.902L31.9061 88.8H35.9621L39.9141 96.392L43.8661 88.8ZM48.3146 88.8H61.7046V92.232H56.7906V107H53.2026V92.232H48.3146V88.8ZM74.0556 96.028V88.8H77.6176V107H74.0556V99.46H67.2956V107H63.7076V88.8H67.2956V96.028H74.0556ZM96.3126 104.634C94.4753 106.454 92.2393 107.364 89.6046 107.364C86.9699 107.364 84.7339 106.454 82.8966 104.634C81.0766 102.779 80.1666 100.535 80.1666 97.9C80.1666 95.248 81.0766 93.012 82.8966 91.192C84.7339 89.3547 86.9699 88.436 89.6046 88.436C92.2393 88.436 94.4753 89.3547 96.3126 91.192C98.1499 93.012 99.0686 95.248 99.0686 97.9C99.0686 100.552 98.1499 102.797 96.3126 104.634ZM85.4186 102.19C86.5279 103.299 87.9233 103.854 89.6046 103.854C91.2859 103.854 92.6813 103.299 93.7906 102.19C94.9173 101.063 95.4806 99.6333 95.4806 97.9C95.4806 96.1667 94.9173 94.7367 93.7906 93.61C92.6639 92.4833 91.2686 91.92 89.6046 91.92C87.9406 91.92 86.5453 92.4833 85.4186 93.61C84.2919 94.7367 83.7286 96.1667 83.7286 97.9C83.7286 99.6333 84.2919 101.063 85.4186 102.19ZM112.12 99.902V88.8H115.708V107H112.978L105.178 95.872V107H101.59V88.8H104.32L112.12 99.902Z" fill="white"/>
<path d="M20.85 19.346C21.5907 19.346 22.2213 19.6283 22.742 20.193C23.27 20.7577 23.534 21.4433 23.534 22.25C23.534 23.0713 23.27 23.7607 22.742 24.318C22.2287 24.8753 21.598 25.154 20.85 25.154C20.08 25.154 19.486 24.8863 19.068 24.351V27.2H17.649V19.5H19.068V20.149C19.486 19.6137 20.08 19.346 20.85 19.346ZM19.497 23.372C19.783 23.658 20.146 23.801 20.586 23.801C21.026 23.801 21.389 23.658 21.675 23.372C21.9683 23.0787 22.115 22.7047 22.115 22.25C22.115 21.7953 21.9683 21.425 21.675 21.139C21.389 20.8457 21.026 20.699 20.586 20.699C20.146 20.699 19.783 20.8457 19.497 21.139C19.211 21.425 19.068 21.7953 19.068 22.25C19.068 22.7047 19.211 23.0787 19.497 23.372ZM25.9537 19.5V20.446C26.0784 20.1013 26.2911 19.841 26.5917 19.665C26.8924 19.4817 27.2371 19.39 27.6257 19.39V20.974C27.1931 20.9153 26.8044 21.0033 26.4597 21.238C26.1224 21.4653 25.9537 21.843 25.9537 22.371V25H24.5347V19.5H25.9537ZM29.1596 18.84C28.925 18.84 28.7196 18.7557 28.5436 18.587C28.375 18.411 28.2906 18.2057 28.2906 17.971C28.2906 17.7363 28.375 17.531 28.5436 17.355C28.7196 17.179 28.925 17.091 29.1596 17.091C29.4016 17.091 29.607 17.179 29.7756 17.355C29.9516 17.531 30.0396 17.7363 30.0396 17.971C30.0396 18.2057 29.9516 18.411 29.7756 18.587C29.607 18.7557 29.4016 18.84 29.1596 18.84ZM29.8746 25H28.4556V19.5H29.8746V25ZM34.2314 19.346C34.8401 19.346 35.3351 19.5477 35.7164 19.951C36.1124 20.3617 36.3104 20.919 36.3104 21.623V25H34.8914V21.799C34.8914 21.4397 34.7924 21.161 34.5944 20.963C34.4037 20.765 34.1397 20.666 33.8024 20.666C33.4284 20.666 33.1314 20.7833 32.9114 21.018C32.6987 21.2453 32.5924 21.5827 32.5924 22.03V25H31.1734V19.5H32.5924V20.116C32.9297 19.6027 33.4761 19.346 34.2314 19.346ZM40.668 19.5V20.864H39.425V23.152C39.425 23.3427 39.4727 23.482 39.568 23.57C39.6634 23.658 39.8027 23.7093 39.986 23.724C40.1694 23.7313 40.3967 23.7277 40.668 23.713V25C39.7074 25.11 39.0217 25.022 38.611 24.736C38.2077 24.4427 38.006 23.9147 38.006 23.152V20.864H37.049V19.5H38.006V18.389L39.425 17.96V19.5H40.668ZM44.3175 26.1H42.8985C42.0918 24.4867 41.6885 22.8367 41.6885 21.15C41.6885 19.4633 42.0918 17.8133 42.8985 16.2H44.3175C43.5108 17.8133 43.1075 19.4633 43.1075 21.15C43.1075 22.8367 43.5108 24.4867 44.3175 26.1ZM46.5575 20.358H45.0175L45.8425 17.3H46.9975L46.5575 20.358ZM52.633 20.358V17.3H54.14V25H52.633V21.81H49.773V25H48.255V17.3H49.773V20.358H52.633ZM60.8505 22.833H56.7035C56.8868 23.5223 57.4038 23.867 58.2545 23.867C58.7971 23.867 59.2078 23.6837 59.4865 23.317L60.6305 23.977C60.0878 24.7617 59.2885 25.154 58.2325 25.154C57.3231 25.154 56.5935 24.879 56.0435 24.329C55.4935 23.779 55.2185 23.086 55.2185 22.25C55.2185 21.4287 55.4898 20.7393 56.0325 20.182C56.5678 19.6247 57.2645 19.346 58.1225 19.346C58.9365 19.346 59.6001 19.6247 60.1135 20.182C60.6415 20.7393 60.9055 21.4287 60.9055 22.25C60.9055 22.404 60.8871 22.5983 60.8505 22.833ZM56.6815 21.733H59.4865C59.4058 21.3737 59.2408 21.0987 58.9915 20.908C58.7495 20.7173 58.4598 20.622 58.1225 20.622C57.7411 20.622 57.4258 20.721 57.1765 20.919C56.9271 21.1097 56.7621 21.381 56.6815 21.733ZM63.3151 25H61.8961V16.97H63.3151V25ZM66.0328 25H64.6138V16.97H66.0328V25ZM72.0176 24.318C71.4603 24.8753 70.771 25.154 69.9496 25.154C69.1283 25.154 68.439 24.8753 67.8816 24.318C67.3243 23.7607 67.0456 23.0713 67.0456 22.25C67.0456 21.436 67.3243 20.7503 67.8816 20.193C68.4463 19.6283 69.1356 19.346 69.9496 19.346C70.7636 19.346 71.453 19.6283 72.0176 20.193C72.5823 20.7577 72.8646 21.4433 72.8646 22.25C72.8646 23.064 72.5823 23.7533 72.0176 24.318ZM68.8826 23.339C69.1686 23.625 69.5243 23.768 69.9496 23.768C70.375 23.768 70.7306 23.625 71.0166 23.339C71.3026 23.053 71.4456 22.69 71.4456 22.25C71.4456 21.81 71.3026 21.447 71.0166 21.161C70.7306 20.875 70.375 20.732 69.9496 20.732C69.5243 20.732 69.1686 20.875 68.8826 21.161C68.604 21.4543 68.4646 21.8173 68.4646 22.25C68.4646 22.6827 68.604 23.0457 68.8826 23.339ZM80.0119 25H78.2849L76.1289 17.3H77.7239L79.1979 23.009L80.8039 17.3H82.1019L83.7189 23.009L85.1929 17.3H86.7879L84.6319 25H82.9049L81.4529 19.918L80.0119 25ZM91.6329 24.318C91.0755 24.8753 90.3862 25.154 89.5649 25.154C88.7435 25.154 88.0542 24.8753 87.4969 24.318C86.9395 23.7607 86.6609 23.0713 86.6609 22.25C86.6609 21.436 86.9395 20.7503 87.4969 20.193C88.0615 19.6283 88.7509 19.346 89.5649 19.346C90.3789 19.346 91.0682 19.6283 91.6329 20.193C92.1975 20.7577 92.4799 21.4433 92.4799 22.25C92.4799 23.064 92.1975 23.7533 91.6329 24.318ZM88.4979 23.339C88.7839 23.625 89.1395 23.768 89.5649 23.768C89.9902 23.768 90.3459 23.625 90.6319 23.339C90.9179 23.053 91.0609 22.69 91.0609 22.25C91.0609 21.81 90.9179 21.447 90.6319 21.161C90.3459 20.875 89.9902 20.732 89.5649 20.732C89.1395 20.732 88.7839 20.875 88.4979 21.161C88.2192 21.4543 88.0799 21.8173 88.0799 22.25C88.0799 22.6827 88.2192 23.0457 88.4979 23.339ZM94.8971 19.5V20.446C95.0218 20.1013 95.2344 19.841 95.5351 19.665C95.8358 19.4817 96.1804 19.39 96.5691 19.39V20.974C96.1364 20.9153 95.7478 21.0033 95.4031 21.238C95.0658 21.4653 94.8971 21.843 94.8971 22.371V25H93.4781V19.5H94.8971ZM98.818 25H97.399V16.97H98.818V25ZM104.286 20.149V17.3H105.705V25H104.286V24.351C103.868 24.8863 103.274 25.154 102.504 25.154C101.763 25.154 101.129 24.8753 100.601 24.318C100.08 23.7533 99.8198 23.064 99.8198 22.25C99.8198 21.4433 100.08 20.7577 100.601 20.193C101.129 19.6283 101.763 19.346 102.504 19.346C103.274 19.346 103.868 19.6137 104.286 20.149ZM101.668 23.372C101.968 23.658 102.335 23.801 102.768 23.801C103.208 23.801 103.571 23.658 103.857 23.372C104.143 23.0787 104.286 22.7047 104.286 22.25C104.286 21.7953 104.143 21.425 103.857 21.139C103.571 20.8457 103.208 20.699 102.768 20.699C102.328 20.699 101.961 20.8457 101.668 21.139C101.382 21.425 101.239 21.7953 101.239 22.25C101.239 22.7047 101.382 23.0787 101.668 23.372ZM107.333 17.289H108.873L108.048 20.347H106.893L107.333 17.289ZM110.999 26.1H109.58C110.387 24.4867 110.79 22.8367 110.79 21.15C110.79 19.4633 110.387 17.8133 109.58 16.2H110.999C111.806 17.8133 112.209 19.4633 112.209 21.15C112.209 22.8367 111.806 24.4867 110.999 26.1Z" fill="#D3DBE9"/>
<rect x="17" y="32" width="95" height="2" rx="1" fill="#D3DBE9"/>
<rect x="17" y="36" width="95" height="2" rx="1" fill="#D3DBE9"/>
<rect x="17" y="40" width="81" height="2" rx="1" fill="#D3DBE9"/>
<rect x="17" y="44" width="37" height="2" rx="1" fill="#D3DBE9"/>
<rect x="17" y="48" width="37" height="2" rx="1" fill="#D3DBE9"/>
<rect x="17" y="52" width="65" height="2" rx="1" fill="#D3DBE9"/>
<rect x="17" y="56" width="72" height="2" rx="1" fill="#D3DBE9"/>
<rect x="17" y="60" width="72" height="2" rx="1" fill="#D3DBE9"/>
</g>
<rect x="0.5" y="0.5" width="135" height="135" rx="19.5" stroke="#051B2F"/>
<rect x="0.5" y="0.5" width="135" height="135" rx="19.5" stroke="black" stroke-opacity="0.2"/>
<defs>
<linearGradient id="paint0_linear_3328_1015" x1="0" y1="0" x2="157.842" y2="33.7004" gradientUnits="userSpaceOnUse">
<stop stop-color="#935113"/>
<stop offset="1" stop-color="#B5A034"/>
</linearGradient>
<clipPath id="clip0_3328_1015">
<rect width="136" height="136" rx="20" fill="white"/>
</clipPath>
</defs>
</svg>
