<svg width="116" height="116" viewBox="0 0 116 116" fill="none" xmlns="http://www.w3.org/2000/svg">
<g clip-path="url(#clip0_3775_6900)">
<rect width="116" height="116" rx="26" fill="#1F2023"/>
<g filter="url(#filter0_f_3775_6900)">
<rect x="8" y="8" width="100" height="100" rx="20" fill="#5ED3F3"/>
</g>
<rect x="8" y="8" width="100" height="100" rx="20" fill="#121416"/>
<path d="M83.7801 44.7085C82.9112 44.4117 82.0361 44.1353 81.1548 43.8793C81.301 43.2845 81.4358 42.6864 81.5592 42.0849C83.5473 32.4163 82.2474 24.6271 77.8108 22.063C73.5627 19.6025 66.5959 22.1666 59.568 28.2974C58.8769 28.9023 58.2001 29.5254 57.5374 30.1666C57.0956 29.7406 56.6425 29.3237 56.178 28.9159C48.8119 22.3604 41.4288 19.5991 36.9972 22.1717C32.7492 24.6373 31.4867 31.9592 33.2759 41.1231C33.4549 42.0294 33.656 42.9317 33.8792 43.83C32.8341 44.1273 31.8248 44.4451 30.8596 44.7815C22.2344 47.7977 16.7188 52.5266 16.7188 57.4305C16.7188 62.4976 22.6388 67.5783 31.6328 70.6589C32.3623 70.907 33.0987 71.1376 33.8418 71.3505C33.6005 72.3123 33.387 73.2848 33.2012 74.2681C31.502 83.2739 32.8273 90.4226 37.0669 92.8728C41.4458 95.403 48.7915 92.8032 55.952 86.533C56.5184 86.0369 57.0848 85.5129 57.6512 84.9613C58.3672 85.6534 59.1035 86.3252 59.8602 86.9765C66.793 92.9544 73.6392 95.369 77.8719 92.9119C82.2474 90.3733 83.6697 82.6928 81.8226 73.3488C81.681 72.6351 81.5179 71.9067 81.3332 71.1636C81.8498 71.0107 82.3556 70.8527 82.8506 70.6895C92.1964 67.5851 98.2846 62.5656 98.2846 57.4356C98.2812 52.5079 92.5889 47.7484 83.7801 44.7085ZM61.8602 30.9312C67.8805 25.6789 73.5083 23.6059 76.0742 25.0876C78.8048 26.6662 79.8668 33.0314 78.1506 41.3797C78.0373 41.9235 77.915 42.4655 77.7836 43.0059C74.1908 42.1887 70.5475 41.6119 66.878 41.2795C64.777 38.2529 62.4738 35.3719 59.9843 32.6559C60.5937 32.0646 61.2179 31.4897 61.8568 30.9312H61.8602ZM40.8018 61.6208C41.5392 63.0481 42.3101 64.4579 43.1144 65.8502C43.9334 67.2707 44.787 68.6703 45.6751 70.0489C43.1502 69.7744 40.6411 69.37 38.1578 68.8374C38.8783 66.5061 39.7653 64.0847 40.8018 61.6208ZM40.8018 53.4085C39.7822 50.9973 38.919 48.6252 38.2105 46.3346C40.5384 45.813 43.0193 45.3865 45.6055 45.0636C44.7389 46.4162 43.9051 47.7886 43.1042 49.1808C42.3033 50.573 41.5341 51.9823 40.7967 53.4085H40.8018ZM42.6539 57.5155C43.7278 55.2759 44.8844 53.0794 46.1237 50.9259C47.3619 48.7736 48.6799 46.6705 50.0778 44.6167C52.5043 44.4332 54.992 44.3363 57.5051 44.3363C60.0182 44.3363 62.5212 44.4332 64.946 44.6184C66.3291 46.6677 67.6392 48.7634 68.8763 50.9055C70.1133 53.0477 71.2852 55.234 72.392 57.4645C71.2999 59.712 70.1309 61.9176 68.8848 64.0813C67.6489 66.2336 66.3461 68.3429 64.9766 70.4092C62.5552 70.5791 60.0488 70.6725 57.5 70.6725C54.9512 70.6725 52.4924 70.5927 50.1152 70.438C48.7071 68.3775 47.3783 66.2653 46.1288 64.1017C44.8793 61.938 43.7193 59.7426 42.6488 57.5155H42.6539ZM71.9009 65.8264C72.7222 64.4013 73.5106 62.9575 74.2662 61.4951C75.302 63.8435 76.2162 66.2437 77.0053 68.6862C74.4928 69.2519 71.9524 69.6858 69.3945 69.9861C70.2577 68.6165 71.0932 67.2299 71.9009 65.8264ZM74.2322 53.4102C73.48 51.9772 72.6978 50.5611 71.8856 49.1621C71.0926 47.7824 70.2662 46.4196 69.4064 45.0738C72.0079 45.4035 74.5041 45.8419 76.8439 46.3771C76.0916 48.7637 75.22 51.111 74.2322 53.4102ZM57.5391 35.1521C59.2358 37.0061 60.838 38.9445 62.3394 40.96C59.1279 40.8071 55.9141 40.8071 52.698 40.96C54.2834 38.8632 55.9061 36.9176 57.5391 35.1521ZM38.7508 25.1913C41.4798 23.6076 47.5137 25.8709 53.8739 31.5242C54.28 31.8862 54.6895 32.2651 55.0973 32.6576C52.595 35.3732 50.2755 38.2517 48.1543 41.2744C44.4929 41.6042 40.8568 42.1719 37.2691 42.9736C37.0618 42.1398 36.8749 41.3004 36.7084 40.4553C35.1706 32.5998 36.1884 26.6781 38.7508 25.1913ZM34.7729 67.9861C34.0933 67.7924 33.4221 67.5822 32.7594 67.3557C28.7832 65.9963 25.4986 64.2223 23.2438 62.2903C21.2251 60.5588 20.2021 58.8307 20.2021 57.4305C20.2021 54.4552 24.6303 50.6591 32.0151 48.0848C32.9429 47.762 33.8786 47.4669 34.8222 47.1995C35.919 50.7242 37.2473 54.1726 38.7984 57.5223C37.2288 60.9183 35.8841 64.4137 34.7729 67.9861ZM53.6564 83.9027C50.4907 86.6758 47.32 88.6418 44.5248 89.6324C42.0133 90.5211 40.0133 90.5466 38.8052 89.8482C36.2326 88.3614 35.1621 82.6198 36.6217 74.9189C36.795 74.0126 36.9933 73.1064 37.2164 72.2001C40.8401 72.9807 44.5126 73.5138 48.2087 73.7957C50.3506 76.8341 52.6892 79.7289 55.2095 82.4617C54.7031 82.9596 54.1848 83.4388 53.6564 83.9027ZM57.6359 79.9571C55.9843 78.1712 54.3361 76.195 52.7286 74.071C54.2907 74.1321 55.8812 74.1627 57.5 74.1627C59.1618 74.1627 60.8067 74.1271 62.4277 74.054C60.9318 76.1018 59.3324 78.072 57.6359 79.9571ZM78.7946 84.8151C78.3086 87.4387 77.3316 89.1889 76.1234 89.889C73.5525 91.3809 68.0555 89.4421 62.1287 84.3292C61.449 83.7446 60.7693 83.1176 60.0777 82.46C62.5489 79.7166 64.8327 76.81 66.9137 73.76C70.6302 73.4451 74.3205 72.8746 77.9586 72.0523C78.1251 72.7252 78.2724 73.3845 78.4004 74.0302C79.2177 78.1593 79.335 81.8942 78.7946 84.8151ZM81.7513 67.3744C81.3061 67.5222 80.8473 67.6649 80.3817 67.8043C79.2409 64.263 77.8608 60.8033 76.2509 57.4492C77.8004 54.1398 79.1265 50.7304 80.2203 47.2437C81.0546 47.4867 81.8651 47.7416 82.645 48.0118C90.193 50.615 94.7979 54.4688 94.7979 57.4305C94.7979 60.5911 89.8242 64.693 81.7513 67.3744Z" fill="#22C2F3"/>
<path d="M57.5016 64.7304C58.9477 64.7351 60.3627 64.3106 61.5674 63.5106C62.7721 62.7106 63.7123 61.5711 64.269 60.2364C64.8257 58.9018 64.9738 57.4319 64.6945 56.013C64.4153 54.5941 63.7213 53.2899 62.7004 52.2657C61.6795 51.2415 60.3776 50.5432 58.9596 50.2593C57.5416 49.9755 56.0713 50.1188 54.7348 50.6711C53.3983 51.2234 52.2557 52.1599 51.4518 53.362C50.6479 54.5641 50.2188 55.9777 50.2188 57.4238C50.2168 58.3819 50.4036 59.331 50.7686 60.2168C51.1336 61.1026 51.6696 61.9079 52.3459 62.5864C53.0223 63.265 53.8258 63.8036 54.7104 64.1715C55.5951 64.5394 56.5435 64.7293 57.5016 64.7304Z" fill="#22C2F3"/>
</g>
<defs>
<filter id="filter0_f_3775_6900" x="-9.1" y="-9.1" width="134.2" height="134.2" filterUnits="userSpaceOnUse" color-interpolation-filters="sRGB">
<feFlood flood-opacity="0" result="BackgroundImageFix"/>
<feBlend mode="normal" in="SourceGraphic" in2="BackgroundImageFix" result="shape"/>
<feGaussianBlur stdDeviation="8.55" result="effect1_foregroundBlur_3775_6900"/>
</filter>
<clipPath id="clip0_3775_6900">
<rect width="116" height="116" rx="26" fill="white"/>
</clipPath>
</defs>
</svg>
