<svg width="193" height="193" viewBox="0 0 193 193" fill="none" xmlns="http://www.w3.org/2000/svg">
<rect width="193" height="193" fill="black"/>
<path d="M87.7765 73.0098H71.4512V105.694H87.7765V73.0098Z" fill="white"/>
<path d="M132.732 73.0098H116.406V105.694H132.732V73.0098Z" fill="white"/>
<path d="M32 133L32 83.49C32 75.5016 38.3373 68.9977 46.1211 68.9977V147.492C38.3373 147.492 32 140.988 32 133Z" fill="white"/>
<path d="M95.5527 147.492H47.3114C39.5276 147.492 33.1903 140.988 33.1903 133H109.674C109.674 140.988 103.337 147.492 95.5527 147.492Z" fill="white"/>
<path d="M162.535 57.3863V96.1977C162.535 102.843 157.277 108.263 150.779 108.263V52.0371H157.323C160.193 52.0371 162.535 54.4407 162.535 57.3863Z" fill="white"/>
<path d="M114.717 46H150.812C157.287 46 162.568 51.3964 162.568 58.0652H102.961C102.961 51.3964 108.219 46 114.717 46Z" fill="white"/>
<path d="M87.7765 73.0098H71.4512V105.694H87.7765V73.0098Z" fill="white"/>
<path d="M132.732 73.0098H116.406V105.694H132.732V73.0098Z" fill="white"/>
<path d="M32 133L32 83.49C32 75.5016 38.3373 68.9977 46.1211 68.9977V147.492C38.3373 147.492 32 140.988 32 133Z" fill="white"/>
<path d="M95.5527 147.492H47.3114C39.5276 147.492 33.1903 140.988 33.1903 133H109.674C109.674 140.988 103.337 147.492 95.5527 147.492Z" fill="white"/>
<path d="M162.535 57.3863V96.1977C162.535 102.843 157.277 108.263 150.779 108.263V52.0371H157.323C160.193 52.0371 162.535 54.4407 162.535 57.3863Z" fill="white"/>
<path d="M114.717 46H150.812C157.287 46 162.568 51.3964 162.568 58.0652H102.961C102.961 51.3964 108.219 46 114.717 46Z" fill="white"/>
</svg>
