<svg width="116" height="116" viewBox="0 0 116 116" fill="none" xmlns="http://www.w3.org/2000/svg">
<g clip-path="url(#clip0_3775_6708)">
<rect width="116" height="116" rx="26" fill="#151922"/>
<g filter="url(#filter0_f_3775_6708)">
<rect x="8" y="8" width="100" height="100" rx="20" fill="#9ACFEE"/>
</g>
<g clip-path="url(#clip1_3775_6708)">
<rect x="8" y="8" width="100" height="100" rx="20" fill="#45738E"/>
<path d="M52 61.5C55 68 57.6667 78.3333 58 82C59 77 54.5 66.5 54 61.5C53.6 57.5 64.3333 30.1667 69 17C63 29 55 47 52 61.5Z" fill="#417398"/>
<path d="M36.4597 21.4228C54.3436 44.9958 52.3979 60.963 49.1896 66C52.6051 65.4333 52.9152 53.9114 52.9152 50.3225C52.9152 47.4514 55.6061 42.3263 56.9515 40.1226C57.1999 39.3671 56.434 37.1634 56.02 36.156C54.7781 37.0627 52.8117 39.8078 51.9837 41.0671C51.7354 40.0093 53.9501 36.4708 55.0886 34.8338C55.0886 34.2294 54.0536 32.3153 53.5362 31.4339C52.5426 32.0383 50.6383 34.8338 49.8104 36.156C49.8104 34.4938 51.8802 31.3079 52.9152 29.9228C50.1829 21.1584 40.8064 11.16 36.4597 7.25632C25.5308 -2.56578 16.3817 -1.62134 13.1732 0.0786333C6.46673 2.64749 7.68797 9.83777 9.13689 13.1118C10.3788 18.0984 19.1759 27.2783 23.4192 31.2449C28.6353 32.3027 36.149 34.7078 39.2539 35.7782C36.77 35.0226 29.1114 33.8263 25.5926 33.3226C27.145 34.8337 29.9394 37.4781 36.4597 42.0114C44.1599 44.8825 47.7406 48.3706 48.5684 49.7558C45.8802 41.2559 42.3587 35.7782 35.2176 24.445C29.5047 15.3784 19.5899 7.06743 15.3466 4.04525C21.5563 6.16078 32.0094 16.5118 36.4597 21.4228Z" fill="url(#paint0_linear_3775_6708)"/>
<path d="M83.4392 64.559C56.0659 124.019 59.044 164.295 63.9547 177C58.7269 175.57 58.2522 146.508 58.2522 137.455C58.2522 130.213 54.1336 117.286 52.0742 111.727C51.6941 109.821 52.8663 104.263 53.4999 101.722C55.4009 104.009 58.4107 110.933 59.6779 114.109C60.0581 111.441 56.6681 102.516 54.9256 98.3868C54.9256 96.8622 56.5097 92.0342 57.3018 89.8108C58.8225 91.3354 61.7373 98.3868 63.0046 101.722C63.0046 97.5292 59.8364 89.4932 58.2522 85.9992C62.4343 63.8922 76.7861 38.6722 83.4392 28.8256C100.167 4.0505 114.171 6.43273 119.082 10.7207C129.347 17.2004 127.478 35.3371 125.26 43.5954C123.359 56.1736 109.894 79.3288 103.399 89.3341C95.4153 92.0022 83.9147 98.069 79.1624 100.769C82.9643 98.863 94.6866 95.8456 100.073 94.575C97.6964 98.3866 93.4194 105.057 83.4392 116.491C71.6532 123.733 66.1726 132.532 64.9055 136.026C69.0201 114.586 74.4101 100.769 85.3404 72.1821C94.0847 49.3128 109.26 28.3492 115.755 20.7261C106.251 26.0623 90.251 52.1714 83.4392 64.559Z" fill="url(#paint1_linear_3775_6708)"/>
</g>
<rect x="8.5" y="8.5" width="99" height="99" rx="19.5" stroke="white"/>
<path d="M29.4951 46.4869C54.3136 86.9481 51.6134 114.354 47.161 123C51.901 122.027 52.3313 102.251 52.3313 96.0909C52.3313 91.1629 56.0656 82.3661 57.9327 78.5836C58.2774 77.2868 57.2146 73.5044 56.6401 71.7753C54.9166 73.3315 52.1877 78.0433 51.0387 80.2047C50.694 78.3891 53.7675 72.3156 55.3474 69.5058C55.3474 68.4684 53.9112 65.183 53.193 63.6701C51.8142 64.7075 49.1715 69.5058 48.0225 71.7753C48.0225 68.9222 50.895 63.4539 52.3313 61.0764C48.5396 46.0331 35.5273 28.8716 29.4951 22.1713C14.3285 5.31247 1.63169 6.93351 -2.82087 9.85139C-12.1278 14.2606 -10.433 26.6021 -8.42226 32.2217C-6.69876 40.7808 5.5094 56.5373 11.398 63.3457C18.6368 65.1613 29.064 69.2895 33.3727 71.1267C29.9257 69.8299 19.2974 67.7766 14.4142 66.912C16.5686 69.5057 20.4464 74.0446 29.4951 81.8256C40.1811 86.7535 45.1502 92.7406 46.299 95.1181C42.5685 80.5287 37.6815 71.1267 27.7713 51.6742C19.8432 36.1122 6.0839 21.8471 0.195259 16.6598C8.81279 20.2909 23.3191 38.0575 29.4951 46.4869Z" fill="url(#paint2_linear_3775_6708)"/>
</g>
<defs>
<filter id="filter0_f_3775_6708" x="-4.1" y="-4.1" width="124.2" height="124.2" filterUnits="userSpaceOnUse" color-interpolation-filters="sRGB">
<feFlood flood-opacity="0" result="BackgroundImageFix"/>
<feBlend mode="normal" in="SourceGraphic" in2="BackgroundImageFix" result="shape"/>
<feGaussianBlur stdDeviation="6.05" result="effect1_foregroundBlur_3775_6708"/>
</filter>
<linearGradient id="paint0_linear_3775_6708" x1="32.5" y1="-1" x2="32.5" y2="66" gradientUnits="userSpaceOnUse">
<stop stop-color="white"/>
<stop offset="1" stop-color="white" stop-opacity="0"/>
</linearGradient>
<linearGradient id="paint1_linear_3775_6708" x1="89.5" y1="8" x2="89.5" y2="177" gradientUnits="userSpaceOnUse">
<stop stop-color="white"/>
<stop offset="1" stop-color="white" stop-opacity="0"/>
</linearGradient>
<linearGradient id="paint2_linear_3775_6708" x1="24" y1="8" x2="24" y2="123" gradientUnits="userSpaceOnUse">
<stop stop-color="white"/>
<stop offset="1" stop-color="white"/>
</linearGradient>
<clipPath id="clip0_3775_6708">
<rect width="116" height="116" rx="26" fill="white"/>
</clipPath>
<clipPath id="clip1_3775_6708">
<rect x="8" y="8" width="100" height="100" rx="20" fill="white"/>
</clipPath>
</defs>
</svg>
