<svg width="136" height="136" viewBox="0 0 136 136" fill="none" xmlns="http://www.w3.org/2000/svg">
<g clip-path="url(#clip0_3328_1112)">
<rect width="136" height="136" rx="20" fill="#9ACFEE"/>
<path d="M100.01 37.0739C50.3728 144.384 55.7731 217.07 64.6779 240C55.1981 237.42 54.3374 184.97 54.3374 168.632C54.3374 155.563 46.8689 132.232 43.1346 122.2C42.4452 118.761 44.5709 108.729 45.7199 104.143C49.1669 108.27 54.6247 120.767 56.9227 126.499C57.6121 121.684 51.4649 105.576 48.3051 98.1241C48.3051 95.3726 51.1776 86.6594 52.6139 82.6467C55.3715 85.3983 60.6569 98.1241 62.9549 104.143C62.9549 96.5764 57.2099 82.0735 54.3374 75.7679C61.9208 35.8705 87.9454 -9.64478 100.01 -27.4153C130.343 -72.1278 155.737 -67.8285 164.642 -60.0898C183.256 -48.3958 179.866 -15.6639 175.845 -0.759727C172.398 21.9405 147.981 63.7295 136.204 81.7865C121.726 86.6017 100.872 97.5505 92.2545 102.423C99.1486 98.9836 120.405 93.5378 130.172 91.2449C125.863 98.1237 118.107 110.162 100.01 130.798C78.6379 143.868 68.6996 159.747 66.4019 166.052C73.8631 127.359 83.637 102.423 103.457 50.8316C119.314 9.55854 146.832 -28.2751 158.609 -42.0328C141.374 -32.4024 112.362 14.7177 100.01 37.0739Z" fill="#153A55"/>
<path d="M33.512 78.392C31.5893 78.392 29.9653 77.9627 28.64 77.104C27.3147 76.2453 26.372 75.06 25.812 73.548L29.116 71.616C29.8813 73.6133 31.384 74.612 33.624 74.612C34.6693 74.612 35.4533 74.4253 35.976 74.052C36.4987 73.6787 36.76 73.1747 36.76 72.54C36.76 71.8493 36.452 71.3173 35.836 70.944C35.22 70.552 34.1187 70.132 32.532 69.684C30.8147 69.1613 29.4613 68.5547 28.472 67.864C27.24 66.9493 26.624 65.6053 26.624 63.832C26.624 62.04 27.2493 60.6307 28.5 59.604C29.7507 58.54 31.272 58.008 33.064 58.008C34.632 58.008 36.0227 58.3907 37.236 59.156C38.4493 59.9213 39.392 61.004 40.064 62.404L36.816 64.28C36.032 62.6 34.7813 61.76 33.064 61.76C32.28 61.76 31.6547 61.9467 31.188 62.32C30.7213 62.6747 30.488 63.1413 30.488 63.72C30.488 64.336 30.74 64.84 31.244 65.232C31.804 65.624 32.7933 66.0347 34.212 66.464L35.556 66.912C35.7987 66.9867 36.2187 67.1453 36.816 67.388C37.376 67.5933 37.7867 67.7893 38.048 67.976C38.9627 68.536 39.5787 69.1147 39.896 69.712C40.3813 70.496 40.624 71.42 40.624 72.484C40.624 74.2947 39.9613 75.732 38.636 76.796C37.3107 77.86 35.6027 78.392 33.512 78.392ZM62.4675 68.2C62.4675 70.72 61.6648 72.9227 60.0595 74.808L62.0755 76.908L59.3315 79.344L57.2035 77.132C55.6915 77.972 54.0488 78.392 52.2755 78.392C49.4755 78.392 47.0768 77.412 45.0795 75.452C43.1008 73.4733 42.1115 71.056 42.1115 68.2C42.1115 65.344 43.1008 62.936 45.0795 60.976C47.0582 58.9973 49.4568 58.008 52.2755 58.008C55.0942 58.008 57.4928 58.9973 59.4715 60.976C61.4688 62.936 62.4675 65.344 62.4675 68.2ZM52.2755 74.612C53.0222 74.612 53.7502 74.4907 54.4595 74.248L51.2395 70.888L53.9835 68.452L57.4275 72.036C58.2115 70.916 58.6035 69.6373 58.6035 68.2C58.6035 66.3333 57.9968 64.7933 56.7835 63.58C55.5702 62.3667 54.0675 61.76 52.2755 61.76C50.4835 61.76 48.9808 62.3667 47.7675 63.58C46.5542 64.7933 45.9475 66.3333 45.9475 68.2C45.9475 70.048 46.5542 71.5787 47.7675 72.792C48.9808 74.0053 50.4835 74.612 52.2755 74.612ZM69.184 58.4V74.304H76.66V78H65.32V58.4H69.184ZM80.4792 62.32C79.8818 62.32 79.3592 62.1053 78.9112 61.676C78.4818 61.228 78.2672 60.7053 78.2672 60.108C78.2672 59.5107 78.4818 58.988 78.9112 58.54C79.3592 58.092 79.8818 57.868 80.4792 57.868C81.0952 57.868 81.6178 58.092 82.0472 58.54C82.4952 58.988 82.7192 59.5107 82.7192 60.108C82.7192 60.7053 82.4952 61.228 82.0472 61.676C81.6178 62.1053 81.0952 62.32 80.4792 62.32ZM82.2992 78H78.6872V64H82.2992V78ZM93.6131 64V67.472H90.4491V73.296C90.4491 73.7813 90.5705 74.136 90.8131 74.36C91.0558 74.584 91.4105 74.7147 91.8771 74.752C92.3438 74.7707 92.9225 74.7613 93.6131 74.724V78C91.1678 78.28 89.4225 78.056 88.3771 77.328C87.3505 76.5813 86.8371 75.2373 86.8371 73.296V67.472H84.4011V64H86.8371V61.172L90.4491 60.08V64H93.6131ZM109.33 72.484H98.7743C99.241 74.2387 100.557 75.116 102.722 75.116C104.104 75.116 105.149 74.6493 105.858 73.716L108.77 75.396C107.389 77.3933 105.354 78.392 102.666 78.392C100.352 78.392 98.4943 77.692 97.0943 76.292C95.6943 74.892 94.9943 73.128 94.9943 71C94.9943 68.9093 95.685 67.1547 97.0663 65.736C98.429 64.3173 100.202 63.608 102.386 63.608C104.458 63.608 106.148 64.3173 107.454 65.736C108.798 67.1547 109.47 68.9093 109.47 71C109.47 71.392 109.424 71.8867 109.33 72.484ZM98.7183 69.684H105.858C105.653 68.7693 105.233 68.0693 104.598 67.584C103.982 67.0987 103.245 66.856 102.386 66.856C101.416 66.856 100.613 67.108 99.9783 67.612C99.3436 68.0973 98.9236 68.788 98.7183 69.684Z" fill="white"/>
</g>
<rect x="0.5" y="0.5" width="135" height="135" rx="19.5" stroke="white"/>
<defs>
<clipPath id="clip0_3328_1112">
<rect width="136" height="136" rx="20" fill="white"/>
</clipPath>
</defs>
</svg>
