<svg width="20" height="20" viewBox="0 0 22 19" fill="none" xmlns="http://www.w3.org/2000/svg">
<path d="M21.5846 0.261194C21.2093 -0.0409064 20.6199 -0.0841315 20.0104 0.148144H20.0094C19.3685 0.392295 1.86576 7.51922 1.15324 7.81039C1.02365 7.85314 -0.108174 8.25404 0.00841053 9.14705C0.112486 9.95217 1.02215 10.2856 1.13323 10.3241L5.58295 11.7705C5.87817 12.7034 6.96646 16.1452 7.20713 16.8805C7.35724 17.3389 7.60192 17.9412 8.03073 18.0652C8.407 18.2029 8.78127 18.0771 9.02345 17.8966L11.7439 15.5011L16.1356 18.7525L16.2402 18.8119C16.5384 18.9373 16.8241 19 17.0968 19C17.3075 19 17.5096 18.9625 17.7027 18.8874C18.3607 18.6309 18.6239 18.0357 18.6514 17.9683L21.9318 1.78167C22.132 0.917171 21.8538 0.47732 21.5846 0.261194ZM9.5073 12.349L8.00621 16.149L6.50512 11.399L18.0135 3.324L9.5073 12.349Z" fill="white"/>
</svg>
