<svg width="22" height="22" viewBox="0 0 22 22" fill="none" xmlns="http://www.w3.org/2000/svg">
<rect width="22" height="22" rx="1" fill="white"/>
<path d="M18.679 4.20621C18.389 3.96771 17.9335 3.93358 17.4626 4.11696C16.9673 4.30971 3.44172 9.93622 2.89114 10.1661C2.791 10.1998 1.91641 10.5164 2.0065 11.2214C2.08692 11.857 2.78984 12.1202 2.87567 12.1506L6.3141 13.2925C6.54222 14.029 7.38317 16.7462 7.56915 17.3267C7.68514 17.6886 7.87421 18.1641 8.20556 18.262C8.49632 18.3707 8.78553 18.2714 8.97267 18.1289L11.0748 16.2377L14.4684 18.8046L14.5492 18.8515C14.7797 18.9505 15.0004 19 15.2112 19C15.3739 19 15.5301 18.9704 15.6794 18.9111C16.1878 18.7086 16.3912 18.2387 16.4125 18.1855L18.9473 5.40658C19.102 4.72408 18.887 4.37683 18.679 4.20621Z" fill="black"/>
<path d="M17.5 5.5L5.5 10.5L7.10804 11.036C7.98631 11.3288 8.95054 11.1996 9.72083 10.6861L17.5 5.5Z" fill="white"/>
</svg>
