<svg width="116" height="116" viewBox="0 0 116 116" fill="none" xmlns="http://www.w3.org/2000/svg">
<rect width="116" height="116" rx="26" fill="#151622"/>
<rect x="8" y="8" width="100" height="100" rx="20" fill="#1C3C61"/>
<g clip-path="url(#clip0_3775_7260)">
<rect x="14" y="14" width="94" height="94" rx="18" fill="#3579C6"/>
<path d="M46.598 63.8H70.288V69.872H61.594V96H55.246V69.872H46.598V63.8ZM83.9274 96.644C80.7687 96.644 78.1007 95.9387 75.9234 94.528C73.746 93.1173 72.1974 91.17 71.2774 88.686L76.7054 85.512C77.9627 88.7933 80.4314 90.434 84.1114 90.434C85.8287 90.434 87.1167 90.1273 87.9754 89.514C88.834 88.9007 89.2634 88.0727 89.2634 87.03C89.2634 85.8953 88.7574 85.0213 87.7454 84.408C86.7334 83.764 84.924 83.074 82.3174 82.338C79.496 81.4793 77.2727 80.4827 75.6474 79.348C73.6234 77.8453 72.6114 75.6373 72.6114 72.724C72.6114 69.78 73.6387 67.4647 75.6934 65.778C77.748 64.03 80.2474 63.156 83.1914 63.156C85.7674 63.156 88.052 63.7847 90.0454 65.042C92.0387 66.2993 93.5874 68.078 94.6914 70.378L89.3554 73.46C88.0674 70.7 86.0127 69.32 83.1914 69.32C81.9034 69.32 80.876 69.6267 80.1094 70.24C79.3427 70.8227 78.9594 71.5893 78.9594 72.54C78.9594 73.552 79.3734 74.38 80.2014 75.024C81.1214 75.668 82.7467 76.3427 85.0774 77.048L87.2854 77.784C87.684 77.9067 88.374 78.1673 89.3554 78.566C90.2754 78.9033 90.95 79.2253 91.3794 79.532C92.882 80.452 93.894 81.4027 94.4154 82.384C95.2127 83.672 95.6114 85.19 95.6114 86.938C95.6114 89.9127 94.5227 92.274 92.3454 94.022C90.168 95.77 87.362 96.644 83.9274 96.644Z" fill="white"/>
</g>
<defs>
<clipPath id="clip0_3775_7260">
<rect x="14" y="14" width="94" height="94" rx="18" fill="white"/>
</clipPath>
</defs>
</svg>
