<svg width="136" height="136" viewBox="0 0 136 136" fill="none" xmlns="http://www.w3.org/2000/svg">
<g clip-path="url(#clip0_3328_1110)">
<rect width="136" height="136" rx="20" fill="#152F5D"/>
<rect x="8" y="8" width="120" height="120" rx="12" fill="#3579C6"/>
<path d="M38.949 65.9H76.544V75.536H62.747V117H52.673V75.536H38.949V65.9ZM98.1891 118.022C93.1764 118.022 88.9424 116.903 85.4871 114.664C82.0317 112.425 79.5741 109.335 78.1141 105.393L86.7281 100.356C88.7234 105.563 92.6411 108.167 98.4811 108.167C101.206 108.167 103.25 107.68 104.613 106.707C105.976 105.734 106.657 104.42 106.657 102.765C106.657 100.964 105.854 99.5773 104.248 98.604C102.642 97.582 99.7707 96.487 95.6341 95.319C91.1567 93.9563 87.6284 92.3747 85.0491 90.574C81.8371 88.1893 80.2311 84.6853 80.2311 80.062C80.2311 75.39 81.8614 71.7157 85.1221 69.039C88.3827 66.265 92.3491 64.878 97.0211 64.878C101.109 64.878 104.735 65.8757 107.898 67.871C111.061 69.8663 113.519 72.689 115.271 76.339L106.803 81.23C104.759 76.85 101.498 74.66 97.0211 74.66C94.9771 74.66 93.3467 75.1467 92.1301 76.12C90.9134 77.0447 90.3051 78.2613 90.3051 79.77C90.3051 81.376 90.9621 82.69 92.2761 83.712C93.7361 84.734 96.3154 85.8047 100.014 86.924L103.518 88.092C104.151 88.2867 105.246 88.7003 106.803 89.333C108.263 89.8683 109.334 90.3793 110.015 90.866C112.4 92.326 114.006 93.8347 114.833 95.392C116.098 97.436 116.731 99.845 116.731 102.619C116.731 107.34 115.003 111.087 111.548 113.861C108.093 116.635 103.64 118.022 98.1891 118.022Z" fill="white"/>
<path d="M19.169 18.9H25.864V20.616H23.407V28H21.613V20.616H19.169V18.9ZM28.6558 25.868L30.0988 21.5H31.8928L29.5268 28C29.1888 28.936 28.7381 29.612 28.1748 30.028C27.6201 30.4527 26.9268 30.6433 26.0948 30.6V29.04C26.5368 29.0487 26.8921 28.9533 27.1608 28.754C27.4294 28.5547 27.6418 28.234 27.7978 27.792L25.1328 21.5H26.9658L28.6558 25.868ZM36.4738 21.318C37.3492 21.318 38.0945 21.6517 38.7098 22.319C39.3338 22.9863 39.6458 23.7967 39.6458 24.75C39.6458 25.7207 39.3338 26.5353 38.7098 27.194C38.1032 27.8527 37.3578 28.182 36.4738 28.182C35.5638 28.182 34.8618 27.8657 34.3678 27.233V30.6H32.6908V21.5H34.3678V22.267C34.8618 21.6343 35.5638 21.318 36.4738 21.318ZM34.8748 26.076C35.2128 26.414 35.6418 26.583 36.1618 26.583C36.6818 26.583 37.1108 26.414 37.4488 26.076C37.7955 25.7293 37.9688 25.2873 37.9688 24.75C37.9688 24.2127 37.7955 23.775 37.4488 23.437C37.1108 23.0903 36.6818 22.917 36.1618 22.917C35.6418 22.917 35.2128 23.0903 34.8748 23.437C34.5368 23.775 34.3678 24.2127 34.3678 24.75C34.3678 25.2873 34.5368 25.7293 34.8748 26.076ZM47.1465 25.439H42.2455C42.4622 26.2537 43.0732 26.661 44.0785 26.661C44.7199 26.661 45.2052 26.4443 45.5345 26.011L46.8865 26.791C46.2452 27.7183 45.3005 28.182 44.0525 28.182C42.9779 28.182 42.1155 27.857 41.4655 27.207C40.8155 26.557 40.4905 25.738 40.4905 24.75C40.4905 23.7793 40.8112 22.9647 41.4525 22.306C42.0852 21.6473 42.9085 21.318 43.9225 21.318C44.8845 21.318 45.6689 21.6473 46.2755 22.306C46.8995 22.9647 47.2115 23.7793 47.2115 24.75C47.2115 24.932 47.1899 25.1617 47.1465 25.439ZM42.2195 24.139H45.5345C45.4392 23.7143 45.2442 23.3893 44.9495 23.164C44.6635 22.9387 44.3212 22.826 43.9225 22.826C43.4719 22.826 43.0992 22.943 42.8045 23.177C42.5099 23.4023 42.3149 23.723 42.2195 24.139ZM51.5152 28.156C50.6832 28.156 49.9682 27.961 49.3702 27.571C48.7809 27.1723 48.3692 26.6263 48.1352 25.933L48.9152 25.478C49.0799 26.05 49.3832 26.492 49.8252 26.804C50.2759 27.116 50.8436 27.272 51.5282 27.272C52.1956 27.272 52.7199 27.1247 53.1012 26.83C53.4826 26.5353 53.6732 26.1367 53.6732 25.634C53.6732 25.1573 53.4999 24.7977 53.1532 24.555C52.8152 24.3123 52.2432 24.061 51.4372 23.801C50.4752 23.4803 49.8512 23.229 49.5652 23.047C48.8719 22.631 48.5252 22.0287 48.5252 21.24C48.5252 20.4687 48.7939 19.862 49.3312 19.42C49.8599 18.9693 50.5229 18.744 51.3202 18.744C52.0049 18.744 52.6116 18.926 53.1402 19.29C53.6689 19.6453 54.0632 20.1177 54.3232 20.707L53.5562 21.136C53.1402 20.1307 52.3949 19.628 51.3202 19.628C50.7482 19.628 50.2889 19.771 49.9422 20.057C49.6042 20.3343 49.4352 20.7157 49.4352 21.201C49.4352 21.6603 49.5912 21.9983 49.9032 22.215C50.2239 22.4403 50.7396 22.67 51.4502 22.904L52.1522 23.151C52.2996 23.1943 52.5076 23.2723 52.7762 23.385C53.0709 23.4977 53.2746 23.593 53.3872 23.671C53.8466 23.9483 54.1369 24.204 54.2582 24.438C54.4749 24.7847 54.5832 25.1747 54.5832 25.608C54.5832 26.3793 54.3016 26.999 53.7382 27.467C53.1749 27.9263 52.4339 28.156 51.5152 28.156ZM59.1714 28.156C58.1921 28.156 57.3774 27.831 56.7274 27.181C56.0774 26.5137 55.7524 25.7033 55.7524 24.75C55.7524 23.788 56.0774 22.982 56.7274 22.332C57.3774 21.6733 58.1921 21.344 59.1714 21.344C59.8128 21.344 60.3891 21.5 60.9004 21.812C61.4118 22.1153 61.7844 22.527 62.0184 23.047L61.3164 23.45C61.1431 23.06 60.8614 22.7523 60.4714 22.527C60.0901 22.293 59.6568 22.176 59.1714 22.176C58.4521 22.176 57.8454 22.4273 57.3514 22.93C56.8574 23.424 56.6104 24.0307 56.6104 24.75C56.6104 25.4607 56.8574 26.0717 57.3514 26.583C57.8454 27.077 58.4521 27.324 59.1714 27.324C59.6481 27.324 60.0771 27.2113 60.4584 26.986C60.8484 26.7607 61.1518 26.4487 61.3684 26.05L62.0834 26.466C61.8148 26.986 61.4204 27.3977 60.9004 27.701C60.3804 28.0043 59.8041 28.156 59.1714 28.156ZM64.1733 21.5V22.579C64.5719 21.7903 65.2566 21.396 66.2273 21.396V22.228C65.6033 22.228 65.1049 22.41 64.7323 22.774C64.3596 23.1293 64.1733 23.6667 64.1733 24.386V28H63.3153V21.5H64.1733ZM68.4562 19.498C68.4562 19.6713 68.3955 19.8187 68.2742 19.94C68.1528 20.0613 68.0055 20.122 67.8322 20.122C67.6588 20.122 67.5115 20.0613 67.3902 19.94C67.2688 19.8187 67.2082 19.6713 67.2082 19.498C67.2082 19.3247 67.2688 19.1773 67.3902 19.056C67.5115 18.9347 67.6588 18.874 67.8322 18.874C68.0055 18.874 68.1528 18.9347 68.2742 19.056C68.3955 19.1773 68.4562 19.3247 68.4562 19.498ZM68.2612 28H67.4032V21.5H68.2612V28ZM73.5659 21.344C74.4932 21.344 75.2819 21.6733 75.9319 22.332C76.5905 22.9907 76.9199 23.7967 76.9199 24.75C76.9199 25.7033 76.5905 26.5093 75.9319 27.168C75.2819 27.8267 74.4932 28.156 73.5659 28.156C72.4132 28.156 71.5379 27.6793 70.9399 26.726V30.6H70.0819V21.5H70.9399V22.774C71.5379 21.8207 72.4132 21.344 73.5659 21.344ZM71.6809 26.583C72.1749 27.077 72.7815 27.324 73.5009 27.324C74.2202 27.324 74.8269 27.077 75.3209 26.583C75.8149 26.0717 76.0619 25.4607 76.0619 24.75C76.0619 24.0307 75.8149 23.424 75.3209 22.93C74.8269 22.4273 74.2202 22.176 73.5009 22.176C72.7815 22.176 72.1749 22.4273 71.6809 22.93C71.1869 23.424 70.9399 24.0307 70.9399 24.75C70.9399 25.4607 71.1869 26.0717 71.6809 26.583ZM81.6646 21.5V22.332H79.7926V26.271C79.7926 26.6263 79.8619 26.882 80.0006 27.038C80.1392 27.1853 80.3472 27.2633 80.6246 27.272C80.9019 27.272 81.2486 27.2633 81.6646 27.246V28C80.7372 28.1387 80.0482 28.0737 79.5976 27.805C79.1556 27.5277 78.9346 27.0163 78.9346 26.271V22.332H77.5696V21.5H78.9346V19.94L79.7926 19.68V21.5H81.6646Z" fill="white"/>
</g>
<rect x="0.5" y="0.5" width="135" height="135" rx="19.5" stroke="#3579C6"/>
<defs>
<clipPath id="clip0_3328_1110">
<rect width="136" height="136" rx="20" fill="white"/>
</clipPath>
</defs>
</svg>
