<svg width="116" height="116" viewBox="0 0 116 116" fill="none" xmlns="http://www.w3.org/2000/svg">
<rect width="116" height="116" rx="26" fill="#152217"/>
<rect x="8" y="8" width="100" height="100" rx="20" fill="white"/>
<rect x="8" y="8" width="100" height="100" rx="20" fill="url(#paint0_linear_3775_7092)"/>
<g clip-path="url(#clip0_3775_7092)">
<rect x="14" y="14" width="88" height="88" rx="14" fill="url(#paint1_linear_3775_7092)" fill-opacity="0.8"/>
<rect x="14" y="14" width="88" height="88" rx="14" fill="url(#paint2_linear_3775_7092)" fill-opacity="0.8"/>
<rect x="14" y="14" width="88" height="88" rx="14" fill="url(#paint3_linear_3775_7092)" fill-opacity="0.8"/>
<rect x="14" y="14" width="88" height="88" rx="14" fill="url(#paint4_linear_3775_7092)" fill-opacity="0.8"/>
<rect x="14" y="14" width="88" height="88" rx="14" fill="black" fill-opacity="0.79"/>
<rect x="22" y="80" width="103" height="43" rx="9" fill="#345F4F" fill-opacity="0.2"/>
<rect x="84" y="85" width="36" height="8" rx="1" fill="#345F4F" fill-opacity="0.2"/>
<rect x="84" y="85" width="15" height="8" rx="1" fill="#345F4F" fill-opacity="0.2"/>
<rect x="84" y="97" width="36" height="21" rx="2" fill="#345F4F" fill-opacity="0.2"/>
<rect x="27" y="85" width="52" height="33" rx="3" fill="black" fill-opacity="0.56"/>
<rect x="29" y="87" width="36" height="1" rx="0.5" fill="#345F4F" fill-opacity="0.2"/>
<rect x="29" y="89" width="36" height="1" rx="0.5" fill="#345F4F" fill-opacity="0.2"/>
<rect x="29" y="91" width="31" height="1" rx="0.5" fill="#345F4F" fill-opacity="0.2"/>
<rect x="29" y="93" width="31" height="1" rx="0.5" fill="#345F4F" fill-opacity="0.2"/>
<rect x="29" y="95" width="33" height="1" rx="0.5" fill="#345F4F" fill-opacity="0.2"/>
<rect x="29" y="97" width="33" height="1" rx="0.5" fill="#345F4F" fill-opacity="0.2"/>
<rect x="22" y="19" width="103" height="12" rx="6" fill="#345F4F" fill-opacity="0.2"/>
<rect x="28" y="23" width="15" height="4" rx="1" fill="#345F4F" fill-opacity="0.2"/>
<rect x="50" y="23" width="69" height="4" rx="1" fill="#345F4F" fill-opacity="0.2"/>
<path d="M44.679 66H39.378L32.093 44.3H36.743L42.044 60.978L47.314 44.3H51.995L44.679 66ZM63.1615 58.87V50.5H67.1605V66H63.1615V64.264C62.2109 65.7107 60.6712 66.434 58.5425 66.434C56.8479 66.434 55.4425 65.8657 54.3265 64.729C53.2312 63.5717 52.6835 62.001 52.6835 60.017V50.5H56.6825V59.521C56.6825 60.5337 56.9512 61.319 57.4885 61.877C58.0465 62.435 58.8009 62.714 59.7515 62.714C60.8055 62.714 61.6322 62.3937 62.2315 61.753C62.8515 61.0917 63.1615 60.1307 63.1615 58.87ZM85.8891 59.893H74.2021C74.7188 61.8357 76.1758 62.807 78.5731 62.807C80.1025 62.807 81.2598 62.2903 82.0451 61.257L85.2691 63.117C83.7398 65.3283 81.4871 66.434 78.5111 66.434C75.9485 66.434 73.8921 65.659 72.3421 64.109C70.7921 62.559 70.0171 60.606 70.0171 58.25C70.0171 55.9353 70.7818 53.9927 72.3111 52.422C73.8198 50.8513 75.7831 50.066 78.2011 50.066C80.4951 50.066 82.3655 50.8513 83.8121 52.422C85.3001 53.9927 86.0441 55.9353 86.0441 58.25C86.0441 58.684 85.9925 59.2317 85.8891 59.893ZM74.1401 56.793H82.0451C81.8178 55.7803 81.3528 55.0053 80.6501 54.468C79.9681 53.9307 79.1518 53.662 78.2011 53.662C77.1265 53.662 76.2378 53.941 75.5351 54.499C74.8325 55.0363 74.3675 55.801 74.1401 56.793Z" fill="#478E6B"/>
</g>
<defs>
<linearGradient id="paint0_linear_3775_7092" x1="90.8283" y1="141.838" x2="58" y2="7.99999" gradientUnits="userSpaceOnUse">
<stop stop-color="#1D2530"/>
<stop offset="1" stop-color="#0CFA74"/>
</linearGradient>
<linearGradient id="paint1_linear_3775_7092" x1="58" y1="14" x2="58" y2="32.4412" gradientUnits="userSpaceOnUse">
<stop/>
<stop offset="1" stop-opacity="0"/>
</linearGradient>
<linearGradient id="paint2_linear_3775_7092" x1="58" y1="102" x2="58" y2="90.6765" gradientUnits="userSpaceOnUse">
<stop/>
<stop offset="1" stop-opacity="0"/>
</linearGradient>
<linearGradient id="paint3_linear_3775_7092" x1="102" y1="60.5882" x2="88.7353" y2="60.5882" gradientUnits="userSpaceOnUse">
<stop/>
<stop offset="1" stop-opacity="0"/>
</linearGradient>
<linearGradient id="paint4_linear_3775_7092" x1="14" y1="60.2647" x2="27.9118" y2="60.2647" gradientUnits="userSpaceOnUse">
<stop/>
<stop offset="1" stop-opacity="0"/>
</linearGradient>
<clipPath id="clip0_3775_7092">
<rect x="14" y="14" width="88" height="88" rx="14" fill="white"/>
</clipPath>
</defs>
</svg>
